<svg version="1.0" xmlns="http://www.w3.org/2000/svg" width="837.33333" height="644" viewBox="0 0 628 483">
	<path d="M0 142.1c0 113.2.3 142 1.3 141.7.6-.3 1.3-1.8 1.5-3.4.3-3.7 2.3-10.5 3.5-12.2.5-.6 1.7-1.2 2.6-1.2 1.3 0 1.6-1 1.5-4.8-.1-2.6-.4-5.4-.7-6.2-1.5-3.9-.1-7.9 4.6-12.8 2.7-3 4.7-6.1 4.7-7.4.1-3.3 3.7-10.8 6.7-14l2.7-2.8-3.9-3.3c-3.4-2.9-3.8-3.8-3.9-8-.1-4.1.3-5.1 3.2-7.8 2.6-2.4 3-3.4 2.2-4.9-1.5-2.8-1.2-6.7.5-7.4 1.4-.5 1.2-1.3-1.1-5.1-1.4-2.5-2.4-4.9-2-5.2.6-.7 15.3 1.4 16.9 2.4 1.6 1-.6 2.3-4.1 2.3-2.8 0-3.3.3-2.2 1 .8.5 3.7 1 6.3 1 4 0 4.7-.3 4.5-1.7-.2-.9.7-2.2 1.9-2.8 1.7-.9 2-1.4 1.1-2.3-.9-.9-.9-2 .1-4.8 1.7-4.6.2-6.7-2.8-4-2.4 2.2-4.1 1.3-4.1-1.9 0-2.9 3.1-4 9-3.2 4.2.5 5.7-.2 8.4-4.3 2.7-4.2 1.4-10.2-1.7-7.1-2.5 2.5-15.1.4-15.9-2.7-.4-1.3-2.3-2.2-6.2-3.1-3.6-.8-5.6-1.8-5.6-2.7 0-.8.1-1.4.3-1.4.1 0 3.7.7 8 1.5 11 2.1 13.7 2 13.7-.5 0-1.4-.7-2-2.4-2-1.3 0-3.4-.8-4.7-1.8-1.3-1.1-3.6-2.2-5.1-2.6-1.6-.3-2.8-1.1-2.8-1.6 0-1.8 2.2-2.1 4.5-.6 3.2 2.1 3.5 2 3.5-1 0-2.5.1-2.5 5.6-1.8 5.4.6 5.6.6 5.2-1.7-.2-1.8-1.4-2.6-5.6-3.9-6.4-1.8-6.8-3.6-.8-3.2 3.8.2 4.4 0 4.9-1.9.7-2.7.1-3.9-1.9-3.9-.8 0-1.4-.5-1.4-1 0-.6 1.4-1 3-1 1.7 0 3-.3 3-.6 0-1.2-5.2-5.5-7.9-6.6-3.6-1.5-.7-2.2 4.5-1 5.2 1.2 6.4.6 6.4-3.1 0-1.7.7-3.8 1.6-4.8 1.4-1.6 1.4-2 0-4.1-1.4-2.2-1.4-2.7.8-7.4 1.3-2.8 3.6-6.1 5.2-7.3 1.5-1.2 3.6-3.6 4.7-5.4 1.1-1.8 3.8-5.3 6.1-7.9 2.2-2.5 4.7-5.3 5.4-6.2.7-.9 2.1-1.6 3.1-1.6 1.4 0 1.8-.5 1.4-1.8-.3-1.3 1.5-3.7 6.1-8 6.4-5.9 10.7-8.1 16.6-8.3 1.4 0 1.9-.3 1.2-.6-1.7-.7-.5-2.3 1.9-2.3 1 0 1.9-.5 1.9-1 0-.6 5-.9 13.8-.7 15.3.4 23.2-.7 24-3.5.6-2.3 3-3 6.7-1.9l3 .8-3 .8c-5.6 1.3-6 1.9-1.7 2.3l4.4.3-.6 3.4c-.6 3.1-.4 3.5 1.7 4 1.8.5 3.1 0 5.1-2 1.4-1.4 2.6-3.1 2.6-3.6 0-.6 1.1-.8 2.8-.5 1.5.4 4.1.2 5.8-.3 1.7-.5 3.7-.5 4.4-.1.7.4 2.8.3 4.7-.3 2.5-.8 4-.8 5.3 0 2.2 1.5 3 .7 3-2.9 0-4.1 3.3-3.7 6 .7 1.2 1.9 3 4 4.1 4.5 1.6.9 2.2.4 4.4-3.1 1.8-2.7 3.1-3.9 4.1-3.5.9.3 1.8.6 2 .6.2 0 .4.7.4 1.5 0 2 2 1.8 5-.5 3.1-2.4 12.6-2.8 15.6-.5 3 2.2 10.4 1.8 10.4-.7 0-1.8 4.1-6.8 5.6-6.8.8 0 1.4.9 1.4 2 0 2.4 2.2 2.6 4 .4 2.7-3.1 5-3.6 8.7-1.9 3.7 1.8 3.5 3.1-.7 3.7-1.8.2-2.6 1.1-3.1 3.6-1.1 5.6-6.9 10-6.9 5.2 0-1.4-.7-2-2.3-2-3.3 0-4 1-2.1 3.1.9 1 1.4 2.5 1.1 3.3-1.2 3 1.6 2.7 6.6-.7 2.9-1.9 7.2-4.5 9.7-5.8 3.6-1.8 4.1-2.4 2.5-2.7-3.5-.7-3.9-2-1.2-3.3 2.1-1 3.5-.9 6.7.1 3.8 1.3 4.2 1.2 6.8-1.2 4.1-3.9 6.8-5 8.1-3.5.8 1 .7 2.2-.1 4.5-1.3 3.5-.1 10.3 1.9 10.9.7.3 2.6-1.7 4.3-4.3 3-4.7 3.1-4.8 7.9-4.5 4.6.2 4.9.1 6.9-3.3 2.3-3.9 4.2-4.7 4.2-1.8 0 1 .5 2.3 1.2 3 .9.9.8 1.6-.5 3-1 1.1-1.5 2.6-1.2 3.5.8 1.9-2.5 3.1-6.3 2.3-2-.5-3.4 0-5.4 1.9-1.6 1.4-2.8 3-2.8 3.5 0 1.7 5.6 1.1 8.1-.8 1.3-1.1 4.5-2.2 7.2-2.5 2.6-.4 5.8-1.4 7.1-2.2 3.6-2.4 8.7-3.6 12.3-2.9 2.6.5 3.3 1.1 3.3 3 0 1.8.7 2.4 3.4 2.9 1.9.4 4.3.2 5.5-.5 1.4-.7 2.7-.8 3.8-.1 1.6.8 1.4 1.1-1 2.2-3.4 1.5-3.4 2.6-.1 4.1 2 .9 3 .9 4.5 0 1-.7 2.5-1.2 3.3-1.2.7 0 1.9-.7 2.6-1.5.7-.8 2.7-1.5 4.5-1.5 2 0 4.2-.9 5.9-2.5 1.5-1.4 3.6-2.5 4.7-2.5 2.1 0 2.6 1.6.7 2.3-.8.2-.1 1 1.5 1.8 2.3 1 3.2 1 4.5.1 2.9-2.1 7.6-4 8.5-3.5.5.3.5.8 0 1.2-1.8 1.1-2.2 4.9-.6 5.5 2.8 1.1 4.8.6 6.1-1.5 1.3-2 1.4-2 3.3-.3s2 1.7 2.5-.3c.8-3 3.2-3.6 4.4-1.3.6 1.1 1.9 2 3 2 1 0 3.2 1.1 4.8 2.5 2.7 2.2 3.9 2.5 11.1 2.5 6.5 0 8.1.3 8.1 1.5 0 1.1-1.1 1.5-4 1.5-3.2 0-4 .4-4 1.9 0 3.1 2.4 4.3 6.7 3.5 2.1-.5 4.1-.8 4.4-.9.4 0 1.5-1 2.5-2.3 1.8-2.2 2.1-2.3 4.9-.8 1.7.9 3.5 1.6 4.1 1.6.6 0 2.3 1 3.8 2.1 2.1 1.6 2.6 2.7 2.2 4.5-.5 2 0 2.7 3.3 4.4 3.9 1.9 10.1 2.7 11.4 1.3.4-.3 0-1.5-.9-2.5-1.3-1.3-2-1.5-3-.7-1 .9-1.5.7-2-.4-.3-.9-.3-2.1.1-2.7.8-1.4 5.8-1.3 7.3.2.9.9 1.6.8 3-.5 2.3-2.1 3.6-.9 4.7 4.2l.7 3.4 2.3-2.9 2.3-2.8 5.3 1.3c3 .7 6.2 2 7.2 2.9 1.6 1.4 2.2 1.4 7-.6 2.9-1.2 6.3-2.2 7.6-2.2 1.4 0 4-.5 5.8-1.2 2.5-.9 3.6-.9 4.4-.1.9.9-.8 1.7-6.5 3.4-7.6 2.2-9.8 4.4-5.3 5.3 6.2 1.3 9.8 1.6 12.1 1 2.2-.5 2.4-1 1.9-3.5-.6-3.3-.7-3.3 3.6-1.8 2.6.9 3.4.9 4.4-.4 1.8-2.3 14.2-2.9 18.4-.9 3.1 1.5 3.7 1.4 8.3-.2 8.9-3.2 13.8-.2 5.6 3.5-2.5 1.1-4.6 2.4-4.6 2.9 0 1.9 4.2 1 7.1-1.5 1.8-1.5 3.6-2.2 4.7-1.8 2.5.9 8.2 5.3 8 6.1-.2.4 1.1 2.1 2.7 3.8 1.7 1.6 4.1 4.5 5.5 6.3 1.4 1.9 4 4.9 5.8 6.7 1.7 1.8 3.2 3.8 3.2 4.5 0 .6.9 2.2 1.9 3.6 1.6 2 1.8 2.9.9 4.8-.8 1.9-.8 2.8.3 4.1.9 1.1 1.4 4.2 1.4 8.9 0 5.9.4 7.7 2 9.5 1.3 1.5 2 3.7 2.1 6.8.3 14.9.3 15 3.1 18.2 2.6 3.2 3 4.6 3.9 15 .5 4.6.1 6.2-2.1 10.2-2.2 4-3.5 5-8 6.7-2.9 1.1-9.3 2.8-14.3 3.7l-8.9 1.7-3.7-2.2c-3.9-2.4-4.7-1.9-1.9 1.2 1.7 1.8 1.7 1.9-.2 3.3-1 .8-2.5 1.4-3.3 1.4-.9 0-1.2.6-.8 1.6.3.9.6 2.6.6 3.9 0 1.6.9 2.6 3.3 3.6 4.3 1.8 22.8 19.3 24.6 23.3.7 1.7 1.9 4.2 2.6 5.6.6 1.4 2.2 5.3 3.5 8.8 1.2 3.4 3.1 6.9 4.2 7.6 2.4 1.7 8.8 16.1 8.8 19.8 0 4.8-8.5 8.5-23.5 10.3-5.3.6-6.4 1.2-9.7 4.7l-3.7 4 3.6 5c2 2.7 4.2 5.2 4.8 5.4.7.3 3.3-.6 5.9-2l4.7-2.5-3.3-.3c-6-.6-4-3.1 4.2-5.5 8.7-2.5 17.8-2.9 20.5-.9 1.8 1.3 1.8 1.4-.6 2.7-1.3.7-4.6 1.8-7.4 2.5l-5 1.1 4.8 1.3c6.4 1.7 8.2 4.4 7.1 10.7-1 6.4-.8 16.4.4 17.2.5.3 1.2 1.5 1.6 2.6.3 1.1 1.5 3.1 2.6 4.5 1.9 2.5 2 1.6 2-162.8V0H492.1c-89.6 0-136.2.3-136.6 1-.3.5-1.3 1-2.1 1s-1.2-.5-.9-1c.4-.7-58.5-1-175.9-1H0v142.1zM347 4.5c-.7.8-1.6 1.2-2.1.9-1.3-.8-.1-2.4 1.8-2.4 1.3 0 1.3.3.3 1.5zm-41.7 3c-.3 1.3-5.3 2-5.3.7 0-1.5 1.3-2.3 3.5-2 1.1.2 1.9.7 1.8 1.3zM244 8c0 .5-.4 1-1 1-.5 0-1-.5-1-1 0-.6.5-1 1-1 .6 0 1 .4 1 1zm-8.3.6c-.3.3-1.2.4-1.9.1-.8-.3-.5-.6.6-.6 1.1-.1 1.7.2 1.3.5zM208 11.5c0 .8-.9 1.5-2 1.5s-2-.7-2-1.5.9-1.5 2-1.5 2 .7 2 1.5zm54.6.6c1 1.7-1.3 3.6-2.7 2.2-1.2-1.2-.4-3.3 1.1-3.3.5 0 1.2.5 1.6 1.1zm30.4 1.3c0 1.5-7.8 4.6-11.4 4.6-2.5 0-1.4-1.1 3.9-3.9 4.6-2.4 7.5-2.7 7.5-.7zm-63.2 2.3c.2.9-.8 1.3-3 1.3-1.8.1-4.6.7-6.3 1.4-3 1.4-3 1.5 1.8 3 2.9.9 1.9 2.6-1.6 2.6-1.9 0-5.6.7-8.3 1.5-7.9 2.4-9.4 1.6-2.7-1.5 5.1-2.3 6.1-3.2 5.6-4.8-.4-1.7.3-2.3 4.4-3.5 5.6-1.8 9.5-1.7 10.1 0zM193 17.3c0 .7-1 1.7-2.2 2.2-1.4.6-2.4 2.1-2.6 3.7-.4 3.1-1.1 3.5-8.9 4.3-4.8.6-6.1.4-7.3-1-1.2-1.4-1.2-1.8.1-2.6.8-.5 2.9-.9 4.8-.9 2.8 0 3.2-.2 2.1-1.5-1.7-2-.4-3.5 3.3-3.6 1.8-.1 4.3-.5 5.7-.9 3.7-1.2 5-1.1 5 .3zm-21.2 2.2c-.2.5-1.4.8-2.8.7-1.4-.1-4.3.4-6.4 1.2-4.7 1.6-7.6 1-7.6-1.6 0-1.7.7-1.9 8.5-1.6 4.8.2 8.4.7 8.3 1.3zm-20.8.4c0 1.2-2.9 2.3-4.1 1.5-.5-.3-.7-1-.4-1.5.8-1.2 4.5-1.2 4.5 0zm96.8.3c-.5 1.5-7.8 2.4-7.8 1 0-1.6 1.3-2.2 4.8-2.2 2.2 0 3.2.4 3 1.2zm88 .2c.4.5-5.6 8.6-7.3 9.8-1.7 1.2-2.8-.9-1.6-3 .6-1.1 1.1-3.1 1.1-4.5 0-1.3.3-2.7.7-3.1.7-.7 6.2-.1 7.1.8zM304 23.5c0 .8-.7 1.5-1.5 1.5-1.6 0-2-1.2-.8-2.3 1.1-1.2 2.3-.8 2.3.8zm-143.3 1.9c1.6 1.5-1.9 2.6-9.1 2.9-7 .3-9.8-.4-8.2-2 1.9-1.9 15.7-2.6 17.3-.9zm30.2 4.5c1 .7.8 1.2-1 2.5-3 2-5.8 2.1-6.6 0-1-2.8 4.3-4.6 7.6-2.5zM347 31.5c0 2.6-2.2 3.3-4.9 1.6-1.2-.8-1.2-1.2-.2-2.5 2.1-2.6 5.1-2 5.1.9zm-207.5-.6c.7 1.3-3 2.4-5.5 1.6-2.8-.9-1.5-2.5 2-2.5 1.6 0 3.1.4 3.5.9zM370 35.5c0 1-1 1.5-3 1.5-4.7 0-3.5-2.7 1.3-2.9.9-.1 1.7.6 1.7 1.4zm-3 4c0 1.7-.2 1.8-2.4.9-2.3-.9-2-2.4.4-2.4 1.1 0 2 .7 2 1.5zm68 5.4c0 1.1-2.5 2.1-5.6 2.1-2.3 0-3.1-1-1.7-2.3 1-1 7.3-.8 7.3.2zm32.9 9.3c4.4 2.1 4.4 2.2 1.9 3-3.4 1.2-7.8-.6-7.8-3.2 0-2.5.3-2.5 5.9.2zM48.4 118.6c2.2.9 2 2.4-.3 2.4-2.1 0-3.4-1.3-2.4-2.4.8-.7.8-.7 2.7 0zm-12.9 44.5c.5.5-.4.9-2.7.9-4.3 0-6.8-.8-6.8-2.2 0-1.3 8-.2 9.5 1.3zm-2 8.9c2.8.7 5.6 1.4 6.3 1.6.7.2 1.1.8.7 1.3-.3.5-3.7.9-7.6.7-7.1-.2-10.9-2.1-9.4-4.6.8-1.2 1.4-1.2 10 1z" />
	<path d="M281 38c-1.5 1.6-3.4 3-4 3-.7 0-.1 1.1 1.4 2.5 3.1 2.9 3.6 3 6.1 1.1 1.3-.9 1.9-2.7 2-5.5.1-5-1.5-5.4-5.5-1.1zM225.6 38.6c-.8 2.2 2 4.2 5.1 3.6 2.9-.5 6.3-2.9 6.3-4.3 0-1.5-10.8-.8-11.4.7zM191.3 38.7c-4 .8-2.5 2.3 2.3 2.3 3.2 0 4.4-.4 4.2-1.3-.5-1.3-3-1.7-6.5-1zM152.2 41.1c.2.6.8 1 1.3 1s1.1-.4 1.3-1c.2-.6-.4-1.1-1.3-1.1s-1.5.5-1.3 1.1zM216.8 41.7c.7.3 1.6.2 1.9-.1.4-.3-.2-.6-1.3-.5-1.1 0-1.4.3-.6.6zM331.4 42.1c-.9 1.5 1.2 3.3 3 2.6.9-.4 1.6-1.3 1.6-2.2 0-1.7-3.5-2.1-4.6-.4zM266 46c-2.5 4.9-2.5 6-.1 6 2.5 0 4.1-2.1 4.8-6.4.8-5.1-2-4.8-4.7.4zM238.7 44.8c-2 2.2-2.1 3.2-.5 3.2.6 0 2 .8 3 1.7 3 2.7 4.5.2 2.2-3.6-2.1-3.6-2.5-3.7-4.7-1.3zM179.5 46.1c-1 1.5.1 2.3 2 1.5.9-.3 1.3-1 1-1.6-.8-1.3-2.2-1.3-3 .1zM149.2 47.2c-1.8 1.8-1.4 3.8.8 3.8 2 0 4.4-3.2 3.3-4.4-1-1-2.8-.7-4.1.6zM290 48.1c-2.4 2-2.4 2.1-.5 3.5 2.5 1.8 4.9 1.8 6.6-.2.9-1.1 1-2 .2-3.2-1.5-2.4-3.5-2.5-6.3-.1zM201.6 50.2c-1.9 3.8-1.9 3.8-.3 3.8 2.1 0 5-3.7 4.4-5.5-1-2.4-2.4-1.8-4.1 1.7zM331.8 48.2c.5.5 1.6.8 2.3.6.8-.3.3-.7-1-1.1-1.7-.4-2.1-.3-1.3.5zM407.9 50c2.5 2.2 4.1 2.6 4.1 1 0-1.1-3.3-3-5.2-3-.7.1-.3.9 1.1 2zM136.6 52.2c-1.1 4.1-.8 5.2.9 3.8 1.6-1.3 2.1-6 .6-6-.5 0-1.1 1-1.5 2.2zM227.5 51.9c-.9 1.6.3 3.1 2.6 3.1 1.4 0 1.9-.6 1.7-1.7-.4-2-3.3-2.9-4.3-1.4zM317.8 51.7c.7.3 1.6.2 1.9-.1.4-.3-.2-.6-1.3-.5-1.1 0-1.4.3-.6.6zM249.9 55.7c-1.2 1.5-1.2 1.6.7 1.1 1.2-.3 2.9-.1 3.9.4 1.8 1.1 3.9-.7 2.9-2.4-.9-1.4-6.1-.8-7.5.9zM188 57.1c-1.3.8-1.3 1 0 1.9 2.1 1.4 3 1.2 3-.4 0-2-1.3-2.7-3-1.5zM242.8 57.7c-1.9.5-2.4 1.8-.9 2.7.4.3 1.6-.3 2.6-1.4 1.8-2 1.6-2.2-1.7-1.3zM210.8 58.7c.7.3 1.6.2 1.9-.1.4-.3-.2-.6-1.3-.5-1.1 0-1.4.3-.6.6zM125 60c0 .5.5 1 1 1 .6 0 1-.5 1-1 0-.6-.4-1-1-1-.5 0-1 .4-1 1zM201.5 66c-.3.5.3 1 1.4 1 1.2 0 2.1-.5 2.1-1 0-.6-.6-1-1.4-1-.8 0-1.8.4-2.1 1zM108 68c0 .5.4 1 .9 1 .6 0 1.3-.5 1.6-1 .3-.6-.1-1-.9-1-.9 0-1.6.4-1.6 1zM487.5 68c-.4.6 1.1 1 3.7.9 3.6-.1 3.9-.2 1.8-.9-3.6-1.1-4.8-1.1-5.5 0zM474.2 69.9c-.9.5-.2 1.5 2.7 3.4 2.2 1.5 4.2 2.7 4.4 2.7.2 0 .3-1.6.3-3.5 0-3.2-.2-3.5-3-3.5-1.7 0-3.7.4-4.4.9zM538 72c0 1.2.8 1.2 3.5 0 1.8-.8 1.7-.9-.7-.9-1.6-.1-2.8.3-2.8.9zM551.2 72.6c1 1 2 1.5 2.4 1.2.3-.4-.5-1.2-1.8-1.8-2.2-1.2-2.2-1.2-.6.6zM499.5 77c-.3.5.1 1 .9 1s1.8-.5 2.1-1c.3-.6-.1-1-.9-1s-1.8.4-2.1 1zM523.5 79c.3.5 1.7 1 3.1 1 1.4 0 2.2-.4 1.9-1-.3-.6-1.7-1-3.1-1-1.4 0-2.2.4-1.9 1zM550 80.5c0 .8.5 1.5 1 1.5.6 0 1-.7 1-1.5s-.4-1.5-1-1.5c-.5 0-1 .7-1 1.5zM571.5 80c-1.6.7-1.7.9-.3.9.9.1 2-.4 2.3-.9.7-1.1.7-1.1-2 0zM534 86.5c0 1 .7 1.5 1.8 1.3 2.1-.4 1.9-2.2-.2-2.6-1-.2-1.6.3-1.6 1.3zM558 87.4c1.9.7 3.7 1.2 3.9 1 .8-.7-.6-1.4-4-1.9l-3.4-.5 3.5 1.4zM549 97c3.4 2.7 5.9 2.7 3.5 0-1-1.1-2.8-2-3.9-2-2 0-2 .1.4 2zM560 104.9c0 1.6 3 3.3 4.6 2.7 1.3-.5 1.4-.9.4-2.1-1.3-1.6-5-2.1-5-.6zM571 114c0 .5.7 1 1.6 1 .8 0 1.2-.5.9-1-.3-.6-1-1-1.6-1-.5 0-.9.4-.9 1zM566.4 145.5c-.3.8-.3 1.9 0 2.4 1 1.6 3.6.1 3.6-2 0-2.2-2.8-2.6-3.6-.4zM580.2 245.2c.3.7 1.3 1.5 2.2 1.6 1.2.3 1.7-.1 1.4-1-.3-.7-1.3-1.5-2.2-1.6-1.2-.3-1.7.1-1.4 1zM565.5 251c.3.5 1 1 1.6 1 .5 0 .9-.5.9-1 0-.6-.7-1-1.6-1-.8 0-1.2.4-.9 1zM551.7 259.1c1.1 1.2 2.9 1.9 3.9 1.7 1.6-.3 1.3-.7-1.3-2.1-4.3-2.3-5.2-2.1-2.6.4zM577.4 260.2c-.7 1.1 2.9 4.8 4.6 4.8 1.9 0 1.7-3.1-.3-4.5-2.6-1.8-3.4-1.9-4.3-.3zM561 268c0 .5.5 1 1 1 .6 0 1-.5 1-1 0-.6-.4-1-1-1-.5 0-1 .4-1 1zM586 268.8c0 1.6 5.1 4.5 6.1 3.5.6-.6.5-1.4-.3-2-2-1.6-5.8-2.6-5.8-1.5zM0 287.8c0 1 7 3.6 7.7 2.8.3-.3-1-1.3-3-2.1-4.2-1.7-4.7-1.8-4.7-.7zM0 387.5V483h145.5c114.4 0 145.4-.3 145.2-1.2-.1-.7.8-1.4 2.1-1.6 1.5-.2 2.2.2 2.2 1.2 0 1.5 15.9 1.6 166.5 1.6H628v-72.7c0-65-.2-72.5-1.5-70.6-1.6 2.3-5.4 3.8-12.1 4.7-2.3.3-6.1 1.5-8.5 2.6-6.2 2.8-10.7 2.7-11.9-.4-.5-1.5-2.5-3-5.5-4.1-2.5-1-4.8-1.6-5-1.3-.3.3.3 2.5 1.4 4.9 1.8 4.1 2.5 7.4 2.2 11-.1.8-1.9 2.5-4 3.7-3 1.7-4.5 2-6.4 1.3-1.4-.5-4.3-1-6.5-.9-2.2 0-4.5-.3-5.2-.7-.6-.4-2.2 0-3.5.9-1.3.9-3.3 1.6-4.3 1.6-1.1 0-2.5.7-3.2 1.5-1.7 2-3.9 1.9-9.5-.6-4.7-2.1-4.9-2.1-6.2-.3-1.1 1.5-1.1 1.9.2 2.7.8.4 1.5 1.5 1.5 2.3 0 1.2-1 1.5-3.7 1.4-6.7-.3-7.4-.1-8.5 3-1.1 3.4-3.4 5-7.2 5-3 0-3.6.7-2.9 4.2.4 2 1.3 2.9 3.4 3.3 1.7.4 3.5.2 4.2-.3.7-.5 3.5-1.3 6.3-1.7 4.9-.6 5.4-.5 8.3 2.4 3.8 3.7 4.4 3.8 7.3.9 2-2 2.1-2.3.5-2.6-5.2-1 1.9-6.2 8.6-6.2 3.8 0 7-1 13.4-4.1 7.6-3.7 8.2-4.2 6.6-5.4-2.5-1.9-.7-3.5 4.6-4.2 4.6-.6 5.4.7 1.9 3.1-1.8 1.3-1.9 1.6-.6 1.6 2.3 0 4 3.4 3.3 6.3-.4 1.5-.1 2.8.9 3.6 2.1 1.8 2.1 8 0 8.8-1.1.4-1.4 1.3-1 2.9.4 1.4-.1 3.8-1 5.5-1.3 2.6-1.4 3.6-.3 5.5.9 1.7.9 2.7.1 3.7s-.6 2 .8 4.2c2.6 3.9 2.5 8.1-.1 12.5-2.9 4.7-3.4 5-10.7 5-3.5 0-7.2.5-8.2 1-1.5.8-3.4.4-8.3-1.9-5.1-2.3-6.6-3.5-7.5-6-.6-1.7-1.3-3.1-1.5-3.1-1.7 0-5.3 2.8-4.9 3.8.5 1.7-2.7 2.7-4.1 1.3-.8-.8-.6-1.4.7-2.4 1.8-1.3 1.8-1.5.1-4.1-1.6-2.3-1.6-2.9-.4-3.6 2.3-1.5 8.7-2.2 10.4-1.3 2.2 1.3 7.5.4 7.5-1.2 0-1.7-4.8-3.2-12.6-3.9-5.6-.5-6.2-.4-5.7 1.2.3 1.3-.4 2.2-2.2 3-2.5 1.2-3 .9-8.3-3.9-5.8-5.3-6.2-5.3-7.6.2-.5 2.4-.2 2.7 2.7 3.3 4.2.8 8 4.7 10.6 10.8 1.9 4.6 2.2 4.8 6.1 4.8 5.2 0 5.3 1.2.4 8.8-.1.2-2.3-.8-5-2.1-4.6-2.3-4.9-2.3-8.6-.8-2.2.9-3.8 2.3-3.8 3.2 0 2.1-2 2.9-7.1 2.9H513l.6-4.4c.8-5.3-.8-8.6-4.1-8.6-1.5 0-3.1-1.1-4.5-3.1-1.9-2.5-2.8-3-5.8-2.7-5.2.4-4.9 2.2.8 4.6 2.8 1.2 5.2 2.7 5.4 3.4.2.7.9 3 1.5 5.1 2.1 6.5-2.1 8.9-8 4.5-3.5-2.6-6.2-1.7-6.7 2.3-.7 4.3-2.2 5.2-7.4 4.5-3.5-.5-5.8-.2-8.3 1-5.3 2.5-7.4 0-3.4-4.2 1.7-1.8 1.9-2.6 1-4.3-1.9-3.4-8.1-1.9-8.1 2 0 3.2-4.2 4.5-9 2.6-2.2-.8-4-1.2-4-.9.1 2.1 6 10.9 8 11.9l2.4 1.2-2.9.7c-2.1.5-3.9.1-6.4-1.3-4.9-2.8-12.1-4-12.1-2 0 .8.7 1.7 1.5 2.1 2 .7 1.9 4.2-.1 5-4.8 1.8-7.7.1-15.6-9.2l-3.6-4.3-3.2 1.6c-4.2 2.2-4.7 4.1-2 7 2.3 2.4 2.3 2.5.5 4.5-2.3 2.5-4.2 2.5-8 0s-6-2.5-9.2 0c-1.4 1.1-3.7 2-5.2 2-2.7 0-8.1-2.8-11.7-6.2-2.9-2.6-8.9-2.2-8.9.7 0 1.2 1.4 2.8 3.4 4 4.9 2.9 9.3 7.3 8.9 8.8-.7 1.9-4.3 2-7.7.3-1.9-1-4.1-1.3-6.1-1-3 .6-3.1.5-2.4-2 .9-3.7-1.1-5.6-5.8-5.6-2.8 0-4-.5-4.5-1.7-1.1-3.1-3.5-5.3-5.9-5.3-2.9 0-4.9 5.2-3.1 8 .9 1.6.9 2.3-.5 3.6-2.1 2.1-4.1.9-3.4-2.1.8-3.2-4.2-5.3-8.8-3.7-1.8.7-4.5 1.2-6 1.2s-3.6.5-4.7 1c-1.6.9-2.4.5-5-2.5-5.3-6-10.8-3.7-9.4 3.9.8 3.8-.8 7.6-3 7.6-.8 0-1.5-.9-1.5-2 0-3.1-4.1-5.2-8.9-4.4-4.3.7-5.5-.8-3-3.3 2.1-2.1.1-4.1-5.3-5.3-5.9-1.3-11-1.1-11.5.6-.2.7.5 1 1.9.7 3.1-.6 9.2 3.6 9.6 6.6.6 3.9-1.4 4.7-4 1.7-2.5-2.9-8.3-4.3-10.7-2.7-.8.5-1.7 2.6-2 4.7-.5 3.3-1.1 4-3.2 4.2-2 .2-2.8-.2-3.2-1.8-.5-2-1.1-2.2-6.4-1.9-5.9.4-6.1.2-4.9-3.7.5-1.8.1-2.4-2.5-3.3-1.8-.6-4.1-1.1-5.2-1.1-1.9 0-2 .6-.6 6 .3 1-.5 1.6-2.3 1.8-2.1.3-2.9-.3-4-2.5-1.8-3.9-4.1-4-5.5-.3-.6 1.6-2 3.3-3 3.6-1 .4-2.6 1.4-3.5 2.2-2.3 1.9-9.2 1-12.1-1.5-1.2-1.1-4.1-2.5-6.3-3.2-5.7-1.8-10.6-.1-15.9 5.5-3.6 3.8-4.6 4.3-9.7 4.8-5.6.6-5.8.5-5.8-1.7 0-1.3-.6-2.9-1.2-3.6-1.1-1-.8-1.6 1.1-3.2 3-2.4 3.1-2.4 7.5.6 5.6 3.8 7.6 1.2 3.6-4.5-2-2.9-2.1-2.9-6.2-1.4-2.2.7-4.9 1.4-6 1.4-3.2 0-7.7 2.9-9.3 6-1.5 2.8-1.4 3.1 1 5.2 3.1 2.7 3.2 4.2.3 3.3-3.5-1.1-6.9-4.6-6.3-6.6.3-1 .1-2-.5-2.4-1.7-1.1-1.1-2.3 1.5-2.9 3.8-1 5-4.1 2.4-6.7-1.6-1.6-2.7-1.9-4.7-1.3-1.5.4-3.8.8-5.2.8-2 .1-2.4-.3-2.2-2.2.2-1.2-.6-3.5-1.7-5.1-1.2-1.6-1.8-3.6-1.5-4.5.5-1.2 0-1.6-1.9-1.6-2.5 0-13.6-7.6-18.5-12.6-1.4-1.4-3.4-2.4-5.2-2.4-1.8 0-3.5-.9-4.7-2.3-2.8-3.5-3.6-3.7-8.8-2.2-2.6.8-7.3 1.5-10.3 1.5-4.5 0-5.5-.3-5.9-1.9-.3-1.1-1.3-2.1-2.4-2.4-2.6-.7-2.4-3.5.4-4 2.1-.3 2.1-.4.3-1.2-1.3-.6-2.9-.3-4.8.8-1.7.9-3.8 1.7-4.8 1.7s-2.2.4-2.5 1c-.3.5-3.1 1-6.2 1h-5.6l1.9-2.1c1.5-1.7 2.6-2 6.1-1.4 3.9.6 4.3.4 4.3-1.5 0-2.7-2.7-3.7-5.4-1.9-1.6 1.1-6.5 1.4-20.6 1.5-10.2.1-19.2.3-20 .5-.8.1-4.4-.1-7.9-.5-4.9-.7-6.5-1.3-6.8-2.7-.3-1.1-1.3-1.9-2.3-1.9-1.4 0-1.9-1.3-2.4-7.1-.7-6.7-.6-7.2 1.8-9.4 3-2.8 3.6-7.9 1-8.9-1.5-.6-1.5-.8.2-2.7 1.6-1.7 1.6-2.2.4-2.9-1.9-1.3-4.6-1.2-9.2 0-3.3 1-4.2.8-6.8-1.1-2.2-1.7-2.9-3-2.8-5 .1-1.5-.3-3.3-1-4.1-1.5-1.9-.6-2.8 3-2.8 3.4 0 4.5-2.1 2.9-5.7-1-2.2-.9-2.9.9-4.8 1.5-1.6 1.9-2.9 1.4-5.4-.4-1.7-.9-3-1.3-2.9-4.6 2.5-6.2 3-7.5 2.5-1.4-.6-1.4-1 0-4 1.3-2.8 1.4-4.3.6-8.3-1.2-5.3-.3-7.4 2.9-7.4 2.6 0 2.4-2.4-.3-4.3-2.3-1.5-2.3-1.5-.3-3 1.1-.9 4.5-2.3 7.5-3.3 3-.9 5.9-2 6.4-2.4 1.2-1.1-2.1-2.6-7.3-3.3-5.9-.7-7.3-2.3-4.2-4.6 2-1.5 2.1-1.9.7-2.4-2.2-.9-2-2.4.5-3.2l2.1-.7-2.1-1.5c-1.2-.8-2.1-2.1-2.1-2.9 0-1.5-5.6-5.4-7.7-5.4-1 0-1.3 19.8-1.3 95.5zm531.5-8.6c0 2.1-4 3.2-6.2 1.6-1.7-1.3-1.7-1.4.7-2.4 3.2-1.3 5.5-1 5.5.8zM92.5 424c.4.6-.8 1-2.9 1-2 0-3.6-.5-3.6-1 0-.6 1.3-1 2.9-1 1.7 0 3.3.4 3.6 1zm0 3.5c0 1.2-4 1.9-6.1 1.1-.9-.3-1.2-1.1-.9-1.6.8-1.4 7-.9 7 .5zm21.5-.5c0 .5-.4 1-1 1-.5 0-1-.5-1-1 0-.6.5-1 1-1 .6 0 1 .4 1 1zm7.7 1c-.3 1.1-.1 2 .3 2 .5 0 2.9 1.5 5.4 3.4 2.4 1.9 6.1 3.8 8.1 4.2 2.5.4 4 1.5 5 3.4.8 1.5 2.8 3.2 4.4 3.8 1.7.6 3.2 2 3.6 3.4.4 1.2 1.4 3.1 2.2 4 3.7 4.2-2.1 6.6-6.3 2.7-2.8-2.7-4.8-2-7.5 2.5-1.1 1.9-2.7 3.7-3.5 4-2.3.9-6.1-1.1-8.1-4.1-1-1.5-2.6-3.6-3.5-4.5-2.1-2.1-2.4-5.8-.5-5.8 2.6 0 5 2.6 4.4 4.9-.4 1.8-.1 2.1 2.4 2.2 1.6.1 3.4.2 4 .3.7.1 2-1.1 3.1-2.5 1.6-2.2 1.7-2.9.7-5.2-1-2.2-1.9-2.7-4.6-2.7-2.8 0-3.6-.5-4.4-2.8-.5-1.6-2.4-3.9-4.1-5.2-2.8-2.1-3.5-2.2-6.2-1-3.7 1.5-6.5 1.5-8 0-1.8-1.8.7-4.4 4.9-5.1 2.1-.4 4.2-1.4 4.7-2.3 1.3-2.4 4.2-2.1 3.5.4zm-3.7 15l3.5 1.8-2.8 1.1c-4 1.5-7.3 1.4-9.2-.5-1.2-1.2-1.3-1.9-.4-3 1.6-1.9 4.7-1.7 8.9.6zm346.3 1.4c-.1 1.5.5 1.6 3.7 1.1 2.3-.4 4.1-.2 4.5.4.3.6 2 1.1 3.6 1.1 2 0 2.9.4 2.7 1.2-.7 1.9-3.4 2.1-5.1.3-1.2-1.1-2.2-1.3-4-.6-4.1 1.6-10.6-2.7-8-5.3 1.1-1.1 2.8 0 2.6 1.8zm-375.5 1.4c.3.9-.2 1.3-1.4 1-.9-.1-1.9-.9-2.2-1.6-.3-.9.2-1.3 1.4-1 .9.1 1.9.9 2.2 1.6zm12.2 5.3c0 1.4-2.8 2.9-4.4 2.3-1.8-.7-3.2-4.7-2.1-6.3.6-1.1 6.5 2.5 6.5 4zm13.5-1.1c-1 1.6-6.5 4.1-7.5 3.5-1.6-1-1.2-2.1 1.3-3.3 2.8-1.4 7-1.5 6.2-.2zM74 453c0 .5-.4 1-1 1-.5 0-1-.5-1-1 0-.6.5-1 1-1 .6 0 1 .4 1 1zm37.8 4.6c2.9 2 2.8 3.4-.4 3.4-3.3 0-6.4-1.7-6.4-3.5 0-2 3.9-1.9 6.8.1zm298.2 2.8c0 .8-.4 1.7-.8 2-1.3.8-3.5-1.1-2.8-2.3 1-1.6 3.6-1.4 3.6.3zm-68.2 4.1c.4 4.4-1.4 6.5-5.5 6.5-2.7 0-2.9-.8-.7-3.9 1.5-2.1 1.5-2.3-.5-3.7-3.3-2.4-2.5-3.5 2.2-3.2 4.1.3 4.2.4 4.5 4.3zm-20.1.6c-.3 1.1-.1 1.9.4 1.9.4 0 2.4 1.4 4.4 3.1 4.2 3.7 3.4 6.3-1.1 3.9-2.8-1.6-7-9.2-5.9-11 1-1.6 2.7 0 2.2 2.1zm41.7-1.5c.7 1.9-.1 3.4-1.9 3.4-1.5 0-2.8-2.7-1.9-4.1.9-1.4 3.1-1 3.8.7zm-153.5 4.8c.9 1 .9 1.6.1 2.1-1.6 1-4-.2-4-2 0-1.9 2.4-2 3.9-.1zm-47.9.6c0 .5-.7 1-1.5 1-.9 0-1.8.7-2.1 1.5-.7 1.7-10.4 2.2-10.4.5 0-.6 1.7-1 3.8-1 2.1 0 4.7-.7 5.8-1.5 2.2-1.7 4.4-1.9 4.4-.5zm145.4 3.5c2.2 3.3 2.1 3.5-1.8 3.5-6.1 0-8.3-1.9-5.4-4.8 2-2 5.5-1.4 7.2 1.3zm-20.9 1.1c3 2 3.1 3 .6 4.3-1.5.9-2.2.6-3.5-1.4-.9-1.4-1.4-3-1.1-3.5.8-1.3 1.2-1.3 4 .6zm-155.1 3c1.8.7 1.2 2.4-1 2.4-.8 0-1.4-.7-1.4-1.5 0-1.7.2-1.8 2.4-.9zm137.1 3.4c0 2.2-2.9 1.8-3.3-.3-.3-1.4.1-1.8 1.5-1.5 1 .2 1.8 1 1.8 1.8zM544.5 294.9c-1.2 2 .6 3.1 4.6 3.1 3.3 0 4-.3 3.7-1.8-.4-2-7.2-3-8.3-1.3zM531.5 301c-.3.5.1 1 .9 1 .9 0 1.6-.5 1.6-1 0-.6-.4-1-.9-1-.6 0-1.3.4-1.6 1zM568.3 314.4c2.6 2.1 5.8 6.9 7.3 10.9.5 1.3 1.3 1.7 2.8 1.3 1.1-.3 2.9-.6 3.9-.6 1.3 0 1.7-.8 1.7-3.4 0-3.7-1.2-5.1-5.3-6.1-1.6-.4-3.4-1.6-4-2.6-.8-1.4-2.3-1.9-5.2-1.9l-4 .1 2.8 2.3zM585 326.8c0 1.2 3 5.2 4 5.2.5 0 .8-1.4.8-3-.1-2.5-.5-3-2.5-3-1.2 0-2.3.3-2.3.8z" />
	<path d="M563.5 342.6c-1.7 1.8-1.9 3-.5 3.9 1.7 1.1 5-.5 5-2.5 0-2.4-2.6-3.3-4.5-1.4zM544 349c0 .6.9 2.8 2 5s2 4.7 2 5.6c0 1.4.8 1.6 4.6 1.1 5.5-.6 8.4-2.7 3.8-2.7-3.5 0-7-3.1-6.1-5.4.7-1.6-.7-3-4-4-1.4-.5-2.3-.3-2.3.4zM524 350c0 .5.5 1 1 1 .6 0 1-.5 1-1 0-.6-.4-1-1-1-.5 0-1 .4-1 1zM534.2 358.2c.2 1.5 1.1 2.4 2.6 2.6 2.6.4 2.9-1.5.5-3.4-2.6-1.9-3.5-1.7-3.1.8zM522 365c0 .5.5 1 1 1 .6 0 1-.5 1-1 0-.6-.4-1-1-1-.5 0-1 .4-1 1zM332 374c0 .5.5 1 1 1 .6 0 1-.5 1-1 0-.6-.4-1-1-1-.5 0-1 .4-1 1zM446 377c0 .5.5 1 1 1 .6 0 1-.5 1-1 0-.6-.4-1-1-1-.5 0-1 .4-1 1zM469 377c0 .5.5 1 1 1 .6 0 1-.5 1-1 0-.6-.4-1-1-1-.5 0-1 .4-1 1zM492 376.9c0 1.5 3 4.1 4.7 4.1 1.3 0 1.3-.3.3-1.6-1.8-2.1-5-3.7-5-2.5zM381.5 378c.3.5 1.1 1 1.6 1 .6 0 .7-.5.4-1-.3-.6-1.1-1-1.6-1-.6 0-.7.4-.4 1zM405 380.5c0 .8.7 1.5 1.5 1.5s1.5-.7 1.5-1.5-.7-1.5-1.5-1.5-1.5.7-1.5 1.5zM429.6 381.8c-.8 1.3 1.1 3.5 2.3 2.8 1.6-1 1.4-3.6-.3-3.6-.8 0-1.7.4-2 .8zM506 382.2c0 .7.5 2 1 2.8.8 1.2 1 1.1 1-.7 0-1.2-.4-2.5-1-2.8-.5-.3-1 0-1 .7zM365.8 384.7c.7.3 1.6.2 1.9-.1.4-.3-.2-.6-1.3-.5-1.1 0-1.4.3-.6.6zM457.6 385.6c-.9 2.3-.2 2.8 1.3 1 .7-.8.8-1.7.3-2-.6-.3-1.3.1-1.6 1zM479 386c-1.2.8-1 1 .8 1 1.3 0 2-.4 1.7-1-.7-1.2-.6-1.2-2.5 0zM515.6 386.9c-.4.7-.5 1.5-.2 1.8.9.9 1.9-.4 1.4-1.8-.4-1.1-.6-1.1-1.2 0zM416 389.9c0 3.2.6 3.7 2.8 2.2 1.9-1.1 1.1-4.5-1.1-4.9-1.3-.3-1.7.3-1.7 2.7zM390.5 389c.3.5 1 1 1.6 1 .5 0 .9-.5.9-1 0-.6-.7-1-1.6-1-.8 0-1.2.4-.9 1zM441.2 389.7c.3 1.9 4.8 3.2 4.8 1.4 0-1-3.1-3.1-4.5-3.1-.4 0-.5.8-.3 1.7zM525 390.3c0 1.6.9 2.6 3 3.4 1.6.6 3.8 2.5 4.7 4.1 1.7 2.9 2 3 6.8 2.5 4.9-.5 10.1-3.3 6.2-3.3-.9 0-1.7-.7-1.7-1.5 0-1.7 5.5-2.1 6.5-.5.5.8 1.1.7 2 0 1-.8 1.9-.8 3.5 0 2.9 1.6 5.4-.4 3.9-3.1-1.2-2.4-5.4-2.5-12.3-.3-5 1.6-5.3 1.6-11.3-1-8-3.3-11.3-3.4-11.3-.3zM263.8 391.7c.6.2 1.8.2 2.5 0 .6-.3.1-.5-1.3-.5-1.4 0-1.9.2-1.2.5zM463.6 391.9c-.9 1.4.3 3.9 2.2 4.6 1.9.7 5-2.1 3.7-3.4-1.6-1.5-5.3-2.2-5.9-1.2zM487.2 393.2c.3.7 1.3 1.5 2.4 1.7 1 .2 2.4 1.1 3.1 2 1.2 1.4 1.3 1.2 1.1-1.4-.3-2.6-.7-3-3.7-3.3-2.4-.3-3.2 0-2.9 1zM377 395c0 1 3.2 3 4.9 3 1.7 0 1.3-2.7-.5-3.4-2.3-.9-4.4-.7-4.4.4zM402.5 396.1c.3.8 2.2 2.3 4.3 3.4 3.1 1.7 3.8 2.6 4.2 5.9.7 5.3 3.4 7 6.1 3.7 1-1.3 1.9-2.9 1.9-3.7 0-2-5.5-6.6-9.8-8.2-6.7-2.4-7.3-2.5-6.7-1.1zM508 396c-1.3.8-1.3 1 .2 1 .9 0 2-.5 2.3-1 .8-1.3-.5-1.3-2.5 0zM429.2 397.1c.2.6.7 1 1.1 1 .4-.1 1.9-.1 3.5-.2 2.4 0 2.5-.1.7-.9-2.9-1.2-5.7-1.2-5.3.1zM291.5 398c-.3.5-.1 1 .4 1 .6 0 1.1-.5 1.1-1 0-.6-.2-1-.4-1-.3 0-.8.4-1.1 1zM250.5 399.1c-1 1.5.1 2.3 2 1.5.9-.3 1.3-1 1-1.6-.8-1.3-2.2-1.3-3 .1zM339.4 399.1c-.3.6-.2 1.5.4 2.1 1.2 1.2 5.5-.8 4.7-2.3-.8-1.2-4.2-1.2-5.1.2zM451.5 399.9c-.8 1.5.3 3.1 2.1 3.1.9 0 1.4-.7 1.2-1.7-.4-2-2.4-2.8-3.3-1.4zM564.3 400.3c.4 1 .7 2.3.7 2.8s.9.9 2.1.9c2.6 0 2.1-1.8-1.1-3.9-2.3-1.5-2.4-1.5-1.7.2zM275 401.9c-.9 1.8-.8 2.1.9 2.1 2.6 0 3.4-1.5 1.7-3-1.2-.9-1.7-.7-2.6.9zM363.2 401.2c.6 1.6 3.6 3.4 4.4 2.5.9-.9-1.5-3.7-3.3-3.7-.8 0-1.3.5-1.1 1.2zM472.7 400.7c-1.1 1 1.3 3.3 3.4 3.3 2.5 0 2.4-1.6 0-3-2.3-1.2-2.6-1.2-3.4-.3zM187 402c0 .5.7 1 1.5 1s1.5-.5 1.5-1c0-.6-.7-1-1.5-1s-1.5.4-1.5 1zM513.1 403.1c-3.2 2.7-2 3.5 2.5 1.7 3.4-1.4 3.6-1.6 1.8-2.6-1.5-.8-2.5-.6-4.3.9zM486.8 403.6c-3 1.6-3.7 5-1.8 9.8 1.1 3 2.8 3.3 5.6 1.1 1.8-1.5 1.8-1.6-1.5-4.5l-3.5-3 2.4-2.5c2.7-2.9 2.5-3-1.2-.9zM501.6 402.9c-.4.7-.5 1.5-.2 1.8.9.9 1.9-.4 1.4-1.8-.4-1.1-.6-1.1-1.2 0zM210.3 403.7c-2.4.9-1.3 3.1 1.8 3.8 2.2.5 3.4.3 4-.6 1.6-2.6-2.2-4.7-5.8-3.2zM121.9 406c2.4 2.1 4.1 2.6 4.1 1.2 0-1.5-2.4-3.2-4.4-3.2-2 .1-2 .1.3 2zM299.5 404.9c-.7 1.2 3.1 2.5 4.5 1.6.6-.4.8-1.1.5-1.6-.8-1.2-4.2-1.2-5 0zM234.6 405.9c-.8 1.2.2 3.8 1.8 4.4 2 .8 3.8-.8 3.4-2.9-.3-2-4.2-3.2-5.2-1.5zM440.7 405.7c-.4.3-.7 1.5-.7 2.6 0 1.3.5 1.7 1.6 1.3.9-.3 2.8-.6 4.2-.6l2.7-.1-2.4-1.9c-2.4-2.1-4.3-2.5-5.4-1.3zM260.1 408.2c-1.7.6-2.1 1.2-1.4 1.9 1.3 1.3 5.5.8 6-.7.6-1.7-1.8-2.3-4.6-1.2zM461 408.4c0 1.6 4.1 5.2 6.9 6.1 1 .3 2.5 2.4 3.4 4.7 1.6 3.9 1.8 4.1 5.3 3.5 4.6-.8 5.4-1.6 3-2.9-1-.6-3.2-2.4-4.9-3.9-1.6-1.6-3.6-2.9-4.4-2.9-.7 0-1.6-.7-2-1.5-.5-1.4-5.2-4.5-6.8-4.5-.3 0-.5.6-.5 1.4zM351.2 409.2c.5 1.5 5.7 1.8 6.1.3.1-.6-1.3-1.1-3.2-1.3-2.4-.3-3.2 0-2.9 1zM222 410.6c-1.4.7-3.2 1.4-4 1.4-2.8.1-4.2 1.7-3.5 3.9.5 1.6 1.4 2.1 4 2.1 1.9 0 3.7.4 4 1 .3.5 1.3 1 2.1 1 1 0 1.4-1.3 1.4-4.9 0-5.8-.6-6.4-4-4.5zM375.1 409.9c-1.6 1-.7 4.7 1.4 5.5 1.5.5 5.9-4.7 4.8-5.8-.9-.9-4.6-.7-6.2.3zM105 412c0 .5.9 1 2.1 1 1.1 0 1.7-.5 1.4-1-.3-.6-1.3-1-2.1-1s-1.4.4-1.4 1zM286.7 411.7c-1.5 1.5-.5 2.3 2.8 2.3 3.6 0 4.7-1.3 1.9-2.4-2-.8-3.9-.8-4.7.1zM195.6 412.9c-.6.9 1.6 2.1 3.9 2.1.7 0 1.5-.7 1.9-1.5.4-1.1-.2-1.5-2.4-1.5-1.6 0-3.1.4-3.4.9zM399 414.1c0 1.4.5 1.9 1.7 1.7 2.6-.5 2.9-3.8.4-3.8-1.5 0-2.1.6-2.1 2.1zM511.4 413.1c-.8 1.4 3 4.9 5.5 4.9s6.1-1.2 6.1-2c0-.4-1.8-1.2-4.1-1.9s-4.7-1.5-5.4-1.7c-.7-.3-1.6 0-2.1.7zM247.7 414.6c-1.6 1.6-.6 3.5 1.6 3.2 1.2-.2 2.2-1 2.2-1.8 0-1.6-2.6-2.5-3.8-1.4zM337.2 415.2c-2 2-1.4 3 1.5 2.6 3.2-.4 4.6-3.8 1.6-3.8-1.1 0-2.4.5-3.1 1.2zM426.5 415c-1 1.7 2 4.4 4 3.6.9-.3 1.5-1.4 1.3-2.3-.4-2.1-4.3-3-5.3-1.3zM446 415.4c0 2 5.7 3.8 8.1 2.5 3.8-2 1.5-3.9-4.7-3.9-2.2 0-3.4.5-3.4 1.4zM179.3 415.7c-2.1.8-1.5 2.1 3.3 6.5 2.5 2.3 5.2 5.4 5.9 6.9 1.3 2.5 1.6 2.6 6.4 1.8 6.4-1 7.6-1.6 6-3.5-1.6-1.9-6.6-1.8-7.7.3-.6 1-1.6 1.4-2.7.9-1.7-.6-1.8-3.8-.1-7.8 1.6-3.7-6-7.2-11.1-5.1zM157.5 417c-.9 1.4-.4 1.9 2.1 2.1 3.9.4 6.8-.1 5.9-1-1.7-1.5-7.3-2.3-8-1.1zM361 416.8c0 1.4 2.3 3.2 4.2 3.2 2.1 0 2.3-1.1.6-2.8-1.3-1.3-4.8-1.6-4.8-.4zM560.7 416.7c-1.2 1.2-.7 2.2 1.8 3.9 1.3.8 2.9 1.2 3.6.8.8-.5.7-.9-.5-1.6-.9-.5-1.6-1.6-1.6-2.3 0-1.5-2.1-2-3.3-.8zM274.7 418.7c-1.5 1.4-.6 2.3 2.3 2.3 3.2 0 4-1.4 1.4-2.4-2-.8-2.9-.8-3.7.1zM146.6 420.5c-1.1.8-4.1 1.8-6.8 2.1-2.6.4-4.8 1-4.8 1.5 0 .4 1.5.5 3.4.2 2.6-.4 4.2 0 6.4 1.6 1.7 1.1 3.7 2.1 4.5 2.1 2 0 3.2 1.9 2.9 4.3-.3 1.3 1.1 2.4 5.3 4.2 4.1 1.8 5.5 3 5.3 4.3-.4 2.2 5.4 5.2 10 5.2 2.9 0 3.2-.2 2.2-1.9-.5-1.1-5.9-6-11.9-11-7.1-5.8-11.1-9.8-11.3-11.3-.4-2.7-2.6-3.3-5.2-1.3zM210.3 420c-2.7 1.1-3 3.8-.7 4.7 1.8.7 4.4-2 4.4-4.4 0-1.5-.6-1.5-3.7-.3zM300 420.3c0 1.9 2.9 5.7 4.4 5.7 1.7 0 2.7-2.5 2-4.4-.3-.8-1.5-1.7-2.7-2-3.2-.8-3.7-.7-3.7.7zM388 420.5c0 1 .7 1.5 1.8 1.3 2.1-.4 1.9-2.2-.2-2.6-1-.2-1.6.3-1.6 1.3zM410 420.5c-1 1.3-.9 1.9.5 3.6 1.9 2 1.9 2 3.9 0 1.6-1.7 1.7-2.3.6-3.5-1.6-2-3.4-2-5-.1zM522.3 420.6c-2 .9-1.5 2.4 1.3 5.1 1.9 1.7 3.3 2.3 5 1.9 2.6-.7 3.2-3.7 1.1-5.4-1.6-1.3-5.8-2.2-7.4-1.6zM232.7 422.6c-1.7 1.8-.6 3.5 2.1 3.2 1.6-.2 2.7-.9 2.7-1.8 0-1.6-3.6-2.6-4.8-1.4zM322.1 423.3c-1.4 1.8-.4 2.7 3.1 2.7 3 0 3.5-.9 1.6-2.8-1.6-1.6-3.3-1.5-4.7.1zM485.1 424.6c-1.2 1.5-2.1 3.5-2.1 4.5 0 5.2 2.9 6.3 7.4 2.8 2.4-1.9 2.5-2.3 1.3-3.8-.8-.9-1.8-2.6-2.1-3.9-.9-2.9-2-2.8-4.5.4zM169.2 423.7c-4.6.6-3.6 2.3 3.1 5.6 5 2.5 5.7 3.2 5.7 5.8 0 2.4.6 3.3 3.2 4.4 1.9.8 3.3 2.1 3.3 3.1 0 1.1 1.3 2.2 3.5 3 5 1.8 9 1.7 9-.1 0-.8-.6-1.5-1.4-1.5-2.1 0-6.6-5.8-6.6-8.5 0-1.7-.7-2.4-2.9-2.8-1.6-.3-5.1-2.7-7.7-5.2-2.7-2.5-5.1-4.4-5.4-4.3-.3 0-2 .3-3.8.5zM438 423.9c0 .5.7 1.4 1.5 2.1.7.6 2.8 3.6 4.5 6.6 2.7 4.8 3.4 5.5 5.8 5.2 3.6-.4 4-3.2.8-6-8.6-7.7-12.6-10.2-12.6-7.9zM459.5 424.3c-1.7 1.3-1.7 1.5.6 3 3.2 2.3 6.9 2.2 6.9-.1 0-3.8-4-5.4-7.5-2.9zM256.6 426.9c-.7 1.1 1.4 2 3.2 1.4.6-.3 1.2-.9 1.2-1.4 0-1.2-3.7-1.2-4.4 0zM280 426.8c0 .5 1.6 2.2 3.6 3.7 3.1 2.4 3.8 2.5 5 1.3 1.2-1.1 1.2-1.7.2-3.1-1.5-2-8.8-3.6-8.8-1.9zM370.2 427.2c.3.7 2.4 1.4 4.9 1.6 4.1.2 4.3.1 2.5-1.3-2.4-1.9-7.9-2-7.4-.3zM216 428.5c-1.8 2.1-.2 3.5 4.4 4 2.1.2 4.5 1 5.5 1.9 2.1 1.9 3.1 2 3.1.3 0-1.5-8.4-7.7-10.4-7.7-.7 0-1.9.7-2.6 1.5zM245.6 430.4c-1.7 3.3-1.7 3.4.3 7.4 1.8 3.5 2.8 4.2 7.8 5.7 3.5 1.1 6.8 2.9 8.3 4.6 2.4 2.7 10.5 5.7 11.8 4.4 1-.9-2.8-3.5-5-3.5-1.1 0-3.2-1.4-4.8-3.1-2.3-2.6-3.8-3.3-8-3.7-5.5-.5-6.8-1.8-5.1-4.9.5-1.1.7-3.8.4-6.1-.7-5.3-3.1-5.6-5.7-.8zM306 427.8c0 1.4 2.3 3.2 4.2 3.2 2.7 0 2.2-1.9-.8-3-3.1-1.2-3.4-1.2-3.4-.2zM400.2 428.6c.2 1.1 1.1 2 2.2 2.2 1.3.3 1.7-.1 1.4-1.4-.2-1.1-1.1-2-2.2-2.2-1.3-.3-1.7.1-1.4 1.4zM421.5 430.1c-1 1.6 2.5 4.9 5.2 4.9 2.8 0 4-2.4 2.3-4.5-1.4-1.7-6.6-2-7.5-.4zM333 432.3c0 3.1 5.1 5 6.6 2.5.8-1.3-2.2-3.8-4.8-3.8-1 0-1.8.6-1.8 1.3zM520.5 432c-.3.5-.2 1 .4 1 .5 0 1.3-.5 1.6-1 .3-.6.2-1-.4-1-.5 0-1.3.4-1.6 1zM384.2 436.2c.3 3 .6 3.3 4.1 3.6 2 .2 3.7 0 3.7-.3 0-1-6.1-6.5-7.2-6.5-.5 0-.8 1.5-.6 3.2zM202.1 435.4l-2.4 1.3 2.4 1.7c1.4.9 3.5 3.4 4.8 5.6 1.8 3.3 2.8 4 5.2 4 1.7 0 3.6.8 4.6 2 1 1.1 2.8 2 4 2 1.6 0 2.7.8 3.3 2.4 1.1 3 3.9 4.6 7.8 4.6 4.2 0 4.5-.9 1.2-4.7-1.7-1.8-3-4-3-4.8 0-1.1-1.2-1.5-4.3-1.5-3 0-5.3-.7-7.7-2.5-1.9-1.4-4.3-2.5-5.3-2.5-1.6 0-1.8-.5-1.3-3.4.5-2.8.3-3.7-1.3-4.5-2.6-1.4-5.1-1.3-8 .3zM359 435.5c0 1.1.7 1.5 2.3 1.3 1.2-.2 2.2-.8 2.2-1.3 0-.6-1-1.1-2.2-1.3-1.6-.2-2.3.2-2.3 1.3zM409.7 437.5c1.8 3.8 4.3 5.1 6.9 3.7 1.3-.7 1-1.4-2.1-4-5-4.5-7-4.3-4.8.3zM273.5 436c-.4.6.5 1 2 1s2.4-.4 2-1c-.3-.6-1.2-1-2-1s-1.7.4-2 1zM299 438c0 .5.9 1 2 1s2-.5 2-1c0-.6-.9-1-2-1s-2 .4-2 1zM227 438.8c0 .8 3.8 5.2 4.5 5.2.2 0 1-.3 1.9-.6 2.4-.9 1.9-2.9-.9-4.2-3-1.4-5.5-1.5-5.5-.4zM317.2 439.7c.3 1.8 3.8 2.9 6.4 1.9 2.6-1 .3-3.6-3.3-3.6-2.7 0-3.4.4-3.1 1.7zM435.3 439.7c-1.7.6-1.7 3.8 0 5.1 1 .9 1.7.4 3-1.7 1.5-2.6 1.5-2.9.1-3.5-.9-.3-1.6-.6-1.7-.5-.1 0-.8.3-1.4.6zM345.1 441.4c-.9 1-.3 1.7 3.2 3 5.4 2 5.7 2 5.7-.4 0-3.5-6.6-5.4-8.9-2.6zM282.5 442.4c-1.6 1.2-1.7 1.6-.6 3 .7.9 2.4 1.6 3.8 1.6 3.1 0 4.2-2.9 1.8-4.6-2.3-1.7-2.7-1.7-5 0zM367 443c-1.3.8-1.2 1.6.9 5.5 2.7 5.1 3.5 5.4 6.2 2.2 1.9-2.3 2.3-4.4 1.3-7.1-.7-1.8-6-2.2-8.4-.6zM307.3 444c-4 1.6-1.9 5 2.9 5 3 0 3.1-.2 2.2-3.8-.7-2.4-1.6-2.6-5.1-1.2zM395.1 446.4c-1.7 2-1 5 1.1 5.4 2 .4 6.1-3.4 5.5-5.1-.6-1.8-5.2-2-6.6-.3zM175.5 450c-.8 3.5.7 6 3.7 6 2.8 0 3.3-2.8 1.1-5.8-2.8-3.7-4-3.8-4.8-.2zM241.5 448.4c-2 1.4-1.4 3 1.5 4.6 1.4.7 2.3.6 3.4-.6 2.8-2.7-1.7-6.4-4.9-4zM330.3 447.8c-1 .6-.9 1.3.3 3 1.9 2.8 3 2.8 4.5.1.9-1.7.8-2.3-.2-3-1.7-1.1-3-1.1-4.6-.1zM199.5 451.5c-1.6.8-4.3 1.4-5.9 1.5-4 0-2.7 1.1 2.6 2 2.4.5 5 1.1 5.8 1.5.9.3 2.4-.1 3.4-.8 1.5-1.1 1.7-1.7.7-3.5-1.3-2.5-2.4-2.6-6.6-.7z" />
</svg>
