<svg width="2560" height="1015" viewBox="0 0 2560 1015" fill="none" xmlns="http://www.w3.org/2000/svg">
<g clip-path="url(#clip0)">
<mask id="mask0" mask-type="alpha" maskUnits="userSpaceOnUse" x="0" y="0" width="2560" height="1016">
<path fill-rule="evenodd" clip-rule="evenodd" d="M0 0C0 0 210.431 0 510.629 0C748.883 0 1004.48 51 1295.5 51C1579.86 51 1676 -9.0001 2001.5 1.5C2194.5 29 2560 50 2560 50V1015C2560 1015 2259.5 1025.5 1787 969.5C1475 947.5 1343.6 1015 1136.5 1015C918.67 1015 746 943.5 536.5 970C356.5 999 0 1015 0 1015V0Z" fill="#F7F7F7"/>
</mask>
<g mask="url(#mask0)">
<path d="M0 940.931L85.3333 950.843C170.667 960.385 341.333 980.765 512 970.575C682.667 960.385 853.333 921.477 1024 906.378C1194.67 891.834 1365.33 901.097 1536 926.109C1706.67 951.121 1877.33 990.028 2048 1000.22C2218.67 1010.41 2389.33 990.028 2474.67 980.487L2560 970.575V852H2474.67C2389.33 852 2218.67 852 2048 852C1877.33 852 1706.67 852 1536 852C1365.33 852 1194.67 852 1024 852C853.333 852 682.667 852 512 852C341.333 852 170.667 852 85.3333 852H0V940.931Z" fill="#F7F7F7"/>
<path d="M0 0L85.3333 21.3C170.667 43 341.333 85 512 96C682.667 107 853.333 85 1024 69.3C1194.67 53 1365.33 43 1536 58.7C1706.67 75 1877.33 117 2048 122.7C2218.67 128 2389.33 96 2474.67 80L2560 64V160H2474.67C2389.33 160 2218.67 160 2048 160C1877.33 160 1706.67 160 1536 160C1365.33 160 1194.67 160 1024 160C853.333 160 682.667 160 512 160C341.333 160 170.667 160 85.3333 160H0V0Z" fill="#F7F7F7"/>
</g>
<rect y="160" width="2560" height="692" fill="#F7F7F7"/>
</g>
<defs>
<clipPath id="clip0">
<rect width="2560" height="1015" fill="white"/>
</clipPath>
</defs>
</svg>
