<svg xmlns="http://www.w3.org/2000/svg" width="22" height="31" viewBox="0 0 22 31"><g><g><path fill="#b78b69" d="M21.823 10.847a.543.543 0 0 1-.003.756l-2.913 2.971v4.206a.529.529 0 0 1-.522.534h-4.116l-2.908 2.977-.003.003a.515.515 0 0 1-.74-.003L7.71 19.314H3.594a.529.529 0 0 1-.523-.534v-4.206l-2.913-2.97c0-.002-.002-.003-.003-.004a.543.543 0 0 1 .003-.756l2.913-2.97V3.666c0-.295.235-.534.523-.534H7.71L10.618.157l.003-.004a.515.515 0 0 1 .74.004l2.908 2.976h4.116c.288 0 .522.24.522.534v4.206l2.913 2.971.003.003zm-6.733-1.98a.542.542 0 0 0-.149-.699.516.516 0 0 0-.73.122l-3.28 5.264-2.154-2.672a.516.516 0 0 0-.737-.07.543.543 0 0 0-.068.754l2.615 3.206c.1.122.247.193.402.192h.032a.521.521 0 0 0 .408-.245l3.66-5.879z"/></g><g><path fill="#222939" d="M15.022 20.998l.003.002a.543.543 0 0 1-.003.756L6.13 30.841a.517.517 0 0 1-.57.112.535.535 0 0 1-.324-.491v-3.244h-3.18a.523.523 0 0 1-.481-.332.543.543 0 0 1 .13-.582L7.391 20.5l.738.754-4.79 4.895h2.42c.29 0 .524.24.524.534v2.49l7.63-7.78-.1-.102.743-.753.466.475zm5.34 5.888c-.08.2-.27.33-.482.332h-3.174v3.227a.535.535 0 0 1-.523.535.517.517 0 0 1-.372-.155l-4.095-4.184.743-.754 3.2 3.27v-2.49c0-.295.235-.534.524-.534h2.421l-3.2-3.27.34-.353c.137-.138.247-.3.324-.481l4.184 4.275a.543.543 0 0 1 .11.582z"/></g></g></svg>