<?xml version="1.0" standalone="no"?>
<!DOCTYPE svg PUBLIC "-//W3C//DTD SVG 20010904//EN"
 "http://www.w3.org/TR/2001/REC-SVG-20010904/DTD/svg10.dtd">
<svg version="1.0" xmlns="http://www.w3.org/2000/svg"
 width="628.000000pt" height="483.000000pt" viewBox="0 0 628.000000 483.000000"
 preserveAspectRatio="xMidYMid meet">

<g transform="translate(0.000000,483.000000) scale(0.100000,-0.100000)"
fill="#000000" stroke="none">
<path d="M3450 4790 c-13 -8 -12 -10 3 -10 9 0 17 5 17 10 0 12 -1 12 -20 0z"/>
<path d="M2262 4681 c-11 -6 -10 -10 4 -15 20 -8 32 0 18 14 -5 5 -15 5 -22 1z"/>
<path d="M2190 4660 c-9 -6 -10 -10 -3 -10 6 0 15 5 18 10 8 12 4 12 -15 0z"/>
<path d="M1478 4623 c7 -3 16 -2 19 1 4 3 -2 6 -13 5 -11 0 -14 -3 -6 -6z"/>
<path d="M1555 4620 c3 -5 18 -10 32 -10 32 0 28 5 -10 14 -19 4 -26 3 -22 -4z"/>
<path d="M3285 4618 c-2 -7 -6 -30 -10 -50 -8 -50 8 -49 40 2 14 22 30 40 36
40 5 0 7 5 4 10 -9 14 -65 12 -70 -2z"/>
<path d="M3015 4590 c-3 -5 -2 -10 4 -10 5 0 13 5 16 10 3 6 2 10 -4 10 -5 0
-13 -4 -16 -10z"/>
<path d="M1720 4581 c0 -18 20 -23 60 -16 56 9 50 25 -10 25 -27 0 -50 -4 -50
-9z"/>
<path d="M2095 4580 c-3 -6 1 -7 9 -4 18 7 21 14 7 14 -6 0 -13 -4 -16 -10z"/>
<path d="M1463 4573 c-13 -2 -23 -8 -23 -12 0 -6 83 -7 153 -2 4 1 7 6 7 11 0
10 -92 12 -137 3z"/>
<path d="M2624 4569 c-9 -15 18 -40 34 -30 15 9 5 41 -13 41 -8 0 -17 -5 -21
-11z"/>
<path d="M2900 4570 c-12 -8 -12 -10 5 -10 19 -1 19 -2 -4 -20 -24 -21 -20
-24 13 -11 11 4 21 17 23 29 3 23 -12 28 -37 12z"/>
<path d="M3142 4511 l-40 -59 24 -6 c34 -9 64 9 57 34 -3 13 1 22 11 26 16 6
16 8 0 25 -9 10 -13 23 -9 28 3 6 4 11 2 11 -2 0 -22 -27 -45 -59z"/>
<path d="M1330 4516 c0 -9 39 -13 51 -5 10 6 4 9 -18 9 -18 0 -33 -2 -33 -4z"/>
<path d="M1540 4510 c0 -12 17 -12 45 0 17 7 15 9 -12 9 -18 1 -33 -3 -33 -9z"/>
<path d="M2253 4509 c-16 -16 -4 -49 19 -49 14 0 18 5 14 16 -3 9 -6 22 -6 30
0 17 -12 18 -27 3z"/>
<path d="M2794 4500 c-6 -6 -20 -12 -32 -15 -12 -2 -29 -11 -38 -19 -8 -9 -26
-19 -39 -22 -13 -3 -26 -12 -29 -20 -3 -8 -12 -14 -21 -14 -8 0 -15 -5 -15
-12 0 -6 -3 -8 -6 -5 -4 3 -16 1 -28 -5 -11 -7 -34 -13 -51 -13 -19 -1 -43
-14 -64 -33 -38 -36 -44 -38 -61 -17 -7 8 -18 15 -26 15 -7 0 -22 14 -34 30
-20 28 -60 42 -60 21 0 -15 90 -110 111 -116 10 -4 17 -10 14 -15 -3 -4 12 -4
33 0 l37 9 -30 -25 c-16 -13 -35 -22 -42 -19 -7 2 -28 -25 -49 -63 -37 -66
-37 -68 -40 -197 -2 -71 -3 -142 -4 -157 0 -16 -6 -28 -13 -28 -8 0 -8 -3 2
-9 7 -5 10 -14 7 -20 -4 -6 -11 -9 -16 -6 -5 3 -12 1 -15 -5 -4 -6 -3 -9 2 -8
4 1 18 -3 31 -10 17 -10 21 -19 16 -36 -4 -19 -1 -26 15 -31 12 -3 21 -9 21
-13 0 -4 4 -45 9 -92 6 -47 13 -132 16 -190 4 -58 9 -108 11 -111 4 -6 -12
-349 -20 -436 -3 -35 0 -43 13 -43 14 -1 14 -2 1 -13 -9 -7 -16 -28 -16 -47 0
-108 -5 -164 -13 -151 -6 9 -11 10 -15 2 -4 -6 -16 -11 -27 -11 -10 0 -19 -4
-19 -10 0 -5 5 -10 10 -10 17 0 11 -24 -14 -51 -72 -78 -76 -180 -9 -258 24
-29 33 -47 28 -61 -6 -18 -2 -20 43 -20 79 0 202 12 197 20 -2 4 -5 41 -6 83
l-2 77 -28 0 c-38 0 -59 9 -59 27 0 12 9 14 44 9 l44 -7 -4 111 c-3 109 -3
110 17 100 15 -8 24 -8 34 0 21 18 29 -5 41 -120 l11 -105 1 113 c2 89 5 112
16 112 14 0 20 -38 29 -184 l2 -40 50 -2 c28 -2 68 -6 90 -9 l41 -6 18 50 c9
27 26 57 36 66 11 10 17 22 13 28 -3 6 -1 7 5 3 7 -4 17 -4 23 -1 13 9 -28 55
-49 55 -9 0 -12 3 -9 7 4 3 23 6 42 5 34 -1 34 0 33 36 -1 20 0 73 2 117 l4
80 -27 -3 c-33 -4 -36 17 -7 43 19 17 20 17 20 1 0 -9 5 -14 10 -11 6 3 10 17
10 30 0 21 -53 246 -93 395 -11 40 -17 139 -22 356 -7 335 -11 314 61 314 30
0 34 3 34 28 0 43 11 70 29 76 9 3 3 3 -14 0 -16 -2 -36 -6 -44 -7 -8 -1 -24
18 -37 42 -13 24 -49 75 -80 115 -32 39 -61 76 -66 82 -6 9 -14 47 -17 88 -1
4 -7 6 -15 3 -8 -3 -17 -1 -20 6 -2 7 -5 4 -5 -5 -1 -10 -19 -27 -41 -38 -50
-25 -59 -25 -29 0 20 16 21 19 7 20 -29 0 -31 21 -7 71 30 62 54 62 53 2 -1
-37 1 -40 12 -25 8 9 14 13 14 8 0 -5 11 1 25 14 24 22 24 24 7 43 -16 19 -16
19 5 13 16 -5 23 -2 28 13 8 25 52 54 71 47 11 -4 12 -10 4 -25 -15 -29 -13
-32 15 -25 22 5 25 3 25 -21 0 -22 -4 -26 -20 -22 -11 3 -22 1 -25 -4 -6 -9
33 -22 56 -19 27 4 38 0 49 -20 8 -16 6 -24 -10 -40 l-21 -21 23 -32 23 -32
12 95 c6 52 18 115 27 140 8 24 14 46 12 48 -2 1 -16 -18 -30 -43 -32 -54 -63
-61 -72 -16 -9 45 -110 81 -140 51z m-236 -207 c17 -4 22 -11 19 -24 -3 -11 1
-19 11 -21 9 -2 -26 -22 -76 -45 l-93 -42 22 39 c21 37 26 40 66 40 27 0 42 4
38 10 -3 6 -17 10 -31 10 -28 0 -32 15 -6 29 20 12 21 12 50 4z m347 -303 c-3
-5 -14 -10 -23 -9 -14 0 -13 2 3 9 27 11 27 11 20 0z m-105 -40 c-8 -5 -19
-10 -25 -10 -5 0 -3 5 5 10 8 5 20 10 25 10 6 0 3 -5 -5 -10z m-105 -39 c-6
-5 -21 -11 -35 -15 -21 -5 -20 -3 5 9 35 17 42 18 30 6z m-100 -40 c-47 -21
-92 -36 -85 -28 7 8 103 46 115 46 6 0 -8 -8 -30 -18z m-105 -40 c-8 -5 -26
-11 -40 -15 -21 -5 -20 -3 5 9 32 15 60 20 35 6z m-140 -56 c0 -8 -4 -15 -10
-15 -5 0 -10 7 -10 15 0 8 5 15 10 15 6 0 10 -7 10 -15z m550 -603 c-12 -2
-27 2 -34 9 -8 9 -8 10 1 5 6 -3 15 -2 18 4 5 8 12 7 23 -2 14 -12 13 -13 -8
-16z m-165 -2 c3 -5 -1 -10 -10 -10 -9 0 -13 5 -10 10 3 6 8 10 10 10 2 0 7
-4 10 -10z m72 -6 c-3 -3 -12 -4 -19 -1 -8 3 -5 6 6 6 11 1 17 -2 13 -5z
m-267 -111 c82 -93 146 -239 150 -348 3 -68 0 -85 -14 -85 -9 0 -15 22 -19 78
-9 124 -26 146 -19 25 4 -93 3 -103 -12 -103 -13 0 -16 -5 -11 -21 5 -15 4
-19 -4 -15 -6 4 -11 21 -11 37 0 18 -4 28 -10 24 -6 -4 -7 -11 -4 -17 6 -10
-12 -28 -28 -28 -5 0 -8 31 -8 68 0 86 -21 169 -64 254 -20 41 -32 76 -29 88
5 19 8 17 30 -16 46 -67 84 -165 98 -253 11 -70 13 -77 14 -40 2 102 -37 225
-96 304 -27 35 -37 58 -35 78 2 15 7 27 12 27 5 0 32 -26 60 -57z m340 -101
c-6 -2 -10 -11 -10 -19 0 -9 -3 -14 -6 -10 -3 3 -3 25 2 49 l7 43 8 -30 c5
-18 5 -31 -1 -33z m-190 18 c0 -5 -4 -10 -9 -10 -6 0 -13 5 -16 10 -3 6 1 10
9 10 9 0 16 -4 16 -10z m40 -6 c0 -8 -5 -12 -10 -9 -6 4 -8 11 -5 16 9 14 15
11 15 -7z m-275 -173 c3 -5 1 -12 -5 -16 -5 -3 -10 1 -10 9 0 18 6 21 15 7z
m-26 -138 c-1 -88 -2 -94 -11 -56 -9 37 -3 153 8 153 2 0 3 -44 3 -97z m541
53 c0 -2 -7 -6 -15 -10 -8 -3 -15 -1 -15 4 0 6 7 10 15 10 8 0 15 -2 15 -4z
m-50 -56 c0 -5 -5 -10 -11 -10 -5 0 -7 5 -4 10 3 6 8 10 11 10 2 0 4 -4 4 -10z
m-243 -67 c-3 -3 -11 -2 -17 2 -9 6 -9 10 1 16 14 8 27 -7 16 -18z m-275 -195
c-7 -7 -12 -26 -12 -44 0 -27 -3 -31 -20 -27 -35 9 -20 73 20 85 21 7 26 0 12
-14z"/>
<path d="M3660 4480 c-8 -5 -12 -12 -8 -15 10 -10 49 5 43 16 -8 11 -16 11
-35 -1z"/>
<path d="M1480 4468 c-19 -5 -44 -9 -55 -9 -11 0 -73 0 -137 0 -80 1 -127 -4
-150 -14 -28 -12 -30 -14 -10 -15 13 0 20 -4 17 -10 -3 -5 -26 -10 -50 -10
-43 0 -46 -2 -219 -172 -97 -95 -176 -179 -176 -185 0 -9 22 -13 73 -14 166
-2 260 -8 270 -18 8 -8 -6 -11 -48 -12 l-60 -1 75 -12 c79 -12 96 -11 67 5 -9
6 -15 14 -12 20 3 5 16 -2 28 -16 12 -13 34 -27 50 -29 15 -3 36 -8 48 -11 19
-7 20 -7 2 -21 -10 -7 -14 -14 -9 -14 4 0 21 10 36 23 16 12 41 30 55 41 26
17 27 21 24 102 -3 75 -1 86 20 108 l23 24 -33 7 c-24 6 -34 3 -41 -9 -11 -19
-28 -12 -28 11 0 12 11 14 55 11 55 -3 55 -3 57 27 0 17 1 37 0 46 -2 23 42
19 46 -4 2 -10 -3 -29 -12 -42 -12 -18 -16 -50 -16 -122 0 -97 0 -97 20 -78
14 15 21 40 26 93 l7 73 36 -3 c33 -3 36 0 39 24 2 15 -4 38 -13 51 -14 22
-14 26 4 48 16 20 23 22 39 13 21 -13 52 -1 52 20 0 9 -11 13 -31 12 -18 0
-34 4 -36 10 -7 20 27 24 53 7 22 -14 27 -14 35 -2 9 14 11 32 7 46 -4 11 -87
12 -128 1z m-92 -39 c-2 -6 -8 -10 -13 -10 -5 0 -11 4 -13 10 -2 6 4 11 13 11
9 0 15 -5 13 -11z m-137 -244 c-1 -15 -24 -12 -29 3 -3 9 2 13 12 10 10 -1 17
-7 17 -13z m-141 -30 c0 -8 -9 -15 -20 -15 -20 0 -26 11 -13 23 12 13 33 7 33
-8z"/>
<path d="M1703 4440 l-23 -28 30 -4 c35 -5 40 -2 40 28 0 33 -22 35 -47 4z"/>
<path d="M3275 4445 c-27 -13 -66 -25 -86 -25 -20 0 -42 -6 -48 -14 -6 -8 -25
-19 -41 -26 l-30 -12 0 -133 0 -132 30 -6 c19 -4 30 -13 31 -24 1 -12 4 -10 9
7 7 22 8 20 9 -15 1 -37 -1 -40 -28 -41 -16 -1 -37 -4 -47 -8 -17 -7 -16 -9
10 -23 26 -14 28 -18 22 -58 -7 -42 -7 -43 27 -49 32 -6 34 -8 36 -58 1 -29 5
-55 8 -58 3 -3 3 69 1 160 -3 91 -1 154 3 140 4 -14 7 -20 8 -13 2 18 71 97
100 113 15 8 44 22 64 29 23 9 36 20 33 28 -3 7 1 13 9 13 21 0 27 38 23 137
l-4 88 -44 3 c-32 2 -60 -5 -95 -23z m83 -43 c3 -18 -2 -22 -22 -22 -28 0 -34
18 -14 38 17 17 32 10 36 -16z m-8 -52 c12 -8 9 -10 -12 -10 -16 0 -28 5 -28
10 0 13 20 13 40 0z m-140 -30 c11 -7 7 -10 -18 -10 -20 0 -31 4 -27 10 8 13
26 13 45 0z m-50 -331 c0 -5 -4 -9 -10 -9 -5 0 -10 7 -10 16 0 8 5 12 10 9 6
-3 10 -10 10 -16z"/>
<path d="M3751 4424 c-17 -14 -42 -27 -56 -28 -13 -1 -33 -10 -43 -19 -10 -10
-21 -14 -25 -11 -3 3 -19 -2 -35 -11 -26 -16 -32 -16 -59 -3 l-30 15 1 -42 c1
-35 3 -39 13 -26 7 9 13 11 13 5 0 -6 12 -11 28 -11 30 -1 69 -8 94 -18 21 -8
54 -75 41 -84 -6 -3 -13 -23 -16 -43 -5 -34 -3 -38 16 -39 l22 0 -22 -9 c-19
-8 -23 -17 -23 -50 0 -22 3 -40 6 -40 17 0 44 23 44 38 -1 16 -2 16 -14 -1
-19 -24 -31 -4 -14 23 7 11 20 20 28 20 12 0 15 -9 12 -40 -4 -36 -8 -42 -33
-47 l-28 -5 -3 -277 -3 -277 25 4 25 3 -25 -13 c-17 -9 -26 -23 -28 -46 -3
-28 0 -32 20 -33 21 0 21 -1 4 -8 -15 -6 -20 -18 -21 -52 -3 -51 -33 -127 -64
-158 -18 -18 -33 -21 -103 -21 -46 0 -112 -5 -148 -11 -82 -13 -99 -8 -130 38
l-24 38 -14 -95 c-8 -52 -15 -124 -16 -160 -1 -36 -9 -79 -18 -97 -16 -33 -16
-33 8 -33 55 0 14 -28 -46 -31 -23 -1 -22 -2 5 -8 17 -4 33 -2 37 3 4 6 9 8
11 6 9 -11 16 -250 8 -250 -6 0 -12 12 -14 28 l-4 27 -2 -27 c-1 -23 -6 -28
-26 -28 -26 0 -29 -7 -19 -34 8 -21 21 -20 27 2 4 15 5 15 6 0 0 -9 -11 -26
-26 -38 -16 -12 -29 -26 -29 -31 -1 -5 -2 -14 -3 -20 0 -5 -6 -7 -11 -4 -19
11 -50 -76 -50 -141 0 -67 36 -156 71 -175 10 -5 19 -19 19 -29 0 -11 6 -20
13 -21 6 0 3 -4 -8 -9 -31 -13 127 -12 201 2 l63 11 -30 35 c-35 39 -49 72
-49 111 0 15 -5 32 -10 37 -7 7 -8 19 -1 36 6 17 6 40 -1 67 -6 23 -9 44 -6
46 2 3 24 6 48 9 51 4 76 29 49 49 -9 7 -18 21 -20 32 -3 11 -11 20 -19 20 -8
0 -25 4 -38 8 -22 8 -23 11 -20 130 l3 122 58 3 c58 3 66 9 45 31 -11 10 -10
15 5 25 9 7 17 25 17 40 0 19 5 26 19 26 17 0 19 5 14 38 -3 20 -16 74 -28
119 -13 45 -20 84 -17 87 10 10 122 6 122 -4 0 -5 15 -10 34 -10 23 0 45 -9
66 -26 38 -32 27 -44 -41 -44 -50 0 -60 -5 -52 -26 3 -9 20 -14 44 -14 28 0
39 -4 39 -15 0 -8 5 -15 10 -15 6 0 10 -7 10 -17 0 -15 1 -15 18 0 33 30 35
18 2 -19 -17 -20 -28 -39 -23 -43 17 -13 33 -52 33 -84 0 -25 -6 -37 -22 -46
-19 -9 -14 -10 32 -5 30 4 64 7 75 9 18 1 20 8 18 58 -2 53 0 57 20 57 13 1
51 27 90 63 59 54 69 68 74 105 3 23 10 45 15 48 13 8 -1 -77 -17 -102 -7 -11
-33 -36 -59 -55 -32 -24 -44 -39 -40 -52 3 -10 -1 -20 -10 -23 -9 -3 -13 -10
-10 -15 3 -5 9 -7 12 -5 4 2 6 -14 4 -36 -3 -22 -10 -42 -18 -45 -11 -4 -14
-51 -14 -255 l0 -249 -82 7 c-46 3 -86 8 -90 11 -5 2 -8 21 -8 41 l0 37 50 -1
c37 0 54 4 67 18 17 19 16 20 -4 36 -12 9 -23 26 -25 37 -2 11 -12 21 -23 21
-11 1 -32 6 -46 12 -25 10 -27 9 -33 -20 -3 -16 -3 -61 0 -99 l7 -69 -49 0
c-27 0 -67 5 -88 10 -24 5 -46 5 -55 0 -9 -5 -11 -10 -5 -10 5 0 18 -6 27 -13
15 -11 15 -16 1 -56 -12 -36 -13 -46 -2 -52 9 -6 14 -3 16 9 2 9 6 24 9 32 3
8 5 20 4 26 -4 32 77 48 132 26 31 -13 32 -19 12 -58 -19 -37 -19 -58 0 -74
19 -16 21 -116 3 -123 -7 -2 17 -3 54 -3 l68 1 0 34 c0 27 3 32 18 27 11 -4 9
0 -5 10 -35 25 -28 35 22 33 48 -3 56 -11 28 -28 -10 -6 -12 -11 -5 -11 8 0
12 -16 12 -46 l0 -46 70 7 c39 4 70 5 70 2 0 -3 -34 -11 -75 -18 -55 -9 -79
-17 -86 -30 -7 -14 -6 -19 2 -19 8 0 9 -19 5 -67 -4 -39 -3 -63 2 -55 5 8 9
-11 10 -49 1 -44 -2 -59 -11 -57 -6 3 -13 20 -14 39 -11 144 -16 179 -25 173
-6 -4 -8 -36 -3 -89 7 -92 11 -87 -67 -101 -24 -4 -38 -2 -38 4 0 6 -3 18 -7
28 -5 15 -2 16 29 11 19 -3 41 -2 48 3 18 11 15 58 -6 81 -17 19 -28 20 -66 4
-16 -6 -18 -1 -18 43 0 28 5 54 10 57 6 3 10 12 10 18 0 7 -4 6 -10 -3 -8 -12
-10 -10 -10 8 0 16 -5 22 -16 20 -15 -3 -16 -25 -15 -193 1 -104 4 -204 7
-221 4 -21 0 -42 -11 -60 -14 -23 -14 -25 -1 -10 9 11 18 17 21 14 8 -8 8
-393 0 -618 l-7 -195 31 -18 c35 -20 33 -37 -5 -37 -22 0 -24 -4 -24 -50 0
-27 -4 -50 -10 -50 -18 0 -10 -29 10 -35 28 -9 25 -33 -5 -41 -26 -6 -32 -18
-15 -29 6 -3 10 -30 10 -58 0 -72 18 -103 56 -99 17 1 43 -4 60 -13 l29 -15 3
41 c4 51 -2 58 -26 29 l-19 -24 -27 41 c-33 50 -31 74 9 85 37 10 62 2 68 -20
3 -9 5 18 6 61 1 74 0 77 -21 77 -33 0 -52 15 -44 35 5 13 14 16 36 12 28 -6
29 -5 35 37 6 38 4 46 -21 71 l-28 28 27 21 c24 19 27 29 27 79 0 35 -4 57
-11 57 -8 0 -7 5 2 16 9 11 14 70 16 217 2 123 0 197 -5 189 -5 -8 -12 -13
-16 -13 -19 3 -25 -1 -29 -16 -3 -10 -5 8 -6 39 -1 50 1 57 16 51 11 -4 14 -3
9 5 -4 7 -14 12 -23 12 -12 0 -14 6 -8 28 4 15 8 33 8 40 0 7 9 12 21 10 16
-2 20 -9 18 -30 -2 -21 1 -26 13 -22 9 4 15 18 15 35 0 37 11 37 33 -1 16 -26
17 -49 12 -202 -29 -927 -29 -873 -2 -900 50 -49 54 -51 74 -31 10 10 17 25
15 34 -2 9 11 28 28 43 17 14 27 26 21 26 -7 0 -10 19 -10 48 1 29 4 36 6 20
8 -50 20 -30 19 29 -1 31 1 77 5 102 l6 46 2 -42 c1 -31 5 -43 16 -43 18 0 21
65 4 75 -6 4 -8 14 -5 22 4 10 2 13 -8 10 -20 -8 -41 19 -28 35 8 11 17 171
24 473 l2 90 -40 20 c-26 12 -39 25 -36 34 2 7 -2 18 -9 23 -9 6 1 7 29 3 l42
-7 0 45 c0 41 3 46 30 56 17 5 35 20 40 33 11 24 7 -158 -6 -340 -6 -81 -5
-92 10 -92 23 0 20 -21 -4 -27 -17 -5 -19 -11 -14 -67 8 -83 9 -86 45 -86 30
0 31 1 25 38 -24 160 -37 339 -32 442 4 63 6 187 6 275 0 88 3 174 6 191 6 30
7 31 41 24 19 -5 47 -5 63 0 22 6 30 5 34 -7 9 -22 8 -23 -16 -23 -21 -1 -21
-2 5 -16 24 -13 28 -21 26 -52 -2 -20 3 -57 10 -81 14 -50 9 -75 -16 -67 -10
3 -40 7 -68 10 -27 3 -42 3 -32 0 9 -3 17 -9 18 -12 0 -4 3 -16 6 -27 12 -50
14 -86 5 -98 -7 -8 -6 -17 3 -30 12 -17 13 -17 19 0 7 16 9 15 26 -7 l20 -25
1 45 c0 25 4 65 8 90 8 45 8 45 19 18 19 -46 19 -448 0 -448 -11 0 -10 -38 2
-45 6 -4 6 -13 1 -23 -5 -9 -14 -66 -21 -126 -9 -92 -9 -111 3 -123 12 -13 17
-10 35 20 20 35 20 35 0 40 -26 7 -14 27 18 27 13 0 24 5 24 10 0 19 18 10 25
-12 10 -33 5 -122 -7 -129 -6 -4 -5 -9 3 -13 8 -3 3 -4 -11 -2 -24 5 -24 4 -6
-9 11 -8 23 -15 27 -15 4 0 10 -23 14 -50 4 -28 11 -50 15 -50 4 0 28 -16 52
-36 23 -19 51 -42 61 -50 9 -7 17 -25 17 -38 0 -29 41 -49 91 -44 26 2 33 8
34 26 2 29 22 43 54 40 35 -4 49 -32 28 -56 -9 -10 -17 -28 -17 -39 0 -23 -18
-33 -56 -33 -17 0 -22 4 -18 15 4 10 0 15 -15 15 -28 0 -27 -14 4 -34 30 -20
59 -21 77 -2 33 33 79 48 128 41 54 -7 80 9 80 51 0 35 27 41 72 16 30 -16 45
-19 64 -12 27 11 30 26 9 54 -8 11 -15 30 -15 42 0 16 -12 26 -50 42 -52 22
-65 46 -29 57 21 7 79 -12 79 -25 0 -17 32 -40 55 -40 30 0 51 -54 36 -93 -13
-33 -7 -36 49 -28 35 5 46 11 48 26 2 14 16 24 43 33 35 11 44 10 79 -8 50
-26 52 -26 73 11 22 39 15 49 -34 49 -29 0 -41 5 -45 18 -23 79 -73 132 -123
132 -11 0 -22 3 -24 8 -7 11 16 75 29 79 6 2 34 -17 62 -42 54 -49 63 -52 81
-31 9 11 4 17 -25 31 -19 9 -34 19 -32 21 3 2 42 -3 89 -11 46 -8 96 -15 110
-15 30 0 78 -34 66 -46 -4 -5 -46 -9 -92 -9 -46 0 -87 -4 -91 -8 -4 -4 0 -21
9 -37 17 -27 17 -29 0 -39 -14 -8 -15 -12 -6 -22 10 -10 14 -8 20 7 18 49 64
57 80 14 15 -39 112 -86 152 -74 14 5 55 8 89 9 72 0 92 15 113 85 10 34 9 43
-10 75 -16 28 -19 41 -11 50 8 10 8 19 -2 34 -10 16 -10 27 0 55 7 19 10 45 7
59 -5 17 -2 26 9 30 21 8 21 65 0 88 -11 13 -13 22 -6 36 14 25 -3 53 -32 53
-25 0 -36 -17 -36 -54 0 -22 -3 -23 -136 -29 -143 -7 -169 -16 -160 -51 6 -24
-20 -56 -46 -56 -10 0 -28 11 -40 25 -13 15 -32 25 -47 25 -39 0 -101 -12
-101 -19 0 -3 40 -19 89 -35 l89 -28 67 17 c61 15 69 15 91 0 45 -29 19 -69
-31 -47 -18 8 -25 8 -28 -1 -3 -9 -10 -9 -30 2 -14 7 -34 10 -44 7 -16 -7 -16
-9 6 -20 l24 -13 -24 -17 c-30 -20 -129 -23 -129 -3 0 16 -30 45 -63 61 -13 7
-24 24 -27 41 -4 25 -11 31 -35 33 -28 3 -31 6 -32 42 -2 43 -7 39 71 55 15 3
26 14 30 31 4 14 19 37 33 50 18 17 21 24 11 24 -9 0 -21 6 -27 14 -10 12 -6
15 20 21 31 7 47 -3 50 -32 1 -7 2 -17 3 -23 1 -14 20 -14 24 -1 2 6 -1 11 -7
11 -16 0 -13 26 4 40 13 11 25 9 69 -9 50 -20 86 -20 86 0 0 5 10 9 23 9 12 0
32 7 43 15 14 9 40 13 77 11 31 -2 54 0 51 5 -9 14 30 10 52 -5 18 -13 24 -13
52 4 21 13 32 28 32 42 0 36 -19 96 -36 113 -9 8 -13 22 -10 30 9 24 95 -11
115 -46 20 -35 38 -36 116 -4 33 14 74 25 91 25 36 0 95 22 111 42 22 26 25
66 9 98 -9 16 -23 44 -32 60 -8 16 -20 30 -26 30 -8 0 -9 38 -4 124 8 140 8
139 -65 149 -42 5 -86 26 -56 27 9 0 17 4 17 9 0 15 -18 23 -25 11 -3 -5 -15
-15 -26 -21 -19 -9 -19 -9 -10 10 7 13 8 22 1 26 -6 3 -13 -1 -16 -10 -5 -12
-9 -13 -20 -4 -11 9 -14 8 -14 -2 0 -11 -2 -11 -8 -1 -10 15 -45 5 -39 -12 2
-6 17 -11 33 -11 39 0 42 -18 5 -28 -16 -4 -33 -12 -36 -17 -3 -6 -17 -10 -30
-10 -18 0 -32 11 -51 43 -15 23 -31 45 -36 48 -6 4 1 24 16 47 28 45 53 56
164 72 72 10 151 40 172 65 8 10 8 25 0 55 -15 56 -67 157 -84 163 -8 3 -22
27 -31 54 -48 131 -79 191 -124 236 -25 27 -54 53 -63 58 -22 12 -72 -6 -62
-23 4 -6 3 -8 -4 -4 -6 3 -15 -2 -21 -11 -17 -29 -31 3 -31 74 0 52 -3 64 -20
73 -23 12 -23 13 -20 -62 3 -80 -5 -98 -41 -98 -20 0 -39 9 -55 28 -22 23 -25
34 -21 71 3 24 11 47 18 52 11 7 10 9 -5 9 -16 0 -18 5 -12 38 3 20 6 42 6 48
0 14 80 25 95 14 15 -11 55 7 55 24 0 8 -8 19 -17 25 -10 5 -14 13 -10 17 4 4
22 0 39 -10 35 -21 110 -18 211 11 l58 16 -27 28 c-23 24 -25 29 -10 29 9 0
28 -11 41 -24 13 -13 28 -20 35 -16 8 5 2 14 -17 28 -33 25 -10 31 25 6 19
-13 22 -13 22 0 0 9 -25 27 -60 43 -88 40 -78 68 25 75 l60 3 6 -35 c6 -34 6
-34 8 10 l1 45 -75 -3 -75 -4 0 45 0 45 61 9 61 8 -20 26 c-12 14 -24 38 -28
53 -6 25 -10 27 -40 21 -27 -5 -36 -2 -41 11 -7 20 12 34 48 34 23 0 27 5 31
38 8 64 -14 102 -59 102 -21 0 -23 4 -23 64 0 55 3 67 22 80 21 15 21 16 4 35
-11 12 -14 21 -7 26 16 9 13 55 -4 61 -8 4 -15 12 -15 20 0 7 -26 43 -58 81
-32 37 -61 76 -65 86 -4 9 -18 22 -32 29 -14 6 -25 19 -25 28 0 19 -30 42 -68
54 -16 6 -30 1 -54 -19 -31 -27 -68 -30 -76 -7 -2 7 17 22 48 35 45 20 50 25
36 36 -13 11 -24 11 -65 -3 -62 -20 -84 -20 -122 -1 -20 11 -35 13 -47 6 -10
-5 -38 -7 -61 -4 -35 5 -45 2 -53 -11 -8 -14 -18 -16 -48 -11 -38 6 -39 6 -37
-22 l2 -28 -79 2 c-74 2 -95 10 -96 35 0 4 19 12 43 18 79 21 107 32 107 42 0
6 -9 7 -22 3 -13 -4 -43 -10 -68 -15 -25 -5 -58 -15 -75 -24 -37 -20 -74 -20
-94 -2 -24 21 -108 32 -108 14 0 -8 12 -15 30 -16 59 -5 67 -32 8 -32 l-38 0
3 -107 c4 -143 -12 -460 -23 -476 -6 -7 -11 -59 -11 -116 -2 -74 -6 -111 -17
-127 -19 -29 -19 -44 0 -44 18 0 20 -21 3 -39 -11 -11 -10 -14 0 -18 10 -4 12
-41 11 -156 -1 -141 -9 -194 -28 -183 -4 3 -8 -8 -8 -24 0 -17 -2 -32 -4 -34
-2 -2 -45 -6 -94 -8 -83 -3 -90 -5 -87 -23 2 -11 6 -73 9 -138 3 -65 9 -113
13 -107 8 14 5 151 -5 202 -7 36 -7 37 29 44 59 11 135 0 151 -22 12 -17 11
-19 -6 -22 -30 -5 -12 -22 24 -22 l32 -1 -25 -14 -25 -14 30 -2 c22 -1 25 -3
10 -6 -11 -3 -28 -11 -38 -18 -17 -12 -16 -14 11 -19 16 -4 29 -12 29 -19 0
-7 4 -19 7 -28 5 -10 -2 -20 -19 -29 -28 -15 -34 -34 -7 -26 9 3 24 1 32 -4
12 -7 10 -11 -11 -18 -14 -6 -31 -17 -38 -26 -7 -9 -23 -16 -35 -17 -19 -1
-18 -2 4 -8 14 -4 35 -4 48 1 29 10 32 10 32 -1 0 -5 -15 -12 -32 -15 -30 -6
-31 -8 -14 -18 15 -8 16 -12 5 -19 -11 -8 -10 -13 8 -28 l22 -18 -39 -38 c-21
-21 -49 -61 -62 -89 -22 -49 -23 -60 -20 -263 2 -198 1 -213 -15 -213 -15 0
-16 -2 -3 -10 10 -7 -14 -10 -77 -10 -51 0 -93 -4 -93 -8 0 -5 33 -15 73 -22
89 -15 113 -26 97 -45 -6 -7 -8 -29 -4 -53 5 -33 2 -45 -15 -63 -23 -25 -27
-39 -11 -39 6 0 10 -5 10 -11 0 -5 -5 -7 -11 -4 -5 4 -29 8 -53 10 -70 6 -137
25 -167 46 -15 11 -32 18 -38 17 -5 -2 -17 6 -26 17 -9 11 -14 14 -10 8 3 -7
2 -13 -3 -13 -14 0 -30 48 -37 111 l-7 55 59 3 c90 4 97 5 121 29 12 12 28 22
36 22 32 0 26 24 -16 68 -63 67 -75 89 -82 162 -11 99 -12 100 -59 101 -44 1
-103 16 -77 19 24 3 93 -1 112 -6 18 -5 31 44 33 131 1 28 3 68 5 90 3 33 4
29 9 -25 l6 -65 18 32 c29 54 17 133 -21 133 -5 0 -9 6 -9 14 0 8 6 12 13 9 7
-2 29 0 51 6 25 7 39 7 41 1 8 -24 17 2 14 39 -3 33 -8 41 -24 41 -11 0 -16 4
-13 11 4 6 13 8 21 5 12 -4 14 15 12 112 -1 95 -3 106 -8 57 -10 -99 -20 -50
-29 150 -1 17 -3 17 -11 5 -7 -10 -10 17 -10 85 0 67 3 96 10 89 15 -15 70 -5
70 12 0 8 -7 14 -16 14 -12 0 -15 12 -13 68 4 101 -19 216 -50 252 -26 30 -26
31 -101 24 -71 -6 -76 -8 -90 -37 -8 -17 -25 -34 -37 -38 -20 -7 -23 -5 -23
19 0 15 4 32 8 38 8 13 173 57 215 57 15 1 27 4 27 9 0 4 -6 8 -14 8 -8 0 -17
7 -20 16 -8 21 -8 21 12 26 16 4 18 14 15 64 -1 32 -6 198 -9 367 l-6 308 -35
14 c-45 19 -50 19 -58 -4 -3 -11 -19 -21 -38 -24 -17 -4 -42 -9 -54 -13 -16
-4 -26 1 -39 21 -17 26 -17 28 1 41 10 8 33 14 49 14 24 0 27 3 16 10 -8 5
-50 10 -92 10 -53 0 -79 4 -85 13 -10 16 -43 30 -43 18 0 -5 -9 -11 -21 -14
-18 -5 -19 -8 -7 -27 8 -13 9 -23 3 -28 -5 -4 -11 -26 -13 -49 -3 -41 -3 -41
38 -48 28 -5 40 -12 40 -23 0 -15 7 -90 26 -264 3 -32 1 -65 -5 -76 -7 -13 -7
-22 0 -29 6 -6 12 -72 14 -149 2 -77 5 -146 7 -154 1 -8 -3 -14 -9 -13 -15 3
-17 -13 -3 -22 7 -4 6 -14 -2 -28 -7 -12 -13 -37 -15 -56 -1 -18 -10 -42 -20
-53 -18 -20 -18 -20 -25 18 -4 22 -7 61 -7 87 -1 26 -8 61 -16 76 -11 22 -15
83 -19 260 -3 155 -8 236 -16 246 -8 10 -8 19 0 34 13 25 -6 62 -27 54 -11 -4
-12 1 -7 21 5 21 3 26 -14 26 -15 0 -21 9 -26 46 -3 26 -6 68 -6 95 0 62 -8
83 -26 68 -7 -6 -19 -9 -26 -7 -7 3 -21 -4 -31 -15 -21 -24 -36 -14 -19 13 7
11 12 31 12 44 0 13 6 27 13 29 6 3 2 6 -9 6 -12 1 -27 -6 -34 -15 -26 -31
-48 -36 -82 -18 -18 10 -27 19 -20 21 14 5 16 23 3 23 -5 0 -23 -12 -40 -26z
m209 -109 c0 -7 -7 -15 -15 -19 -16 -6 -19 3 -9 28 7 18 24 12 24 -9z m-161
-52 l-3 -68 35 -5 c19 -3 50 0 69 7 51 18 80 16 80 -4 0 -10 3 -28 6 -39 7
-25 -21 -41 -41 -24 -7 6 -42 15 -76 21 -35 6 -83 19 -106 29 -38 17 -43 23
-43 52 0 19 6 40 13 47 10 11 9 15 -2 19 -17 6 24 31 52 32 16 0 18 -8 16 -67z
m641 -78 c0 -8 -4 -15 -10 -15 -5 0 -10 7 -10 15 0 8 5 15 10 15 6 0 10 -7 10
-15z m-25 -52 c-8 -23 5 -14 15 10 7 18 9 18 9 4 1 -10 6 -15 11 -12 12 7 12
-51 0 -80 -9 -22 -15 -12 -23 35 -3 15 -5 7 -6 -20 -2 -25 -5 -38 -8 -30 -3 8
-10 17 -14 20 -4 3 -12 31 -17 62 l-9 56 23 -16 c13 -9 21 -23 19 -29z m-390
-22 c-8 -13 -35 -15 -35 -2 0 5 8 11 18 13 21 5 26 2 17 -11z m1405 -2 c0 -5
-13 -9 -30 -9 -35 0 -41 17 -7 22 26 5 37 1 37 -13z m100 1 c8 -5 11 -12 8
-16 -10 -9 -38 3 -38 16 0 12 10 13 30 0z m-490 -45 c0 -8 -44 -23 -53 -18
-14 8 4 23 29 23 13 0 24 -2 24 -5z m249 -21 c3 -2 0 -9 -6 -15 -13 -13 -67 7
-58 22 6 10 53 5 64 -7z m-1290 -186 c-6 -15 -15 -28 -20 -28 -14 0 -11 17 6
34 8 8 15 22 15 31 0 8 -7 18 -15 21 -20 8 -19 58 3 97 l17 32 3 -79 c2 -45
-2 -92 -9 -108z m1529 170 c-7 -19 -38 -22 -38 -4 0 10 9 16 21 16 12 0 19 -5
17 -12z m217 3 c-11 -10 -85 -32 -85 -25 0 7 62 33 80 34 8 0 10 -3 5 -9z
m-1339 -210 c4 -116 2 -161 -6 -156 -5 3 -8 10 -5 15 3 5 1 11 -4 15 -6 3 -10
60 -10 127 -1 110 5 175 15 165 2 -2 6 -77 10 -166z m974 144 c0 -9 -9 -15
-25 -15 -24 0 -32 10 -18 23 12 13 43 7 43 -8z m230 -5 c26 -16 4 -20 -36 -6
-38 14 -38 15 -9 15 17 0 37 -3 45 -9z m-1660 -29 c0 -5 -7 -14 -15 -21 -11
-9 -14 -23 -9 -45 4 -21 1 -35 -6 -40 -18 -11 -31 15 -27 58 2 31 0 35 -9 23
-6 -9 -19 -16 -28 -16 -28 0 0 38 31 43 51 7 63 7 63 -2z m1592 -86 c-1 -18
-18 -16 -45 6 -15 11 -25 25 -21 30 7 12 67 -21 66 -36z m-1687 -55 c3 -5 23
-10 44 -10 37 0 147 -28 139 -35 -2 -2 -37 1 -78 6 -51 7 -81 7 -97 0 -20 -9
-23 -8 -23 10 0 11 -4 17 -10 14 -6 -3 -7 1 -4 9 7 18 20 21 29 6z m1803 -24
c3 -11 -4 -16 -22 -16 -28 0 -41 14 -32 35 7 19 50 4 54 -19z m-1848 17 c-1
-19 -16 -31 -29 -24 -7 5 -10 14 -7 20 8 12 36 15 36 4z m2090 -52 c0 -4 -9
-20 -20 -34 -17 -21 -28 -25 -70 -24 -49 0 -51 1 -48 26 2 20 10 27 33 32 46
10 105 10 105 0z m-1965 -81 c0 -64 -11 -72 -33 -27 -10 21 -10 31 -1 49 9 18
23 33 34 38 1 0 1 -27 0 -60z m-48 33 c-9 -9 -20 -13 -24 -9 -4 4 -1 11 7 16
25 16 35 11 17 -7z m1813 -3 c0 -11 -6 -20 -14 -20 -8 0 -23 -3 -33 -7 -14 -5
-13 -1 6 20 29 32 41 34 41 7z m40 4 c0 -17 -22 -14 -28 4 -2 7 3 12 12 12 9
0 16 -7 16 -16z m-250 -15 c0 -31 -22 -47 -75 -54 -30 -3 -58 -11 -61 -17 -10
-15 17 -29 46 -23 41 7 126 15 108 9 -11 -3 -18 -18 -20 -42 l-3 -37 -50 0
c-27 0 -55 -3 -60 -7 -6 -3 -27 -9 -47 -13 -46 -9 -54 5 -38 63 11 44 84 117
123 125 43 8 77 7 77 -4z m-1464 -30 c47 -29 71 -58 55 -68 -8 -6 -10 -14 -5
-22 4 -8 -14 7 -40 34 -26 26 -56 47 -67 47 -13 0 -19 7 -19 21 0 16 4 19 23
14 12 -4 36 -16 53 -26z m1264 17 c0 -3 -10 -22 -22 -43 -13 -21 -25 -60 -28
-88 -5 -46 -7 -50 -32 -53 -30 -4 -29 -9 -32 93 -1 46 1 50 24 53 13 2 35 13
49 23 22 18 41 24 41 15z m552 -57 c-4 -53 -9 -59 -47 -59 -33 0 -35 2 -35 35
0 31 -3 35 -25 35 -22 0 -25 -4 -25 -39 0 -37 -2 -39 -37 -45 -21 -3 -50 -6
-65 -6 -25 0 -28 4 -28 34 0 19 5 38 10 41 13 8 230 43 245 40 6 -1 9 -17 7
-36z m-711 -6 c4 -144 5 -138 -16 -139 -11 -1 -39 -4 -62 -8 l-42 -8 6 79 c2
43 6 83 8 90 4 12 30 19 78 22 25 1 27 -2 28 -36z m469 23 c0 -11 -19 -15 -25
-6 -3 5 1 10 9 10 9 0 16 -2 16 -4z m-1595 -82 c-3 -19 -12 -34 -19 -34 -17 0
-13 64 5 86 13 16 14 16 17 0 2 -10 1 -33 -3 -52z m-117 12 c15 -8 38 -19 52
-25 l25 -11 -29 4 c-16 2 -42 0 -58 -5 -22 -6 -30 -4 -35 6 -3 8 -9 13 -13 10
-13 -8 -40 6 -40 21 0 19 63 19 98 0z m522 -51 c0 -14 -4 -25 -10 -25 -5 0
-10 11 -10 25 0 14 5 25 10 25 6 0 10 -11 10 -25z m-56 6 c10 -16 -5 -41 -25
-41 -14 0 -19 7 -19 25 0 18 5 25 19 25 11 0 22 -4 25 -9z m-248 -63 c-14 -10
-15 -7 -8 27 6 30 6 30 12 5 4 -14 2 -28 -4 -32z m-414 -43 c0 -5 -5 -11 -11
-13 -6 -2 -11 4 -11 13 0 9 5 15 11 13 6 -2 11 -8 11 -13z m768 -9 c0 -3 -4
-8 -10 -11 -5 -3 -10 -1 -10 4 0 6 5 11 10 11 6 0 10 -2 10 -4z m1245 -15 c0
-19 -29 -36 -49 -28 -14 6 -15 10 -4 27 14 23 53 24 53 1z m-1468 -93 c-2 -13
-4 -3 -4 22 0 25 2 35 4 23 2 -13 2 -33 0 -45z m817 33 c3 -5 -1 -12 -10 -15
-22 -9 -24 -8 -24 9 0 16 25 21 34 6z m616 -21 c0 -5 -4 -10 -9 -10 -6 0 -13
5 -16 10 -3 6 1 10 9 10 9 0 16 -4 16 -10z m-1330 -55 c-16 -17 -23 -36 -23
-67 1 -44 -20 -98 -37 -98 -20 0 -10 85 15 129 21 36 22 42 8 36 -12 -4 -14
-3 -8 3 9 9 34 18 59 21 5 0 -1 -10 -14 -24z m-250 -479 c-7 -7 -10 -5 -10 5
0 9 -10 24 -21 35 -12 10 -25 28 -30 39 -6 16 -8 14 -8 -12 -1 -24 -6 -33 -18
-34 -17 -1 -17 -2 0 -6 9 -3 17 -14 17 -26 0 -20 -4 -22 -41 -19 -28 3 -39 8
-35 17 3 8 1 15 -4 17 -4 2 -6 15 -3 30 3 15 9 26 13 23 5 -3 6 4 3 15 -4 14
0 20 11 20 18 0 22 40 6 56 -7 7 -7 19 -2 35 5 13 13 65 16 114 4 50 10 103
12 120 10 60 16 38 12 -48 -2 -48 1 -87 5 -87 5 0 8 -10 7 -22 -1 -13 -1 -41
0 -63 l2 -40 13 35 c7 19 14 48 14 63 1 15 10 45 21 67 12 24 21 63 22 102 2
35 4 -47 5 -181 2 -157 0 -248 -7 -255z m1630 445 c0 -41 -11 -51 -56 -51 -22
0 -24 4 -24 45 l0 45 40 0 c40 0 40 0 40 -39z m-252 -19 l3 -42 -38 -1 c-21 0
-50 -2 -65 -4 -27 -3 -28 -2 -28 40 l0 44 53 4 c73 5 72 5 75 -41z m-1241 -14
c-3 -7 -5 -2 -5 12 0 14 2 19 5 13 2 -7 2 -19 0 -25z m908 -8 c0 -29 -5 -36
-27 -44 -35 -12 -46 -1 -29 27 10 15 10 22 2 25 -6 2 -11 10 -11 18 0 11 9 14
33 12 29 -3 32 -6 32 -38z m-105 20 c0 -5 -4 -10 -10 -10 -5 0 -10 -7 -10 -15
0 -8 5 -15 10 -15 6 0 10 -7 10 -15 0 -10 -11 -15 -35 -15 -37 0 -42 9 -29 58
5 16 14 22 35 22 16 0 29 -4 29 -10z m-620 -49 c0 -6 -4 -13 -10 -16 -5 -3
-10 1 -10 9 0 9 5 16 10 16 6 0 10 -4 10 -9z m1300 -1 c0 -5 -6 -10 -14 -10
-8 0 -18 5 -21 10 -3 6 3 10 14 10 12 0 21 -4 21 -10z m-1240 -40 c0 -5 -4
-10 -10 -10 -5 0 -10 5 -10 10 0 6 5 10 10 10 6 0 10 -4 10 -10z m1003 -7 c3
-5 8 -32 12 -60 l7 -53 -81 0 -81 0 6 48 c9 73 8 72 73 72 33 0 62 -3 64 -7z
m247 -35 c0 -56 -9 -67 -53 -75 -34 -5 -37 -4 -37 18 0 13 3 41 6 62 6 35 8
37 45 37 l39 0 0 -42z m-720 -68 c0 -41 5 -92 11 -113 12 -44 4 -61 -16 -34
-11 15 -16 16 -33 6 -34 -21 -51 -6 -42 38 5 21 11 67 15 102 5 43 14 70 27
83 29 29 38 10 38 -82z m135 23 c3 -52 6 -269 5 -325 0 -5 -9 -8 -20 -8 -14 0
-20 7 -20 21 0 11 -4 18 -9 14 -15 -9 -17 74 -4 140 7 33 12 97 13 142 0 56 4
83 13 86 18 6 18 5 22 -70z m-924 10 c-4 -28 -6 -32 -9 -15 -3 22 3 52 11 52
1 0 1 -17 -2 -37z m75 10 c-3 -16 -11 -65 -18 -110 -7 -51 -16 -83 -24 -83 -9
0 -8 17 2 73 8 39 14 89 14 110 0 27 4 37 16 37 13 0 15 -6 10 -27z m146 -45
c-5 -18 -7 -111 -6 -205 2 -95 0 -173 -5 -173 -12 0 -20 51 -22 130 -1 36 -5
70 -10 76 -11 13 7 134 29 198 12 35 18 43 20 28 2 -11 -1 -36 -6 -54z m1362
47 c7 -29 0 -48 -15 -40 -12 8 -12 65 0 65 5 0 12 -11 15 -25z m-1430 -70 c-7
-44 -13 -140 -13 -212 -1 -111 -3 -133 -16 -133 -30 0 -15 243 24 389 18 65
20 46 5 -44z m1155 -94 c1 -20 -1 -21 -14 -11 -13 11 -15 1 -15 -83 l0 -94
-31 -7 c-90 -18 -149 11 -149 73 0 17 5 31 10 31 6 0 10 7 10 15 0 8 -7 15
-16 15 -11 0 -14 5 -10 16 3 9 6 28 6 42 0 54 12 60 123 61 47 1 57 4 58 19 1
24 27 -47 28 -77z m-291 -21 c0 -9 -3 -7 -8 5 -5 11 -8 29 -8 40 0 16 2 15 8
-5 4 -14 8 -32 8 -40z m-681 -115 c-2 -19 -4 -12 -5 18 -1 27 -5 46 -9 44 -5
-3 -6 16 -4 41 l5 47 8 -60 c5 -33 7 -73 5 -90z m308 105 c4 -6 -5 -10 -20
-10 -15 0 -24 4 -20 10 3 6 12 10 20 10 8 0 17 -4 20 -10z m-1610 -19 c3 -5 1
-12 -5 -16 -5 -3 -10 1 -10 9 0 18 6 21 15 7z m872 -13 c-3 -8 -6 -5 -6 6 -1
11 2 17 5 13 3 -3 4 -12 1 -19z m363 -15 c0 -7 -4 -13 -10 -13 -5 0 -10 12
-10 28 0 21 2 24 10 12 5 -8 10 -21 10 -27z m547 -20 c1 -26 -4 -47 -13 -54
-7 -6 -12 -15 -9 -19 3 -4 -2 -13 -10 -20 -13 -11 -15 -3 -15 57 0 73 4 86 30
81 10 -2 15 -16 17 -45z m-766 -153 l-5 -95 -8 55 c-10 65 -10 177 -1 205 12
35 20 -62 14 -165z m648 13 c-1 -96 -5 -157 -9 -143 -12 38 -12 310 0 310 6 0
9 -62 9 -167z m60 25 c0 -101 -3 -136 -10 -119 -5 13 -9 45 -8 71 1 26 -1 52
-5 59 -14 22 -13 61 0 72 8 6 14 22 14 35 0 13 2 24 5 24 3 0 5 -64 4 -142z
m-1741 -73 c0 -57 -1 -58 -9 -20 -4 22 -7 81 -7 130 l1 90 7 -70 c4 -38 8 -97
8 -130z m902 170 c0 -14 -4 -25 -10 -25 -5 0 -10 11 -10 25 0 14 5 25 10 25 6
0 10 -11 10 -25z m1105 5 c3 -5 1 -10 -4 -10 -6 0 -11 5 -11 10 0 6 2 10 4 10
3 0 8 -4 11 -10z m295 6 c0 -11 -19 -15 -25 -6 -3 5 1 10 9 10 9 0 16 -2 16
-4z m-1050 -26 c0 -11 -4 -20 -10 -20 -5 0 -10 9 -10 20 0 11 5 20 10 20 6 0
10 -9 10 -20z m1060 -16 c0 -2 -9 -4 -21 -4 -11 0 -18 4 -14 10 5 8 35 3 35
-6z m-1406 -26 c3 -13 7 -47 11 -75 5 -49 4 -53 -15 -53 -18 0 -20 6 -20 75 0
71 14 102 24 53z m456 -38 c0 -5 -4 -10 -10 -10 -5 0 -10 5 -10 10 0 6 5 10
10 10 6 0 10 -4 10 -10z m1310 -3 c0 -45 -92 -54 -98 -9 -3 20 0 22 47 22 36
0 51 -4 51 -13z m-1310 -53 c0 -8 -4 -12 -10 -9 -5 3 -10 10 -10 16 0 5 5 9
10 9 6 0 10 -7 10 -16z m1232 -26 c-19 -19 -14 -33 6 -15 24 22 37 10 39 -35
1 -36 -9 -49 -22 -28 -3 6 -17 7 -29 4 -19 -4 -25 -1 -30 21 -10 38 2 65 27
65 16 0 18 -3 9 -12z m-1678 -53 c-4 -15 -2 -25 5 -25 6 0 11 -4 11 -10 0 -5
-6 -10 -13 -10 -20 0 -18 -38 4 -54 21 -14 39 -117 72 -398 l13 -117 -41 1
c-22 0 -48 4 -57 9 -14 8 -16 4 -15 -21 1 -16 -2 -30 -8 -30 -18 -1 -17 48 1
86 13 27 15 39 6 42 -9 3 -12 75 -11 278 0 265 1 274 20 274 16 0 18 -5 13
-25z m206 0 c0 -16 -6 -25 -15 -25 -9 0 -15 9 -15 25 0 16 6 25 15 25 9 0 15
-9 15 -25z m88 -161 c0 -96 -4 -176 -8 -179 -12 -7 -22 80 -24 200 -1 136 2
165 19 159 10 -4 13 -45 13 -180z m1450 94 c22 -22 13 -28 -38 -28 -43 0 -50
3 -50 20 0 16 7 20 38 20 21 0 43 -5 50 -12z m-2578 -17 c0 -23 -16 -36 -25
-21 -9 14 1 40 15 40 5 0 10 -9 10 -19z m850 9 c0 -5 -4 -10 -10 -10 -5 0 -10
5 -10 10 0 6 5 10 10 10 6 0 10 -4 10 -10z m190 -27 c-1 -21 -2 -41 -1 -45 2
-16 -1 -23 -10 -20 -5 1 -9 -5 -9 -14 0 -9 9 -18 20 -21 11 -3 17 -10 13 -16
-4 -7 0 -8 12 -3 18 6 18 6 2 -12 -9 -10 -17 -24 -17 -31 0 -9 -11 -11 -35 -8
-28 4 -35 1 -36 -12 0 -11 -3 -9 -9 7 -5 12 -14 22 -20 22 -5 0 -10 9 -10 20
0 11 5 20 11 20 5 0 8 -4 5 -8 -6 -11 11 -38 19 -30 4 3 1 16 -5 28 -7 12 -10
30 -7 41 3 10 0 20 -7 23 -8 3 -8 7 1 13 7 5 11 19 8 31 -3 19 -1 21 15 12 27
-14 30 -13 30 15 0 16 6 25 16 25 12 0 15 -9 14 -37z m-683 -9 c3 -8 -1 -23
-10 -32 -15 -14 -17 -14 -23 1 -8 21 1 47 16 47 6 0 13 -7 17 -16z m1508 -23
c85 -2 104 -5 85 -12 -30 -13 -190 -17 -197 -6 -2 4 -20 5 -38 1 -42 -7 -72 7
-35 17 14 3 36 5 50 4 14 -2 75 -4 135 -4z m665 -6 c0 -15 -43 -12 -48 3 -3
10 4 13 22 10 15 -2 26 -7 26 -13z m-2620 -50 c0 -8 -4 -15 -9 -15 -5 0 -13
-9 -16 -20 -9 -28 -32 -25 -37 5 -3 13 -2 22 2 20 5 -3 10 2 14 10 7 20 46 20
46 0z m2460 0 c0 -8 -7 -15 -15 -15 -8 0 -15 7 -15 15 0 8 7 15 15 15 8 0 15
-7 15 -15z m145 -62 c17 -2 42 -3 58 -3 30 0 36 -14 11 -28 -10 -6 -14 -16
-10 -28 5 -17 14 -19 91 -15 47 1 85 -1 85 -5 -1 -5 -12 -22 -25 -39 -20 -24
-32 -30 -65 -30 -22 0 -40 -3 -40 -7 0 -17 -36 -6 -62 19 -22 21 -30 24 -41
14 -22 -17 -47 -3 -47 28 -1 33 -22 61 -46 61 -10 0 -26 5 -34 10 -13 8 -13
10 1 10 9 0 20 7 23 16 5 12 13 14 38 8 18 -4 47 -9 63 -11z m-2655 -13 c0 -5
-4 -10 -10 -10 -5 0 -10 5 -10 10 0 6 5 10 10 10 6 0 10 -4 10 -10z m2379 -6
c33 -23 11 -41 -23 -19 -14 10 -26 21 -26 26 0 14 23 11 49 -7z m-1536 -51 c7
-69 -3 -251 -13 -231 -4 7 -12 63 -19 123 -7 61 -14 122 -17 138 -5 23 -2 27
19 27 22 0 25 -5 30 -57z m77 -113 c0 -127 -2 -140 -17 -139 -11 0 -13 3 -5 6
22 9 14 94 -13 127 l-23 29 19 51 c22 55 28 66 35 66 2 0 4 -63 4 -140z m-304
73 l-15 -28 -1 31 c0 33 23 67 28 40 2 -8 -4 -27 -12 -43z m504 -37 c-8 -8
-13 -7 -20 4 -14 21 -12 30 5 30 9 0 16 10 17 28 1 18 3 15 5 -12 3 -21 -1
-44 -7 -50z m1340 34 c0 -5 -4 -10 -10 -10 -5 0 -10 5 -10 10 0 6 5 10 10 10
6 0 10 -4 10 -10z m-802 -7 c-10 -2 -28 -2 -40 0 -13 2 -5 4 17 4 22 1 32 -1
23 -4z m-968 -40 c0 -24 -25 -9 -28 17 -3 21 -2 22 12 11 9 -7 16 -20 16 -28z
m467 -90 c-11 -10 -15 -1 -21 52 l-6 50 16 -48 c10 -26 14 -50 11 -54z m103
-23 c0 -91 -3 -110 -15 -110 -12 0 -15 16 -15 88 0 92 7 132 21 132 5 0 9 -49
9 -110z m-126 -5 c-4 -8 -10 -12 -15 -9 -14 8 -10 24 6 24 9 0 12 -6 9 -15z
m46 -60 c0 -14 -4 -25 -10 -25 -5 0 -10 11 -10 25 0 14 5 25 10 25 6 0 10 -11
10 -25z m127 -42 c-3 -10 -5 -2 -5 17 0 19 2 27 5 18 2 -10 2 -26 0 -35z
m1055 -6 c11 -17 -7 -30 -42 -30 -40 0 -58 17 -40 38 16 19 69 14 82 -8z
m-404 -55 c3 -37 1 -42 -17 -42 -18 0 -21 6 -21 38 0 68 33 71 38 4z m222 -2
c0 -5 -9 -10 -20 -10 -11 0 -20 5 -20 10 0 6 9 10 20 10 11 0 20 -4 20 -10z
m-950 -4 c0 -2 -11 -6 -25 -8 -14 -3 -25 -1 -25 3 0 5 11 9 25 9 14 0 25 -2
25 -4z m-732 -34 c2 -15 -2 -22 -12 -22 -11 0 -16 9 -16 26 0 31 23 28 28 -4z
m2202 -47 c0 -6 -7 -20 -15 -31 -14 -18 -14 -17 -15 12 0 21 5 31 15 31 8 0
15 -5 15 -12z m196 -5 c19 0 34 -4 34 -9 0 -20 -62 -71 -86 -71 -21 0 -24 4
-24 38 0 43 7 55 28 47 7 -3 29 -5 48 -5z m-314 -37 c13 -11 37 -25 53 -30 26
-8 30 -15 33 -51 3 -40 4 -41 33 -35 26 5 29 3 29 -21 0 -14 0 -29 1 -33 2
-19 -22 -12 -44 13 -22 23 -31 26 -66 21 -28 -3 -41 -1 -41 6 1 27 -47 106
-73 122 -15 9 -25 20 -23 24 10 16 75 5 98 -16z m348 -33 c0 -14 -7 -20 -22
-20 -20 0 -21 1 -3 20 10 11 20 20 22 20 1 0 3 -9 3 -20z m-2436 -27 c9 -22
-10 -41 -25 -26 -13 13 -5 43 10 43 5 0 12 -8 15 -17z m156 -97 c0 -70 -12
-80 -76 -66 -78 17 -84 20 -77 37 4 10 2 14 -4 10 -6 -4 -10 3 -10 18 0 14 5
25 13 25 17 0 29 -20 12 -20 -26 -1 28 -24 70 -30 l42 -7 0 42 c0 23 3 45 6
48 15 15 24 -7 24 -57z m-53 -13 c-7 -6 -47 6 -47 15 0 4 10 12 23 17 18 8 23
7 25 -8 2 -10 1 -21 -1 -24z m1751 27 c6 0 12 -11 12 -25 0 -14 -6 -25 -12
-25 -9 0 -8 -4 2 -10 22 -14 40 -12 40 4 0 16 45 16 76 -1 17 -10 25 -9 42 3
12 8 22 11 22 6 0 -5 11 -14 25 -20 14 -7 30 -23 37 -37 6 -14 17 -25 25 -25
7 0 13 -7 13 -15 0 -8 8 -19 19 -24 23 -13 38 -46 16 -38 -8 4 -17 2 -20 -4
-4 -5 -11 -6 -17 -3 -7 5 -9 0 -6 -14 6 -23 -7 -31 -15 -9 -2 6 -8 9 -12 5 -4
-4 -2 -15 6 -24 13 -16 12 -16 -8 -5 -13 6 -23 18 -23 26 0 8 -9 15 -21 15
-11 0 -17 -5 -14 -10 10 -16 -5 -50 -21 -50 -8 0 -14 8 -14 18 0 13 -2 14 -9
3 -6 -10 -19 -12 -46 -7 -29 6 -40 3 -52 -11 -14 -17 -14 -17 -10 4 3 15 -1
23 -16 27 -12 3 -26 1 -31 -4 -15 -15 22 -49 58 -52 29 -3 30 -4 11 -15 -11
-6 -37 -14 -58 -18 -30 -6 -37 -4 -37 9 0 9 -11 39 -25 66 -28 54 -22 65 28
55 26 -6 30 -5 20 6 -15 15 -17 79 -3 79 6 0 10 4 10 10 0 5 -7 7 -16 3 -27
-10 -62 42 -41 63 4 4 7 18 7 32 0 20 4 23 23 18 12 -3 28 -6 35 -6z m212 -10
c-20 -13 -43 -13 -35 0 3 6 16 10 28 10 18 0 19 -2 7 -10z m-310 -69 c0 -5
-12 -11 -27 -14 -26 -5 -26 -4 -8 9 17 13 17 14 1 14 -9 0 -14 5 -11 10 7 11
45 -5 45 -19z m394 14 c-4 -9 -1 -15 7 -15 8 0 10 -3 3 -10 -11 -11 -54 -2
-54 11 0 8 29 28 42 29 4 0 5 -7 2 -15z m-642 -39 c-18 -11 -37 8 -29 29 6 14
8 14 25 -2 15 -15 16 -19 4 -27z m-480 25 c3 -1 4 -9 1 -20 -3 -12 2 -20 15
-23 16 -4 19 -1 15 16 l-5 21 19 -21 c10 -12 33 -27 51 -35 33 -14 39 -23 22
-34 -6 -4 -17 -22 -25 -41 -8 -19 -18 -34 -23 -34 -4 0 -21 14 -37 30 -47 49
-70 35 -32 -20 20 -29 23 -81 5 -76 -7 3 -26 7 -43 11 l-30 7 24 -26 c14 -14
20 -26 15 -26 -5 0 -1 -7 9 -14 13 -11 15 -16 5 -24 -32 -25 -139 -41 -166
-23 -11 6 -9 16 9 47 37 63 68 128 69 141 0 6 8 18 19 25 27 19 53 77 47 103
-5 18 -2 23 12 20 9 -2 20 -4 24 -4z m409 -48 c12 -15 12 -16 -4 -10 -10 4
-23 7 -28 7 -5 0 -9 5 -9 10 0 16 26 12 41 -7z m367 -8 c-3 -3 -9 2 -12 12 -6
14 -5 15 5 6 7 -7 10 -15 7 -18z m-73 6 c-3 -6 -14 -9 -25 -8 -24 2 -15 17 11
17 11 0 18 -4 14 -9z m-134 -94 c-1 -12 -15 -9 -19 4 -3 6 1 10 8 8 6 -3 11
-8 11 -12z m111 -64 c28 -25 24 -51 -7 -45 -20 3 -25 10 -25 33 0 33 6 36 32
12z m-132 -89 c0 -17 -22 -14 -28 4 -2 7 3 12 12 12 9 0 16 -7 16 -16z m-651
-76 c24 1 50 -3 57 -9 12 -10 9 -16 -13 -36 -16 -14 -21 -22 -13 -17 13 7 13
6 1 -10 -10 -12 -23 -15 -45 -11 -23 5 -27 4 -16 -4 21 -15 -1 -14 -52 1 -33
10 -41 9 -48 -3 -7 -11 -2 -16 21 -22 18 -5 33 -16 36 -28 3 -10 9 -19 13 -19
4 0 10 -7 13 -14 4 -10 1 -13 -8 -9 -8 3 -17 -1 -20 -9 -8 -20 -52 -21 -80 -2
-28 18 -33 44 -9 44 12 0 15 6 10 27 -5 17 -3 29 6 34 10 7 10 9 1 9 -8 0 -2
18 15 45 25 42 29 45 57 38 17 -4 50 -6 74 -5z m287 -27 c-20 -20 -27 -37 -23
-50 6 -25 -20 -30 -30 -5 -8 22 17 64 39 64 10 0 18 5 18 10 0 6 5 10 12 10 6
0 -1 -13 -16 -29z m-166 -17 c0 -16 -16 -19 -25 -4 -8 13 4 32 16 25 5 -4 9
-13 9 -21z m245 0 c22 -14 35 -44 19 -44 -14 0 -45 22 -54 40 -13 25 1 26 35
4z m-626 -33 c17 -11 7 -41 -13 -41 -19 0 -29 17 -22 35 6 17 15 18 35 6z
m1318 3 c-3 -3 -12 -4 -19 -1 -8 3 -5 6 6 6 11 1 17 -2 13 -5z m-564 -11 c3
-5 1 -17 -3 -28 -7 -19 -7 -19 -18 2 -7 12 -12 24 -12 27 0 9 28 7 33 -1z
m-1398 -33 c-3 -5 -13 -10 -21 -10 -8 0 -14 5 -14 10 0 6 9 10 21 10 11 0 17
-4 14 -10z m913 -7 c-5 -25 -28 -28 -28 -4 0 12 6 21 16 21 9 0 14 -7 12 -17z
m1202 7 c0 -5 -4 -10 -10 -10 -5 0 -10 5 -10 10 0 6 5 10 10 10 6 0 10 -4 10
-10z m-979 -15 c0 -5 -9 -11 -21 -13 -20 -3 -27 8 -13 22 10 9 34 3 34 -9z
m355 -6 c8 -14 -11 -33 -25 -25 -11 7 -4 36 9 36 5 0 12 -5 16 -11z m-1247 -8
c7 -5 11 -14 7 -19 -9 -15 -36 -4 -36 14 0 16 9 18 29 5z m1771 0 c0 -12 -20
-25 -27 -18 -7 7 6 27 18 27 5 0 9 -4 9 -9z m-626 -22 c-3 -5 -10 -7 -15 -3
-5 3 -7 10 -3 15 3 5 10 7 15 3 5 -3 7 -10 3 -15z m-396 -15 c30 -8 27 -48 -4
-52 -25 -4 -49 22 -40 43 6 17 11 18 44 9z m256 -10 c9 -8 16 -24 16 -35 0
-22 -25 -26 -34 -4 -3 8 -14 15 -25 15 -25 0 -38 20 -20 31 21 13 46 11 63 -7z
m-1004 -29 c0 -8 -2 -15 -4 -15 -2 0 -6 7 -10 15 -3 8 -1 15 4 15 6 0 10 -7
10 -15z m1180 -4 c0 -12 -28 -22 -34 -12 -3 5 -3 11 1 15 9 9 33 7 33 -3z
m-618 -24 c7 -8 19 -12 26 -9 21 7 44 -18 31 -34 -6 -7 -16 -11 -22 -8 -7 2
-21 -9 -31 -25 -32 -47 -120 -52 -102 -6 4 13 15 16 37 13 30 -5 30 -4 24 29
-4 21 -2 33 5 33 6 0 8 5 5 10 -9 15 11 12 27 -3z m1198 -43 c0 -7 -5 -16 -10
-19 -16 -10 -40 15 -40 41 0 24 1 24 25 8 14 -9 25 -22 25 -30z m-2012 3 c3
-14 -1 -18 -20 -15 -12 2 -24 11 -26 21 -3 14 1 18 20 15 12 -2 24 -11 26 -21z
m1094 6 c23 -21 23 -33 -1 -33 -20 0 -51 25 -51 41 0 15 32 10 52 -8z m410 -4
c20 -11 20 -12 -12 -25 -62 -27 -94 -13 -42 18 34 20 30 20 54 7z m-488 -21
c9 -12 16 -37 16 -55 0 -18 4 -33 8 -33 5 0 28 -18 52 -41 34 -32 40 -43 29
-50 -25 -17 -73 -6 -85 19 -7 13 -26 32 -43 43 -31 19 -31 19 -31 -2 0 -11 -5
-17 -10 -14 -7 4 -7 13 0 25 8 15 6 24 -10 40 -24 24 -17 44 12 37 15 -4 20 1
25 24 7 35 17 37 37 7z m200 10 c-4 -7 -13 -20 -21 -30 -13 -14 -12 -17 5 -22
11 -4 27 -15 36 -25 16 -18 16 -20 -10 -40 -34 -27 -44 -24 -60 20 -20 55 -17
77 14 93 34 19 45 20 36 4z m144 -6 c2 -7 -3 -12 -12 -12 -9 0 -16 7 -16 16 0
17 22 14 28 -4z m148 -98 c46 -13 53 -18 43 -30 -26 -32 -119 -7 -119 33 0 17
10 16 76 -3z m-633 -11 c13 -8 8 -31 -9 -37 -29 -11 -61 -6 -78 13 -17 18 -17
20 1 30 16 9 65 6 86 -6z m1098 -30 c7 -16 15 -31 17 -35 6 -13 -32 -8 -50 6
-18 13 -23 37 -11 49 13 14 30 6 44 -20z m-1734 -19 c6 -16 -15 -37 -29 -28
-4 3 -8 14 -8 25 0 23 28 26 37 3z m1384 -23 c20 -16 22 -23 13 -38 -17 -28
-55 -27 -87 3 -22 20 -26 29 -16 40 16 20 63 17 90 -5z m-405 -18 c4 -16 14
-36 23 -46 14 -17 14 -20 -9 -38 -73 -55 -117 23 -53 93 22 25 32 22 39 -9z
m-225 -14 c5 -11 7 -24 4 -29 -11 -17 -61 -11 -80 10 -20 23 -19 25 15 38 30
11 47 6 61 -19z m549 -74 c-7 -8 -16 -12 -21 -9 -13 8 -1 24 18 24 13 0 13 -3
3 -15z m-1321 -36 c27 -25 31 -33 20 -40 -28 -19 -89 9 -89 41 0 39 24 39 69
-1z"/>
<path d="M3749 4265 c-8 -46 -4 -65 13 -65 10 0 18 2 18 4 0 11 -29 69 -31 61z"/>
<path d="M3950 2786 c0 -2 7 -7 16 -10 8 -3 12 -2 9 4 -6 10 -25 14 -25 6z"/>
<path d="M4170 2101 c0 -5 5 -13 10 -16 6 -3 10 -2 10 4 0 5 -4 13 -10 16 -5
3 -10 2 -10 -4z"/>
<path d="M5575 1390 c-16 -7 -17 -9 -3 -9 9 -1 20 4 23 9 7 11 7 11 -20 0z"/>
<path d="M4610 1079 c0 -5 5 -7 10 -4 6 3 10 8 10 11 0 2 -4 4 -10 4 -5 0 -10
-5 -10 -11z"/>
<path d="M4520 1069 c0 -5 5 -7 10 -4 6 3 10 8 10 11 0 2 -4 4 -10 4 -5 0 -10
-5 -10 -11z"/>
<path d="M3648 4433 c7 -3 16 -2 19 1 4 3 -2 6 -13 5 -11 0 -14 -3 -6 -6z"/>
<path d="M3505 4410 c-3 -5 3 -10 14 -10 11 0 23 5 26 10 3 6 -3 10 -14 10
-11 0 -23 -4 -26 -10z"/>
<path d="M4300 4380 c-24 -8 -23 -8 8 -9 17 -1 32 4 32 9 0 11 -5 11 -40 0z"/>
<path d="M1738 4349 c-96 -50 -136 -169 -92 -274 17 -42 71 -105 90 -105 8 0
14 -4 14 -10 0 -16 -7 -12 -45 21 -43 38 -60 30 -22 -9 29 -30 33 -42 17 -42
-5 0 -31 -15 -57 -33 -66 -46 -157 -97 -175 -97 -9 0 -33 11 -54 25 l-39 26
38 -33 37 -33 -82 -50 c-106 -64 -192 -105 -219 -105 -30 0 -87 63 -95 105
-12 65 11 103 105 172 2 2 2 6 -1 9 -9 8 -60 -21 -86 -49 -31 -33 -42 -130
-19 -173 18 -33 59 -78 84 -93 17 -9 16 -13 -10 -66 -25 -52 -27 -63 -26 -178
1 -67 6 -129 10 -137 9 -18 31 -258 25 -269 -3 -4 -6 -60 -7 -124 -1 -101 -4
-117 -18 -117 -13 0 -13 -2 -2 -9 10 -7 12 -22 8 -60 -5 -44 -4 -51 11 -51 11
0 6 -7 -15 -20 -41 -24 -49 -41 -56 -115 -5 -47 -3 -63 10 -77 12 -14 14 -21
5 -30 -6 -6 -8 -24 -5 -39 3 -17 0 -35 -7 -44 -10 -12 -10 -19 -2 -27 9 -9 12
-8 12 5 0 9 6 17 14 17 10 0 12 -12 9 -47 -12 -153 -32 -507 -28 -513 2 -4 0
-20 -5 -36 -7 -23 -8 -14 -9 44 -1 41 -5 72 -11 72 -5 0 -10 -9 -10 -21 0 -19
-21 -49 -34 -49 -10 0 -27 81 -21 100 5 15 15 20 46 20 l39 0 0 83 c0 45 3 99
6 119 l6 37 -38 -3 c-33 -3 -39 -7 -36 -25 2 -13 -2 -21 -11 -21 -10 0 -13
-10 -10 -35 4 -37 -14 -54 -59 -56 -15 -1 -17 -3 -7 -6 19 -5 30 -65 28 -157
l-2 -61 -9 57 c-8 43 -15 59 -29 63 -15 5 -19 15 -18 43 1 20 -1 47 -5 60 -5
14 -3 22 4 22 6 0 8 5 5 10 -3 5 -1 10 4 10 6 0 11 7 11 15 0 10 -10 15 -29
15 -17 0 -31 6 -35 16 -9 23 -7 36 3 30 13 -8 42 4 35 15 -3 5 -14 9 -24 9
-21 0 -25 11 -34 93 -5 45 -5 47 19 47 18 0 25 5 25 20 0 17 -4 18 -25 10 -31
-12 -39 0 -31 46 4 19 3 34 -2 34 -12 0 -20 -65 -27 -230 -7 -173 -14 -222
-27 -214 -5 3 -8 14 -5 24 6 24 -18 33 -33 14 -10 -11 -9 -14 4 -14 19 0 19
-36 0 -56 -15 -16 -94 -29 -94 -15 0 6 5 11 11 11 5 0 7 5 3 12 -5 7 -1 9 12
6 14 -4 20 0 21 13 1 11 -2 19 -8 19 -15 0 -10 27 6 34 17 6 21 56 5 56 -16 0
-12 38 5 47 18 11 25 79 8 75 -15 -2 -19 83 -4 92 4 3 6 29 4 58 -2 39 -1 48
6 33 8 -16 10 -12 10 23 1 30 -3 42 -14 42 -18 0 -20 -18 -39 -253 -9 -103
-18 -192 -21 -198 -4 -5 -18 -9 -33 -8 l-27 1 28 10 c22 8 27 16 27 44 0 27
-4 34 -20 34 -15 0 -20 7 -20 25 0 15 6 25 15 25 16 0 35 30 35 54 0 9 -8 16
-19 16 -27 0 -32 12 -25 59 6 35 10 41 30 41 13 0 24 5 24 10 0 6 -12 10 -26
10 l-27 0 6 75 c3 41 2 75 -2 75 -9 0 -15 -47 -28 -210 l-7 -95 -7 60 c-3 33
-2 65 3 71 5 7 3 14 -5 17 -9 3 -17 28 -22 63 -6 52 -5 59 17 78 13 12 19 18
14 14 -14 -11 -46 -10 -46 2 0 6 7 10 15 10 8 0 15 5 15 10 0 6 -8 10 -17 10
-13 0 -14 3 -5 12 15 15 15 23 -1 40 -15 15 -31 98 -19 98 15 0 52 -31 47 -40
-3 -4 4 -10 15 -13 15 -4 20 -14 20 -36 0 -17 4 -31 9 -31 5 0 8 8 6 18 -2 9
-6 29 -9 44 -4 18 -22 36 -58 58 -49 30 -51 33 -33 46 10 8 24 14 29 14 6 0
21 20 33 45 19 38 20 46 7 53 -11 6 -16 36 -21 115 -3 59 -9 107 -13 107 -4 0
-8 -37 -8 -82 0 -126 1 -119 -29 -116 -21 2 -30 -3 -41 -25 -22 -45 -25 -25
-6 39 9 33 16 81 15 108 -1 40 3 52 23 71 14 13 33 26 43 29 13 4 18 17 20 48
1 24 6 72 11 108 5 36 7 68 5 73 -7 12 -128 8 -141 -5 -18 -18 -14 -38 8 -38
11 0 20 5 20 11 0 6 10 9 23 7 16 -2 21 -9 19 -23 -2 -11 -2 -31 -1 -45 7 -69
3 -144 -7 -147 -6 -2 -14 5 -17 17 -4 16 -13 20 -47 20 -33 0 -40 -3 -33 -12
15 -19 24 -97 28 -232 2 -65 6 -121 9 -124 6 -5 -24 -31 -37 -32 -5 0 -5 5 -2
10 3 6 1 10 -5 10 -7 0 -10 -6 -7 -12 2 -7 0 -21 -5 -32 -14 -26 0 -109 17
-103 9 4 11 -1 8 -14 -3 -10 0 -25 6 -32 8 -10 7 -57 -4 -178 -16 -186 -21
-209 -44 -209 -11 0 -12 3 -4 8 6 4 9 19 6 34 -3 15 -9 25 -14 22 -5 -3 -9 2
-9 11 0 9 9 19 20 22 23 6 27 33 5 33 -8 0 -15 5 -15 10 0 6 7 10 15 10 10 0
15 10 15 30 0 44 -24 28 -42 -28 l-14 -47 0 95 c0 52 -3 107 -7 123 -6 21 -4
27 8 27 22 0 18 17 -5 23 -18 5 -20 0 -20 -41 -1 -39 -3 -44 -11 -28 -7 11 -9
37 -5 63 5 40 4 44 -9 33 -12 -10 -15 -9 -15 6 0 11 -3 29 -6 41 -6 21 -3 23
28 23 44 0 51 34 10 49 l-27 9 34 1 c33 1 33 1 17 26 -9 13 -16 31 -16 40 0
22 -55 -29 -73 -69 -15 -31 -13 -135 3 -146 12 -9 30 -97 30 -150 0 -29 4 -49
9 -45 11 6 26 -78 17 -93 -3 -6 -1 -12 5 -14 6 -2 11 -23 12 -46 1 -23 5 -42
10 -42 15 0 6 -19 -13 -25 -11 -3 -20 -13 -20 -21 0 -20 -52 -15 -62 6 -4 8
-7 56 -7 107 -1 77 2 94 17 103 12 8 13 13 4 16 -16 7 -16 31 1 37 9 4 9 8 -2
15 -10 8 -13 26 -9 77 7 85 -3 76 -13 -13 l-7 -67 1 67 c0 38 -3 71 -6 75 -4
3 -7 16 -7 27 0 17 -2 18 -10 6 -9 -14 -5 -406 5 -471 3 -21 -1 -28 -17 -32
-12 -4 -26 -3 -32 1 -6 3 0 9 14 13 20 6 18 7 -16 8 -49 1 -55 -19 -15 -58 40
-40 73 -90 66 -101 -3 -5 -1 -10 4 -10 6 0 11 -7 11 -15 0 -8 6 -12 13 -10 14
5 70 -43 82 -71 5 -10 7 -43 6 -72 l-3 -54 46 3 c42 3 50 0 89 -39 35 -35 50
-42 81 -42 33 0 37 2 26 15 -10 12 -10 15 3 15 8 0 18 -7 21 -16 4 -12 15 -15
37 -12 16 3 32 1 35 -4 3 -4 -3 -8 -13 -8 -10 0 -24 -4 -32 -9 -22 -14 41 -48
105 -56 29 -3 57 -11 60 -17 5 -7 1 -9 -9 -5 -21 8 -21 3 0 -44 9 -21 26 -40
37 -43 21 -6 21 -6 1 -18 -24 -14 -104 -17 -102 -4 1 5 -19 10 -44 10 -37 1
-45 -2 -41 -14 4 -12 2 -13 -9 -2 -16 14 -33 16 -24 2 3 -5 1 -10 -4 -10 -6 0
-11 4 -11 10 0 5 -6 7 -14 4 -8 -3 -17 0 -21 5 -11 19 -26 1 -15 -19 14 -26 3
-48 -28 -52 -14 -2 -27 -9 -30 -16 -2 -7 2 -10 12 -6 20 8 48 -20 40 -40 -3
-9 -1 -16 5 -16 6 0 11 7 11 15 0 8 5 15 11 15 6 0 9 -9 6 -19 -3 -12 1 -22
10 -25 21 -9 6 -26 -23 -26 -15 0 -23 -4 -19 -10 4 -6 15 -8 25 -5 12 4 19 -1
23 -14 4 -17 9 -19 36 -11 29 8 45 -3 19 -13 -10 -4 -10 -6 0 -6 6 -1 12 -7
12 -14 0 -8 11 -12 28 -11 15 1 40 3 55 3 21 1 27 5 25 18 -2 13 3 17 17 15
11 -2 26 -4 33 -4 7 -1 24 -11 37 -24 13 -12 34 -25 45 -29 11 -3 20 -15 20
-26 0 -20 -17 -21 -71 -4 -16 5 -20 3 -17 -6 5 -13 12 -15 66 -18 12 -1 22 -5
22 -11 0 -5 -8 -6 -18 -3 -15 6 -15 5 -3 -11 13 -15 13 -19 0 -27 -8 -5 -23
-9 -34 -10 -13 -1 -10 -4 9 -8 45 -9 27 -24 -31 -25 -37 -1 -49 -4 -42 -12 6
-8 2 -14 -13 -19 -20 -7 -18 -9 17 -14 36 -6 38 -7 17 -15 -13 -4 -32 -16 -42
-26 -16 -16 -16 -18 16 -29 27 -10 39 -9 69 3 43 18 75 7 75 -24 0 -24 16 -25
59 -4 17 9 38 13 46 10 23 -8 18 -34 -7 -39 -22 -3 -22 -4 5 -15 15 -6 27 -18
27 -27 0 -19 77 -21 161 -3 57 12 58 11 79 -14 11 -15 35 -30 53 -33 17 -4 46
-19 62 -34 88 -79 151 -121 183 -121 15 0 18 -5 15 -23 -3 -14 2 -29 11 -36 9
-8 16 -29 16 -48 0 -26 4 -34 14 -30 47 18 88 19 106 2 27 -25 25 -41 -10 -66
-16 -12 -26 -27 -22 -33 3 -6 5 -21 4 -33 -4 -24 31 -53 63 -53 18 1 17 3 -7
21 -16 11 -28 29 -28 39 0 27 64 78 107 85 21 4 48 10 61 16 13 5 28 9 35 9
19 0 58 -65 51 -84 -8 -21 -23 -20 -54 4 -27 21 -75 27 -85 10 -3 -5 0 -28 6
-50 11 -35 15 -39 33 -33 12 4 33 6 49 5 19 -1 37 9 62 34 19 19 35 38 35 43
0 24 121 43 135 21 3 -5 16 -10 27 -10 11 0 26 -7 32 -16 18 -24 95 -38 115
-21 9 8 26 18 38 21 12 4 25 17 29 29 16 53 44 55 70 5 16 -31 51 -35 47 -5
-2 9 -4 25 -5 35 -4 21 50 29 82 12 17 -9 20 -17 15 -41 l-7 -29 61 0 c46 0
61 -4 61 -14 0 -13 20 -26 41 -26 5 0 9 12 9 28 0 41 26 72 61 72 33 0 89 -25
89 -40 0 -6 7 -10 16 -10 13 0 15 6 9 27 -4 16 -7 28 -8 29 -1 0 -13 8 -27 17
-13 9 -39 17 -57 17 -37 0 -43 14 -13 30 14 8 37 8 75 1 70 -13 98 -28 92 -49
-13 -48 -14 -47 30 -44 48 4 83 -11 83 -37 0 -25 11 -33 27 -20 8 7 13 32 13
65 0 53 16 84 44 84 20 0 64 -38 71 -60 5 -17 9 -18 28 -8 34 18 170 28 200
14 13 -6 20 -1 31 25 8 19 24 42 35 51 20 17 21 17 22 0 0 -12 3 -10 10 8 5
13 9 36 7 50 -2 19 -9 25 -29 25 -23 1 -26 -3 -25 -30 1 -33 -4 -34 -66 -13
-39 13 -50 34 -23 44 8 4 15 15 15 26 0 15 4 18 23 12 12 -4 24 -9 27 -13 9
-11 50 -8 50 5 0 7 -14 12 -34 12 -18 0 -43 5 -55 11 -21 12 -21 14 -23 464
-1 249 -1 480 1 515 2 78 -9 92 -98 112 -60 14 -66 18 -69 43 -3 21 1 27 17
27 11 0 22 4 26 10 3 5 12 7 20 3 18 -6 45 14 45 33 0 7 -9 16 -20 19 -11 3
-20 13 -20 20 0 20 -21 30 -31 14 -6 -10 -9 -11 -9 -1 0 6 -7 12 -15 12 -8 0
-15 7 -15 15 0 12 -76 42 -85 33 -4 -3 -29 -340 -40 -523 -3 -49 -8 -103 -10
-120 -2 -16 -9 -104 -15 -195 -16 -238 -17 -251 -24 -257 -3 -4 -6 12 -6 35 0
37 -2 41 -17 33 -10 -6 -31 -12 -46 -16 -19 -4 -33 -17 -44 -40 -9 -19 -22
-35 -28 -35 -7 0 -20 -9 -30 -20 -23 -26 -39 -26 -32 0 4 16 0 20 -19 20 -35
0 -41 26 -13 49 21 17 22 22 12 40 -15 24 -17 34 -4 27 5 -4 7 2 5 11 -3 10 6
31 20 46 14 16 23 34 20 42 -6 15 37 28 50 15 13 -13 39 -13 31 0 -4 6 12 8
43 4 l49 -5 6 53 c4 29 7 94 7 145 0 77 -2 91 -15 87 -8 -3 -28 0 -45 7 -29
13 -30 16 -30 82 l0 67 28 -6 c15 -3 32 -7 38 -9 6 -2 17 1 25 6 10 6 1 9 -26
9 -34 0 -91 19 -58 20 6 0 9 9 6 20 -4 15 6 31 38 59 l44 40 -40 -14 c-34 -11
-41 -11 -45 1 -3 8 -10 10 -19 5 -9 -6 -10 -11 -2 -15 6 -4 9 -12 6 -17 -3 -5
-18 -1 -33 8 -26 17 -26 17 -13 0 24 -30 5 -29 -50 3 l-54 31 32 -30 c18 -17
36 -31 40 -31 5 0 9 -9 9 -21 0 -15 -5 -19 -21 -15 -73 16 -87 18 -81 7 4 -6
12 -11 18 -11 18 0 66 -47 59 -58 -3 -6 -27 -12 -51 -14 l-45 -4 33 -13 c17
-7 32 -17 32 -21 0 -12 -26 -19 -48 -14 -12 4 -22 0 -26 -11 -3 -9 -2 -14 2
-11 5 3 23 -4 41 -15 27 -16 30 -22 21 -38 -5 -11 -7 -26 -4 -35 8 -21 -26
-36 -85 -36 -54 0 -101 16 -101 34 0 7 7 22 16 34 8 12 14 32 13 45 -1 12 3
35 9 50 7 16 12 34 12 40 0 7 7 25 16 42 8 16 13 40 9 52 -4 16 -1 21 8 17 17
-6 39 39 31 63 -4 11 -3 14 3 6 5 -7 16 0 33 23 14 19 40 54 57 77 18 23 33
48 33 55 0 6 4 12 9 12 21 0 51 72 51 124 l0 52 -102 24 c-193 43 -178 37
-178 73 0 18 3 49 7 71 l6 38 49 -5 c42 -5 48 -4 48 12 0 10 -6 18 -12 18 -7
1 -34 3 -60 6 -27 3 -46 1 -43 -3 3 -5 -12 -6 -32 -3 -33 5 -36 4 -22 -8 17
-14 31 -69 33 -126 1 -18 4 -33 9 -33 10 0 8 -152 -3 -170 -15 -24 -20 -8 -26
88 -4 51 -11 92 -15 92 -5 0 -9 -38 -9 -84 0 -52 -4 -88 -11 -92 -21 -13 -30
21 -27 106 3 74 1 85 -14 88 -16 3 -18 -6 -20 -80 -3 -135 -5 -173 -17 -275
-6 -54 -16 -188 -21 -298 -5 -110 -14 -217 -20 -237 -6 -20 -10 -40 -9 -45 3
-20 -2 -43 -9 -43 -10 0 -7 141 3 201 4 21 2 40 -4 43 -6 4 -8 13 -4 21 4 11
1 13 -11 9 -13 -5 -15 0 -11 27 4 27 3 29 -3 9 -6 -19 -10 -21 -16 -11 -7 10
-12 7 -22 -15 -9 -21 -13 -24 -13 -10 -1 13 -4 16 -13 8 -16 -13 -78 -10 -78
3 -1 6 11 11 25 13 14 2 25 7 25 12 0 5 7 7 15 4 8 -4 15 -2 15 4 0 6 14 14
32 17 47 11 68 27 68 52 0 31 -36 66 -59 58 -26 -8 -101 10 -119 29 -14 14
-12 14 21 4 33 -10 43 -8 84 12 l46 23 19 -23 18 -22 0 31 c0 18 -4 30 -9 27
-5 -3 -14 1 -21 9 -10 13 -9 15 9 15 27 0 28 3 35 135 3 61 9 153 12 206 l7
95 -79 17 c-44 9 -88 17 -99 16 -19 0 -19 -1 1 -9 20 -8 21 -14 18 -101 -3
-75 -8 -99 -24 -121 -11 -15 -24 -27 -28 -26 -4 1 -25 -4 -46 -10 -22 -6 -42
-9 -46 -7 -4 3 -13 -2 -20 -10 -11 -13 -15 -13 -29 -2 -9 8 -23 18 -31 22 -12
7 -13 6 -4 -6 6 -8 14 -22 17 -32 6 -16 5 -16 -18 -1 -15 10 -25 12 -25 5 0
-6 4 -11 9 -11 5 0 11 -8 14 -17 2 -10 8 -26 12 -36 5 -13 3 -16 -8 -11 -9 3
-24 1 -33 -4 -16 -9 -15 -10 5 -17 19 -6 22 -12 16 -33 -9 -35 -9 -35 -47 -34
-29 1 -31 -1 -13 -10 31 -18 35 -31 14 -46 -13 -9 -32 -12 -53 -8 -26 5 -33 3
-33 -9 0 -9 6 -14 14 -11 7 3 17 -2 22 -12 25 -49 42 -334 20 -348 -19 -12
-29 19 -29 93 0 99 -11 123 -53 123 -25 0 -37 6 -47 25 -7 13 -17 22 -22 19
-14 -9 -9 23 7 36 21 18 20 86 -2 99 -33 18 12 24 46 6 l31 -16 2 63 c2 89 2
89 18 101 9 7 15 19 15 27 -1 8 2 20 5 25 4 6 10 26 13 45 3 19 8 43 12 52 6
15 2 16 -32 11 -21 -3 -42 -9 -47 -14 -5 -4 -18 -3 -30 3 -17 9 -19 8 -8 -3 6
-7 12 -23 12 -36 0 -17 -6 -23 -23 -23 -13 0 -28 5 -34 11 -9 9 -10 7 -6 -10
3 -13 1 -21 -7 -21 -9 0 -7 -7 6 -21 16 -17 16 -22 4 -29 -8 -6 -24 -10 -35
-10 -15 -1 -12 -4 11 -14 26 -12 31 -18 27 -40 -3 -14 -12 -26 -19 -26 -8 0
-22 -4 -32 -9 -9 -5 -26 -13 -37 -17 -17 -6 -17 -8 -3 -11 20 -5 25 -26 33
-128 6 -64 4 -84 -9 -100 -15 -19 -15 -18 -16 20 0 42 -12 69 -30 71 -5 1 -14
2 -20 3 -5 0 -10 6 -10 12 0 5 5 7 10 4 12 -7 13 5 2 23 -5 7 -16 10 -25 6
-15 -5 -17 2 -17 53 0 33 -5 65 -12 72 -11 11 -8 12 14 7 14 -3 33 -8 41 -12
11 -4 16 4 19 36 2 27 0 39 -8 36 -6 -2 -3 12 8 32 10 20 18 42 18 49 0 8 11
31 25 53 14 22 25 49 25 60 0 11 4 20 9 20 5 0 12 7 15 16 5 14 1 15 -31 9
-48 -10 -63 -10 -87 0 -19 8 -19 8 -3 -15 22 -32 21 -43 -2 -37 -17 4 -19 1
-14 -28 4 -24 2 -33 -8 -33 -8 1 -23 0 -33 0 -18 -2 -18 -4 4 -27 25 -26 23
-34 -7 -40 -29 -6 -29 -7 -5 -13 35 -10 28 -26 -17 -37 -42 -11 -65 -25 -38
-25 17 0 22 -19 33 -112 7 -67 -3 -74 -29 -18 -10 22 -26 40 -34 40 -9 0 -13
-6 -10 -14 4 -10 1 -13 -9 -9 -7 3 -14 0 -14 -7 0 -7 -6 -10 -14 -7 -8 3 -20
-1 -26 -9 -7 -8 -19 -14 -26 -14 -8 0 -14 -9 -14 -20 0 -11 -6 -19 -12 -18 -7
2 -12 -3 -10 -10 1 -7 -5 -15 -13 -18 -8 -4 -15 -10 -15 -15 0 -12 33 2 47 20
11 14 12 14 13 -1 0 -13 9 -18 33 -19 17 -1 -11 -7 -63 -14 -54 -7 -99 -9
-105 -4 -5 5 3 9 21 9 27 0 64 34 50 47 -8 8 -26 -7 -26 -23 0 -8 -5 -14 -11
-14 -6 0 -9 7 -5 15 5 15 -5 19 -33 16 -7 -2 -10 2 -6 9 4 6 17 9 29 6 17 -4
24 1 34 24 10 21 23 31 47 36 19 3 39 3 44 -1 6 -3 19 1 28 10 22 22 31 134
12 147 -10 6 -1 8 26 4 l41 -6 -4 68 -4 67 50 65 50 65 11 140 c13 169 13 165
2 165 -14 0 -20 -37 -8 -49 8 -8 8 -14 0 -22 -13 -13 -27 8 -38 58 -5 23 -2
39 10 55 11 15 15 17 12 6 -7 -20 9 -34 16 -16 3 8 6 8 6 2 1 -7 14 -9 38 -5
49 8 53 31 14 78 -17 21 -31 43 -31 49 0 6 -7 11 -15 11 -18 0 -19 -9 -4 -24
7 -7 7 -13 1 -17 -18 -11 -25 15 -23 88 1 45 8 80 18 96 26 40 64 72 80 66 25
-10 42 73 27 132 -4 13 -14 22 -25 22 -11 0 -19 4 -19 9 0 9 30 25 43 23 11
-3 9 15 -23 166 -16 78 -32 191 -36 250 -3 59 -8 109 -10 111 -2 2 -26 -4 -53
-13 -54 -17 -87 -21 -61 -7 8 5 39 14 68 21 l52 12 0 104 0 104 35 0 c32 0 35
2 35 30 0 23 -5 30 -19 30 -10 0 -21 8 -24 19 -5 22 9 51 27 51 10 0 13 28 12
128 -1 100 3 136 17 170 9 23 17 51 17 62 0 17 -5 19 -27 14 -16 -4 -32 -11
-37 -15 -37 -34 -125 34 -146 110 -24 91 17 179 108 230 11 7 14 13 7 20 -7 6
-23 3 -47 -10z m92 -455 c-6 -14 -10 -36 -10 -50 0 -13 -4 -24 -10 -24 -11 0
-14 83 -3 93 3 4 12 7 19 7 10 0 11 -6 4 -26z m-390 -205 c0 -24 15 -46 79
-113 43 -45 82 -92 86 -105 10 -33 -4 -209 -18 -218 -22 -13 37 -19 102 -10
68 9 77 6 68 -17 -5 -13 -36 -15 -187 -15 -141 -1 -181 2 -178 12 3 8 31 13
79 15 l74 3 -5 113 -5 114 -68 69 c-37 37 -70 79 -74 91 -5 20 -10 23 -34 18
-16 -3 -29 -2 -29 3 0 10 88 71 102 71 4 0 8 -14 8 -31z m-110 -463 c0 -14
-21 -26 -46 -26 -8 0 -14 9 -14 20 0 16 7 20 30 20 19 0 30 -5 30 -14z m273
-73 c8 -12 20 -929 13 -922 -4 3 -10 129 -15 280 -8 252 -11 280 -33 349 -19
57 -26 100 -27 177 -2 56 0 107 4 113 7 12 52 14 58 3z m-251 -149 c70 -27
120 -74 160 -152 10 -20 18 -31 18 -24 0 20 -29 84 -48 107 -13 15 -10 14 10
-3 14 -13 38 -51 54 -85 23 -51 28 -77 28 -147 l1 -84 -42 3 c-44 3 -59 -15
-30 -36 17 -14 57 -14 57 0 0 8 3 8 12 -1 8 -8 13 -90 16 -279 4 -240 3 -266
-11 -255 -10 9 -16 9 -19 2 -7 -21 -36 2 -42 33 -3 18 -6 100 -7 182 -1 83 -4
165 -6 183 -5 28 -7 31 -21 20 -13 -11 -15 -10 -9 4 5 14 -1 20 -26 26 -18 5
-33 5 -35 0 -11 -25 -22 -1 -22 46 0 58 -10 75 -29 52 -7 -9 -8 -15 -2 -18 14
-4 19 -477 6 -480 -6 -2 -11 36 -12 97 -3 146 -25 395 -35 389 -14 -9 -9 47 8
82 10 20 21 31 28 27 7 -5 7 -2 -1 8 -6 8 -10 24 -8 34 2 11 4 23 4 27 1 8 56
4 84 -6 49 -17 49 -18 42 17 -4 17 -12 37 -18 42 -7 6 -12 16 -13 23 -1 6 -2
18 -2 26 -1 8 -27 42 -58 75 -59 64 -112 89 -160 77 -14 -4 -24 -2 -24 4 0 19
84 10 152 -16z m-204 -345 c-2 -47 -18 -65 -18 -20 0 30 8 61 16 61 3 0 4 -18
2 -41z m-660 -31 l37 -3 -39 -14 c-44 -15 -56 -6 -47 37 5 24 6 25 9 5 3 -17
11 -23 40 -25z m-46 -80 c-7 -7 -12 -23 -12 -36 0 -13 -4 -20 -10 -17 -11 7
-14 48 -3 58 3 4 13 7 22 7 12 0 12 -3 3 -12z m48 -147 c0 -5 -11 -8 -25 -7
-33 1 -33 16 0 16 14 0 25 -4 25 -9z m17 -116 c16 -125 16 -120 -12 -121 -19
-2 -25 3 -25 18 0 14 5 18 15 15 8 -4 17 -2 20 3 4 6 -3 10 -15 10 -24 0 -26
6 -34 78 -5 48 -4 52 17 53 l22 2 -22 4 c-12 2 -24 11 -27 19 -5 12 1 15 22
12 26 -3 27 -6 39 -93z m710 -87 c-2 -24 -4 -7 -4 37 0 44 2 63 4 43 2 -21 2
-57 0 -80z m-784 20 c3 -41 0 -58 -9 -62 -20 -7 -26 9 -14 38 5 14 7 33 4 41
-6 15 3 51 11 44 2 -2 5 -30 8 -61z m707 -13 c0 -16 -6 -25 -15 -25 -9 0 -15
9 -15 25 0 16 6 25 15 25 9 0 15 -9 15 -25z m2 -80 c-7 -15 -17 -23 -22 -20
-14 9 -12 52 3 58 22 8 31 -11 19 -38z m-707 -33 l0 -42 50 0 c36 0 46 -3 35
-10 -8 -5 -33 -10 -55 -10 -27 0 -35 -3 -26 -9 10 -6 11 -16 4 -37 -12 -35
-29 -42 -38 -15 -4 14 -15 21 -31 21 -13 0 -24 5 -24 11 0 7 10 9 25 7 25 -5
25 -4 25 64 0 61 2 69 18 66 13 -3 17 -13 17 -46z m812 1 c-3 -10 -5 -2 -5 17
0 19 2 27 5 18 2 -10 2 -26 0 -35z m-754 17 c3 -11 1 -20 -4 -20 -5 0 -9 9 -9
20 0 11 2 20 4 20 2 0 6 -9 9 -20z m34 -22 c-3 -7 -5 -2 -5 12 0 14 2 19 5 13
2 -7 2 -19 0 -25z m700 -105 c-2 -21 -4 -4 -4 37 0 41 2 58 4 38 2 -21 2 -55
0 -75z m-177 7 c0 -63 -2 -70 -20 -70 -16 0 -20 7 -20 36 0 31 25 104 36 104
2 0 4 -31 4 -70z m99 61 c3 -1 -4 -7 -15 -15 -16 -13 -17 -18 -6 -35 8 -14 8
-21 1 -21 -5 0 -8 -4 -5 -9 3 -5 -1 -11 -9 -15 -12 -4 -15 5 -15 49 0 51 1 55
23 51 12 -3 24 -5 26 -5z m108 -28 c-3 -10 -5 -4 -5 12 0 17 2 24 5 18 2 -7 2
-21 0 -30z m-710 -60 c-2 -16 -4 -5 -4 22 0 28 2 40 4 28 2 -13 2 -35 0 -50z
m-17 37 c0 -15 -7 -20 -25 -20 -18 0 -25 5 -25 20 0 15 7 20 25 20 18 0 25 -5
25 -20z m848 -65 c0 -38 -1 -39 -8 -10 -4 17 -8 44 -8 60 -1 25 1 27 8 10 5
-11 8 -38 8 -60z m166 9 c24 -9 20 -44 -4 -44 -15 0 -20 7 -20 25 0 27 1 28
24 19z m-344 -19 c0 -8 -7 -15 -16 -15 -14 0 -14 3 -4 15 7 8 14 15 16 15 2 0
4 -7 4 -15z m-932 -50 c2 -28 -1 -43 -13 -51 -15 -11 -15 -13 3 -18 11 -4 22
-19 25 -34 5 -25 2 -24 -34 17 -44 50 -48 62 -17 53 16 -4 19 -2 13 9 -8 11
-10 41 -6 65 1 3 7 4 14 2 6 -3 13 -22 15 -43z m-98 13 c0 -12 -3 -18 -7 -14
-11 10 -12 36 -2 36 5 0 9 -10 9 -22z m47 0 c-3 -8 -6 -5 -6 6 -1 11 2 17 5
13 3 -3 4 -12 1 -19z m183 -12 c0 -19 -4 -38 -10 -41 -6 -4 -10 10 -10 34 0
23 5 41 10 41 6 0 10 -15 10 -34z m743 27 c-7 -2 -19 -2 -25 0 -7 3 -2 5 12 5
14 0 19 -2 13 -5z m-321 -8 c9 -9 -16 -55 -29 -55 -8 0 -13 13 -13 30 0 22 5
30 18 30 10 0 21 -2 24 -5z m-222 -45 c0 -5 -9 -10 -21 -10 -19 0 -20 -4 -14
-40 7 -44 -2 -71 -17 -49 -7 11 -9 9 -7 -6 1 -11 0 -27 -1 -35 -3 -30 -19 25
-19 71 -1 48 9 63 44 72 32 8 35 7 35 -3z m2209 -99 c2 -67 -6 -45 -12 34 -3
42 -2 58 3 40 4 -16 8 -50 9 -74z m-2132 34 c-7 -13 -14 -20 -15 -14 -2 5 2
16 8 24 18 21 20 18 7 -10z m-262 -35 c-3 -5 -12 -10 -18 -10 -7 0 -6 4 3 10
19 12 23 12 15 0z m485 -5 c7 -9 8 -15 2 -15 -5 0 -12 7 -16 15 -3 8 -4 15 -2
15 2 0 9 -7 16 -15z m-246 -62 c-4 -27 -13 -53 -20 -59 -18 -15 -18 -24 2 -24
8 0 12 -4 9 -10 -3 -5 -17 -10 -31 -10 -13 0 -24 5 -24 10 0 6 -9 10 -19 10
-30 0 -34 17 -6 24 14 4 25 11 25 17 0 8 6 7 16 -2 13 -10 17 -10 25 2 12 19
11 49 -2 49 -5 0 -7 5 -4 10 4 6 11 8 16 5 5 -4 9 1 9 9 0 9 2 16 5 16 2 0 2
-21 -1 -47z m98 22 c12 0 22 -15 10 -15 -16 0 -15 -40 1 -41 26 -1 -30 -18
-64 -18 -34 -1 -35 0 -31 29 3 22 11 32 28 36 13 3 24 10 24 16 0 5 6 6 13 1
6 -4 15 -8 19 -8z m158 5 c0 -5 -2 -10 -4 -10 -3 0 -8 5 -11 10 -3 6 -1 10 4
10 6 0 11 -4 11 -10z m1760 -2 c0 -4 -4 -8 -9 -8 -6 0 -12 4 -15 8 -3 5 1 9 9
9 8 0 15 -4 15 -9z m640 -14 c0 -31 -23 -28 -28 4 -2 15 2 22 12 22 11 0 16
-9 16 -26z m-950 0 c0 23 32 17 36 -6 1 -10 -2 -18 -7 -18 -6 0 -5 -8 1 -20 8
-14 8 -20 0 -20 -6 0 -8 -4 -5 -10 3 -6 -4 -10 -17 -10 -22 -1 -22 -1 -4 -15
13 -10 17 -22 14 -40 -6 -29 10 -45 23 -24 6 9 9 10 9 2 0 -19 -18 -25 -76
-28 l-54 -3 0 53 c0 50 1 53 23 49 12 -2 16 -1 8 2 -11 5 -11 8 0 16 10 7 5 8
-14 3 -26 -5 -27 -4 -17 15 6 11 8 25 5 30 -3 6 1 10 10 10 8 0 18 7 22 15 5
14 8 14 24 -1 18 -16 19 -16 19 0z m-1043 -31 c-3 -10 -5 -4 -5 12 0 17 2 24
5 18 2 -7 2 -21 0 -30z m1500 -10 c-3 -10 -5 -2 -5 17 0 19 2 27 5 18 2 -10 2
-26 0 -35z m-2392 7 c3 -5 -3 -10 -15 -10 -12 0 -18 5 -15 10 3 6 10 10 15 10
5 0 12 -4 15 -10z m109 -76 c5 -14 4 -15 -9 -4 -17 14 -19 20 -6 20 5 0 12 -7
15 -16z m166 12 c0 -9 -30 -14 -35 -6 -4 6 3 10 14 10 12 0 21 -2 21 -4z m690
-36 c13 -8 11 -11 -7 -16 -13 -4 -23 -10 -23 -14 0 -5 10 -11 23 -13 14 -3 8
-5 -15 -6 -28 -1 -36 -5 -32 -15 3 -8 1 -17 -5 -21 -6 -3 -11 1 -11 9 0 9 -7
16 -15 16 -8 0 -15 -2 -15 -4 0 -2 -3 -13 -7 -23 -6 -16 -5 -16 10 -4 12 10
17 10 17 2 0 -7 10 -11 23 -9 12 2 21 9 20 16 -4 17 14 15 21 -3 7 -18 -1 -21
-71 -29 l-52 -5 19 35 c11 19 20 40 20 46 0 37 64 61 100 38z m868 -64 c1 -14
0 -26 -2 -26 -10 0 -36 52 -31 61 10 16 30 -6 33 -35z m-1338 2 c0 -6 -6 -5
-15 2 -8 7 -15 14 -15 16 0 2 7 1 15 -2 8 -4 15 -11 15 -16z m340 18 c0 -3 -4
-8 -10 -11 -5 -3 -10 -1 -10 4 0 6 5 11 10 11 6 0 10 -2 10 -4z m-308 -87 c3
-70 -4 -115 -14 -99 -19 30 -28 53 -23 60 4 6 1 10 -6 10 -8 0 -8 5 2 16 14
17 20 36 23 72 0 12 4 22 8 22 3 0 8 -36 10 -81z m248 61 c0 -5 -10 -10 -23
-10 -34 0 -37 -7 -21 -53 10 -27 13 -55 8 -77 -7 -34 -7 -34 -14 -10 -7 21 -8
18 -9 -17 -1 -23 -6 -45 -11 -48 -17 -11 -39 14 -46 51 -3 19 -10 34 -15 34
-5 0 -6 -7 -3 -15 5 -11 -1 -15 -20 -15 -27 0 -32 13 -20 58 7 24 29 30 37 10
3 -7 6 -1 6 13 1 33 35 76 64 82 42 8 67 7 67 -3z m220 -24 c0 -2 -7 -7 -16
-10 -8 -3 -12 -2 -9 4 6 10 25 14 25 6z m-63 -38 c-21 -7 -26 -15 -22 -29 5
-15 1 -19 -21 -19 -26 0 -27 -1 -19 -47 10 -59 7 -121 -5 -142 -8 -13 -9 -12
-10 7 0 12 -4 22 -10 22 -5 0 -10 -11 -10 -24 0 -14 -5 -28 -10 -31 -6 -3 -9
-25 -8 -48 3 -38 5 -42 30 -42 22 0 27 4 22 18 -3 9 -1 17 4 17 6 0 12 -5 14
-10 2 -6 16 -8 33 -5 l30 6 -3 72 c-3 66 -1 74 21 95 32 30 88 44 105 26 9
-10 6 -13 -16 -16 -30 -3 -35 -26 -19 -87 8 -32 1 -128 -9 -118 -3 2 -8 24
-13 48 l-9 44 -1 -57 c-1 -54 -13 -80 -43 -90 -17 -6 0 -28 23 -28 13 0 19 7
20 23 l0 22 10 -23 c7 -18 5 -30 -10 -49 -12 -15 -17 -31 -13 -41 6 -14 7 -13
10 6 2 13 10 26 18 29 8 3 21 17 29 32 14 25 14 25 15 4 0 -18 6 -23 24 -23
44 0 57 9 43 31 -10 17 -9 23 8 35 17 13 20 13 26 -3 4 -13 7 -14 14 -4 6 10
9 10 15 1 8 -14 90 5 102 23 4 7 11 7 22 -2 8 -7 27 -11 42 -9 15 2 29 -2 31
-9 3 -7 -3 -10 -14 -7 -10 3 -45 -2 -78 -10 -32 -9 -79 -16 -102 -16 -43 0
-46 -3 -44 -45 0 -11 -2 -14 -5 -7 -3 6 -22 12 -42 12 l-35 0 24 -26 c14 -15
31 -23 41 -21 18 5 31 -7 34 -30 2 -9 -3 -10 -17 -3 -16 9 -19 7 -20 -17 -1
-15 -1 -30 -1 -33 0 -3 -17 -6 -38 -7 -33 -2 -37 0 -33 17 7 25 -12 27 -22 3
-6 -16 -8 -15 -16 6 -6 14 -8 30 -5 37 3 7 -2 10 -12 7 -9 -2 -26 3 -37 11
-16 12 -18 17 -7 27 6 7 12 17 12 21 0 13 -102 57 -117 51 -8 -3 -13 -2 -12 3
4 23 -3 32 -30 37 -22 5 -28 11 -25 24 4 14 -9 29 -50 57 -57 39 -73 63 -36
53 21 -5 24 3 22 53 -1 15 1 19 5 10 7 -18 23 -30 41 -30 8 0 12 21 12 74 0
69 2 76 26 95 15 12 34 21 43 21 9 0 27 9 41 20 14 11 34 19 45 19 15 0 14 -3
-8 -11z m913 -38 c0 -5 -2 -10 -4 -10 -3 0 -8 5 -11 10 -3 6 -1 10 4 10 6 0
11 -4 11 -10z m-554 -10 c8 0 14 -4 14 -10 0 -5 -7 -10 -15 -10 -9 0 -19 -8
-22 -17 -4 -10 -12 -21 -19 -26 -7 -4 -11 -14 -8 -21 3 -8 -4 -19 -16 -26 -11
-6 -18 -15 -15 -19 2 -5 -11 -11 -30 -13 -19 -2 -35 0 -35 4 0 4 10 8 23 8 12
0 28 9 35 21 12 18 11 24 -7 40 -26 25 -26 31 2 49 34 23 51 29 65 24 8 -2 20
-4 28 -4z m-145 -54 c-13 -16 -71 -27 -71 -14 0 5 14 11 30 15 17 3 33 10 36
15 3 5 8 7 11 4 3 -3 1 -12 -6 -20z m-596 -16 c-3 -5 -13 -10 -21 -10 -8 0
-12 5 -9 10 3 6 13 10 21 10 8 0 12 -4 9 -10z m90 -10 c18 -19 17 -20 -3 -20
-15 0 -22 6 -22 20 0 11 2 20 3 20 2 0 12 -9 22 -20z m536 -27 c-8 -15 -10
-15 -11 -2 0 17 10 32 18 25 2 -3 -1 -13 -7 -23z m102 11 c-3 -9 0 -20 8 -25
9 -6 1 -8 -26 -7 -23 0 -30 3 -17 5 14 3 22 12 22 24 0 10 4 19 10 19 5 0 7
-7 3 -16z m517 -44 c0 -5 -5 -10 -11 -10 -5 0 -7 5 -4 10 3 6 8 10 11 10 2 0
4 -4 4 -10z m55 0 c3 -5 -1 -10 -10 -10 -9 0 -13 5 -10 10 3 6 8 10 10 10 2 0
7 -4 10 -10z m-85 -9 c0 -12 -21 -19 -37 -13 -22 8 -14 22 12 22 14 0 25 -4
25 -9z m134 -12 c-5 -8 3 -10 24 -7 19 3 33 0 36 -8 8 -20 -16 -34 -58 -34
-60 -1 -128 -18 -143 -38 -13 -16 -13 -16 -11 0 2 9 -1 17 -6 16 -10 0 -26 22
-26 36 0 4 7 6 15 2 9 -3 15 0 15 9 0 22 28 18 35 -5 9 -27 21 -25 62 10 33
29 71 42 57 19z m-1608 -48 c18 -24 13 -37 -10 -28 -9 4 -12 14 -9 27 4 16 2
19 -11 14 -9 -3 -16 -2 -16 4 0 18 30 7 46 -17z m-152 4 c3 -8 1 -15 -4 -15
-6 0 -10 7 -10 15 0 8 2 15 4 15 2 0 6 -7 10 -15z m390 9 c9 -3 14 -10 11 -14
-3 -5 3 -16 12 -26 9 -9 18 -24 19 -32 4 -22 25 -40 31 -24 6 15 23 16 23 1 0
-7 8 -18 18 -25 12 -10 13 -13 3 -14 -11 0 -11 -3 -1 -15 7 -8 8 -15 3 -15
-17 0 -155 148 -149 159 8 13 9 13 30 5z m1730 -43 c25 -11 51 -29 58 -40 8
-13 23 -21 39 -21 25 0 27 -4 38 -77 20 -131 20 -123 0 -112 -11 5 -19 17 -19
25 0 9 -11 25 -24 35 -14 11 -28 28 -31 39 -4 11 -12 20 -18 20 -17 -1 -57
-36 -57 -50 0 -7 -13 -10 -32 -8 -37 3 -38 6 -23 126 6 50 5 66 -6 73 -27 17
28 10 75 -10z m-2134 -1 c0 -5 -5 -10 -11 -10 -5 0 -7 5 -4 10 3 6 8 10 11 10
2 0 4 -4 4 -10z m1750 -20 c0 -5 -5 -10 -11 -10 -5 0 -7 5 -4 10 3 6 8 10 11
10 2 0 4 -4 4 -10z m-21 -55 c0 -5 -6 -1 -14 9 -8 11 -15 27 -15 35 1 17 29
-26 29 -44z m-1549 31 c0 -3 -4 -8 -10 -11 -5 -3 -10 -1 -10 4 0 6 5 11 10 11
6 0 10 -2 10 -4z m2610 -6 c0 -5 -7 -10 -15 -10 -8 0 -15 5 -15 10 0 6 7 10
15 10 8 0 15 -4 15 -10z m-1261 -57 c0 -25 -1 -26 -9 -8 -12 27 -12 35 0 35 6
0 10 -12 9 -27z m-942 -55 c2 -24 -9 -22 -36 5 -13 15 -19 30 -15 41 6 15 9
14 28 -6 12 -13 22 -31 23 -40z m-487 42 c0 -5 -2 -10 -4 -10 -3 0 -8 5 -11
10 -3 6 -1 10 4 10 6 0 11 -4 11 -10z m1683 -40 c11 0 17 -8 17 -25 0 -16 -6
-25 -15 -25 -9 0 -15 -9 -15 -25 0 -14 -4 -25 -10 -25 -5 0 -10 5 -10 11 0 15
-27 40 -47 43 -21 3 -29 46 -8 46 8 0 15 6 15 14 0 13 4 13 28 0 15 -7 35 -14
45 -14z m-153 -39 c-6 -12 -16 -21 -22 -21 -7 0 -6 5 2 15 11 13 8 15 -14 15
-34 0 -89 -28 -80 -41 4 -6 11 -6 20 2 10 8 14 8 14 0 0 -6 -13 -14 -29 -17
-37 -8 -43 -35 -19 -85 25 -52 31 -85 24 -124 -10 -49 -22 -43 -29 13 -7 61
-27 108 -39 90 -6 -10 -10 -7 -14 9 -8 31 -43 37 -54 10 -8 -21 -9 -21 -9 -2
-1 22 61 95 80 95 6 0 26 13 45 30 18 16 51 32 71 35 21 4 43 8 48 9 15 4 18
-11 5 -33z m-1010 11 c0 -5 10 -14 23 -20 12 -6 16 -11 9 -11 -19 -1 -52 18
-52 29 0 6 5 10 10 10 6 0 10 -4 10 -8z m638 -27 c-8 -8 -159 -27 -165 -21 -4
3 -4 8 -2 10 5 5 71 15 122 18 20 1 37 7 38 13 0 5 3 4 6 -3 3 -7 3 -15 1 -17z
m702 0 c0 -14 -4 -25 -10 -25 -5 0 -10 11 -10 25 0 14 5 25 10 25 6 0 10 -11
10 -25z m155 -15 c-27 -12 -35 -12 -35 0 0 6 12 10 28 9 24 0 25 -1 7 -9z
m-298 -32 c-3 -8 -6 -5 -6 6 -1 11 2 17 5 13 3 -3 4 -12 1 -19z m-121 -15
c-10 -10 -19 5 -10 18 6 11 8 11 12 0 2 -7 1 -15 -2 -18z m-296 8 c0 -8 -29
-19 -73 -28 -10 -2 -26 1 -35 7 -14 8 -11 10 13 10 37 2 77 9 84 15 7 7 11 6
11 -4z m334 -15 c-3 -9 -10 -16 -15 -16 -14 0 -11 28 4 33 16 6 19 3 11 -17z
m993 2 c-3 -8 -6 -5 -6 6 -1 11 2 17 5 13 3 -3 4 -12 1 -19z m-27 -35 c-1 -36
-3 -44 -10 -31 -6 9 -8 27 -6 40 3 13 5 26 5 31 1 4 3 7 6 7 3 0 5 -21 5 -47z
m-1490 21 c0 -2 -17 -4 -37 -4 -24 0 -33 3 -25 9 12 7 62 4 62 -5z m48 3 c14
4 14 3 3 -5 -17 -12 -43 -4 -34 11 5 8 8 8 10 0 3 -7 12 -9 21 -6z m732 -11
c0 -19 -17 -29 -37 -22 -12 5 -13 9 -3 21 16 19 40 19 40 1z m907 -3 c6 -16
-45 -29 -59 -15 -6 6 -7 15 -3 22 9 14 57 9 62 -7z m-1777 -4 c0 -5 -8 -9 -17
-9 -10 0 -29 -3 -42 -7 -17 -4 -22 -3 -17 6 4 6 12 9 17 6 5 -4 9 -3 9 2 0 4
11 9 25 9 14 1 25 -2 25 -7z m1631 -2 c-1 -4 -1 -17 -2 -29 0 -13 -3 -17 -6
-10 -2 6 -9 10 -14 6 -10 -6 -12 29 -2 40 8 8 25 3 24 -7z m-1401 -12 c0 -8
-9 -15 -20 -15 -20 0 -26 11 -13 23 12 13 33 7 33 -8z m888 -8 c4 -21 -25 -34
-40 -19 -8 8 -8 16 2 27 16 19 34 15 38 -8z m-1530 -41 c2 -9 -2 -16 -10 -16
-20 1 -51 28 -44 39 9 14 50 -3 54 -23z m907 9 c0 -22 -24 -30 -61 -21 -25 7
-33 31 -11 40 6 3 26 4 42 3 23 -2 30 -7 30 -22z m230 -1 c18 -19 16 -33 -7
-48 -12 -7 -21 -6 -32 3 -19 16 -21 47 -3 54 20 9 25 8 42 -9z m-361 -111 c0
-43 -4 -77 -11 -84 -16 -16 -5 -39 18 -39 10 0 19 -4 19 -10 0 -5 -12 -10 -26
-10 -15 0 -33 -8 -40 -17 -11 -15 -13 -15 -14 -3 0 12 -9 15 -39 12 -45 -5
-51 -14 -39 -60 6 -23 19 -37 43 -49 43 -21 45 -42 5 -49 -17 -4 -30 -13 -30
-21 0 -27 -26 -8 -47 35 0 2 -9 5 -20 6 -10 2 -18 11 -18 22 0 10 -11 24 -24
30 -31 16 -41 34 -35 60 5 18 -2 24 -40 39 -57 22 -87 52 -66 65 28 18 78 11
97 -13 30 -37 74 -67 99 -67 13 0 24 2 24 5 0 20 -37 69 -75 101 -41 33 -44
39 -31 53 23 23 82 19 108 -7 19 -19 20 -25 10 -57 -10 -36 -7 -65 8 -65 4 0
15 9 25 20 10 11 24 20 32 20 11 0 11 4 3 21 -22 40 -39 110 -27 107 21 -4 57
13 58 28 1 8 3 19 4 24 1 6 3 13 4 18 7 25 23 -55 25 -115z m-97 85 c-3 -8 -6
-5 -6 6 -1 11 2 17 5 13 3 -3 4 -12 1 -19z m707 6 c22 -8 20 -21 -4 -34 -25
-13 -60 -4 -60 15 0 21 34 31 64 19z m-380 -72 c1 -61 -5 -69 -36 -48 -12 9
-35 16 -50 16 -17 0 -31 7 -38 19 -15 29 -14 30 35 42 25 6 48 16 51 21 3 5
13 8 22 6 12 -2 16 -16 16 -56z m-1179 28 c0 -22 -29 -18 -33 3 -3 14 1 18 15
15 10 -2 18 -10 18 -18z m2330 -36 c0 -13 -8 -20 -27 -22 -32 -4 -39 21 -10
37 23 14 37 8 37 -15z m-898 0 c3 -9 0 -20 -8 -25 -17 -11 -21 -11 -38 0 -19
12 -6 41 19 41 11 0 23 -7 27 -16z m-859 -19 c11 -10 -21 -25 -55 -25 -34 0
-49 13 -37 31 7 11 80 7 92 -6z m1472 -4 c0 -17 -12 -41 -21 -41 -10 0 -12 33
-2 43 9 10 23 9 23 -2z m-330 -11 c21 -13 -1 -33 -31 -28 -32 4 -39 38 -7 38
13 0 30 -5 38 -10z m-1275 -28 c4 -20 36 -52 116 -116 61 -48 114 -98 119
-111 5 -12 15 -25 24 -28 22 -9 50 -67 38 -79 -5 -5 -22 -8 -38 -6 -27 3 -29
6 -29 45 0 38 -2 42 -31 46 -16 3 -47 12 -67 21 -29 12 -37 21 -37 40 0 16 -6
26 -15 26 -8 0 -30 8 -50 17 -28 13 -35 23 -35 45 0 22 -6 29 -27 34 -16 4
-36 14 -46 22 -12 11 -34 16 -63 14 -60 -2 -56 16 6 24 27 4 58 13 67 20 31
23 61 17 68 -14z m615 14 c0 -29 -13 -46 -35 -46 -30 0 -42 30 -19 47 24 17
54 16 54 -1z m920 -1 c7 -8 10 -25 6 -40 -5 -20 -3 -25 13 -25 11 0 21 5 23
10 2 6 9 -3 15 -20 10 -26 9 -32 -3 -37 -21 -8 -45 5 -51 27 -3 11 -13 22 -22
25 -10 3 -25 21 -34 40 l-17 35 29 0 c16 0 34 -7 41 -15z m-680 -35 c0 -23
-45 -39 -62 -22 -18 18 -1 42 32 42 23 0 30 -4 30 -20z m890 5 c14 -17 5 -35
-18 -35 -27 0 -45 17 -39 34 8 20 41 21 57 1z m-662 -33 c5 -17 -27 -27 -41
-13 -9 9 -8 14 3 21 18 11 32 8 38 -8z m267 -2 c19 -7 26 -16 23 -32 -5 -34
-32 -33 -72 2 -54 48 -33 61 49 30z m-649 -11 c13 -12 34 -27 46 -33 13 -6 23
-20 23 -31 0 -28 65 -75 87 -64 9 5 30 9 46 9 30 0 30 1 20 34 -18 58 32 136
59 94 4 -7 8 -42 8 -78 l0 -65 54 -5 c43 -5 57 -11 73 -33 11 -15 36 -31 59
-37 29 -8 39 -16 39 -31 0 -16 -4 -19 -17 -14 -10 4 -33 9 -51 12 -23 4 -37
14 -48 34 -8 16 -21 29 -29 29 -13 0 -43 11 -111 42 -13 6 -41 5 -80 -2 -114
-23 -108 -24 -126 9 -11 20 -13 31 -6 31 6 0 1 11 -12 25 -14 15 -35 25 -51
25 -15 0 -34 3 -43 6 -23 9 -19 39 7 52 30 14 28 15 53 -9z m1158 -35 c23 -9
20 -41 -4 -49 -25 -8 -50 10 -50 36 0 19 23 25 54 13z m-1353 -16 c0 -10 2
-10 5 -1 4 9 11 9 32 0 31 -14 125 -105 135 -131 5 -14 16 -17 49 -14 36 2 44
-1 54 -20 6 -13 21 -33 33 -46 29 -30 27 -43 -8 -51 -36 -8 -78 12 -94 46 -7
13 -23 26 -37 27 -14 2 -29 10 -33 18 -4 8 -26 17 -47 20 -25 4 -41 13 -45 24
-3 10 -23 35 -45 56 -34 33 -37 39 -23 49 9 7 13 17 9 23 -4 7 -2 12 3 12 6 0
11 -6 12 -12z m-55 -65 c-10 -10 -35 18 -29 33 4 12 8 11 20 -6 8 -12 12 -24
9 -27z m804 38 c0 -13 -27 -21 -45 -15 -8 4 -12 10 -9 15 7 12 54 12 54 0z
m250 -20 c0 -15 -16 -22 -34 -15 -25 9 -19 24 9 24 14 0 25 -4 25 -9z m214
-14 c8 -14 8 -20 -4 -27 -22 -14 -35 -12 -60 8 -14 11 -20 24 -16 31 11 17 67
9 80 -12z m-366 -29 c16 -16 15 -45 0 -50 -21 -7 -59 4 -65 18 -14 37 36 61
65 32z m252 -49 c0 -24 -12 -29 -46 -20 -39 10 -42 36 -7 55 25 13 29 13 41
-1 6 -9 12 -25 12 -34z m447 19 c-3 -7 -5 -2 -5 12 0 14 2 19 5 13 2 -7 2 -19
0 -25z m-1106 -39 c9 -17 8 -25 -5 -37 -12 -13 -20 -13 -41 -4 -27 13 -32 31
-13 50 19 19 46 14 59 -9z m883 12 c4 -5 2 -21 -4 -36 -8 -21 -13 -24 -29 -16
-21 12 -34 38 -25 52 7 12 51 12 58 0z m-1288 -47 c11 -42 -6 -49 -86 -34 -45
9 -70 18 -70 27 0 8 12 13 33 14 17 0 41 4 52 9 39 17 64 11 71 -16z m-16 -74
c0 -5 -4 -10 -10 -10 -5 0 -10 5 -10 10 0 6 5 10 10 10 6 0 10 -4 10 -10z"/>
<path d="M1496 2790 c3 -14 11 -32 16 -40 6 -10 7 -7 2 10 -3 14 -11 32 -16
40 -6 10 -7 7 -2 -10z"/>
<path d="M1475 2560 c3 -5 8 -10 11 -10 2 0 4 5 4 10 0 6 -5 10 -11 10 -5 0
-7 -4 -4 -10z"/>
<path d="M1087 1433 c-13 -12 -7 -43 8 -43 9 0 20 -10 26 -22 9 -22 9 -22 3 2
-3 14 -8 35 -11 48 -5 22 -14 28 -26 15z"/>
<path d="M1101 1344 c0 -11 3 -14 6 -6 3 7 2 16 -1 19 -3 4 -6 -2 -5 -13z"/>
<path d="M1205 1180 c20 -23 29 -21 19 4 -3 9 -13 16 -22 16 -13 0 -12 -3 3
-20z"/>
<path d="M1339 1060 c29 -25 54 -26 49 -2 -2 12 -14 18 -38 20 l-35 2 24 -20z"/>
<path d="M2795 970 c3 -5 8 -10 11 -10 2 0 4 5 4 10 0 6 -5 10 -11 10 -5 0 -7
-4 -4 -10z"/>
<path d="M2014 679 c-3 -6 -17 -8 -30 -5 -32 8 -32 -14 1 -51 21 -24 26 -26
35 -13 9 15 14 80 6 80 -3 0 -8 -5 -12 -11z"/>
<path d="M4047 4333 c-4 -3 -7 -11 -7 -17 0 -6 5 -5 12 2 6 6 9 14 7 17 -3 3
-9 2 -12 -2z"/>
<path d="M2266 4235 c4 -9 0 -15 -10 -15 -10 0 -16 -9 -16 -22 0 -18 -2 -20
-9 -8 -6 8 -7 18 -5 22 3 4 0 8 -5 8 -6 0 -11 -6 -11 -14 0 -7 -21 -23 -47
-34 -40 -17 -44 -21 -22 -21 14 -1 28 -4 31 -7 4 -3 -12 -40 -35 -82 l-41 -75
-7 -155 c-4 -85 -5 -160 -2 -168 3 -8 -1 -14 -8 -14 -10 -1 -8 -5 4 -15 12 -8
17 -20 13 -33 -5 -13 0 -22 18 -30 23 -10 24 -17 32 -139 10 -139 12 -486 4
-596 -3 -53 -1 -70 10 -77 13 -8 12 -10 -2 -10 -16 0 -18 -11 -18 -97 0 -67
-3 -93 -10 -83 -6 9 -10 10 -10 3 0 -6 -10 -14 -22 -16 -13 -2 2 -6 32 -7 l55
-3 -40 -7 c-41 -7 -35 -9 40 -14 17 -1 38 -6 48 -10 10 -5 17 -4 17 3 0 6 -9
11 -19 11 -11 0 -29 12 -40 26 -18 23 -21 40 -20 108 l2 81 10 -94 9 -93 31 6
c38 8 37 6 44 49 8 51 -5 127 -22 127 -21 0 -25 13 -9 35 13 17 16 18 24 5 22
-35 17 9 -19 186 -37 179 -39 202 -46 442 l-8 252 42 0 c42 0 42 1 39 33 -3
27 -6 32 -27 29 -20 -3 -23 0 -19 16 4 16 2 19 -10 14 -12 -4 -10 3 7 26 12
18 29 32 36 32 11 0 15 29 17 138 2 75 2 139 0 141 -1 3 -18 -3 -37 -12 -47
-22 -48 -22 -30 13 8 16 32 38 53 49 33 17 62 54 62 80 0 7 -43 31 -55 31 -2
0 -2 -7 1 -15z m-146 -545 c0 -5 -4 -10 -10 -10 -5 0 -10 5 -10 10 0 6 5 10
10 10 6 0 10 -4 10 -10z m90 -920 c0 -5 -4 -10 -10 -10 -5 0 -10 5 -10 10 0 6
5 10 10 10 6 0 10 -4 10 -10z"/>
<path d="M3571 4153 c-5 -10 -12 -191 -15 -403 -4 -212 -9 -401 -10 -420 -2
-19 -4 -47 -5 -61 -2 -49 -29 -64 -143 -78 -59 -8 -118 -11 -131 -7 -29 7 -47
-11 -26 -26 15 -10 208 -3 293 11 81 14 83 18 90 263 9 319 14 711 9 726 -7
18 -51 15 -62 -5z"/>
<path d="M1990 4077 c-32 -18 -49 -33 -39 -35 12 -2 8 -17 -24 -80 -37 -75
-38 -79 -36 -172 2 -52 0 -105 -5 -118 -6 -19 -4 -24 13 -29 14 -3 21 -13 21
-28 0 -18 -7 -25 -32 -31 -32 -7 -32 -8 -8 -14 20 -5 24 -12 22 -33 -2 -19 3
-30 15 -35 11 -4 18 -18 19 -37 0 -16 4 -91 9 -165 11 -148 11 -184 6 -405 -2
-82 -7 -152 -10 -155 -4 -3 -4 -44 -1 -93 4 -78 3 -87 -12 -87 -10 0 -18 -7
-18 -15 0 -10 11 -15 38 -16 20 -1 41 -1 46 0 5 1 3 -6 -5 -15 -13 -16 -12
-16 9 -5 25 14 29 31 6 31 -8 0 -22 16 -30 35 -16 39 -20 170 -4 160 6 -3 10
-42 10 -86 l0 -80 28 3 c24 3 27 8 30 43 6 69 -6 119 -31 130 -26 12 -25 38 3
102 13 31 16 50 10 70 -25 80 -41 233 -47 438 l-6 225 41 0 c42 0 42 0 42 36
0 33 -2 36 -24 30 -20 -5 -24 -1 -30 25 -11 55 -8 62 19 55 l25 -6 0 104 c0
57 3 118 7 136 5 28 4 32 -10 27 -10 -4 -24 -10 -33 -14 -29 -11 -10 20 27 45
34 23 58 56 59 80 0 21 -43 13 -100 -21z m7 -1409 c-3 -7 -5 -2 -5 12 0 14 2
19 5 13 2 -7 2 -19 0 -25z"/>
<path d="M850 4010 c18 -12 30 -13 30 -2 0 4 -10 9 -22 9 -18 2 -20 0 -8 -7z"/>
<path d="M910 4009 c0 -5 5 -7 10 -4 6 3 10 8 10 11 0 2 -4 4 -10 4 -5 0 -10
-5 -10 -11z"/>
<path d="M2947 4005 c3 -8 9 -12 14 -9 12 7 11 11 -5 17 -10 4 -13 1 -9 -8z"/>
<path d="M3371 4015 c1 -19 18 -51 18 -35 0 8 -4 22 -9 30 -5 8 -9 11 -9 5z"/>
<path d="M3296 3924 c-4 -14 -5 -28 -3 -31 3 -2 8 8 11 23 4 14 5 28 3 31 -3
2 -8 -8 -11 -23z"/>
<path d="M3328 3873 c-27 -8 -48 -18 -48 -23 0 -4 21 0 48 10 26 9 54 20 62
23 33 12 -15 5 -62 -10z"/>
<path d="M1130 3840 c0 -5 5 -10 10 -10 6 0 10 5 10 10 0 6 -4 10 -10 10 -5 0
-10 -4 -10 -10z"/>
<path d="M973 3798 c-25 -8 -33 -17 -33 -34 0 -32 9 -30 49 11 36 37 35 39
-16 23z"/>
<path d="M594 3775 c1 -18 -4 -20 -59 -18 -40 1 -53 -1 -40 -6 11 -5 33 -23
49 -40 l30 -31 -37 0 c-40 0 -50 -14 -17 -23 22 -6 27 -41 8 -54 -7 -4 -26 -6
-42 -4 -40 4 -25 -13 29 -33 32 -13 45 -23 45 -37 0 -19 -18 -24 -62 -20 -13
2 -18 -5 -18 -23 0 -22 -5 -26 -27 -26 -24 0 -25 -2 -13 -14 21 -21 81 -25
107 -8 13 8 21 17 18 21 -2 4 2 8 10 8 11 0 13 -9 9 -36 -4 -28 0 -44 20 -73
19 -29 22 -38 11 -38 -8 0 -15 -7 -15 -16 0 -11 5 -14 16 -10 9 3 21 6 29 6 7
0 15 9 18 20 3 13 0 20 -9 20 -26 0 -54 39 -54 75 0 26 9 45 35 74 21 23 32
42 25 46 -5 3 -10 2 -10 -3 0 -5 -11 -7 -24 -5 -28 6 -59 64 -38 71 9 3 9 9 1
25 -15 27 10 47 58 45 20 -1 39 5 44 13 5 9 9 -13 9 -61 l1 -75 20 25 21 24
-7 -34 c-8 -46 8 -86 52 -126 33 -31 35 -35 24 -65 -14 -40 -15 -169 -1 -169
6 0 10 -7 10 -15 0 -10 -10 -15 -33 -15 -45 0 -57 -14 -46 -55 26 -92 26 -397
1 -428 -13 -15 -1 -39 19 -35 9 2 13 -6 13 -24 -1 -16 4 -28 10 -28 8 0 11 13
8 34 -2 18 1 37 7 40 15 10 14 26 -2 26 -10 0 -6 22 14 83 35 108 49 317 21
317 -9 0 -23 4 -30 9 -12 7 -12 12 -1 30 8 11 20 21 27 21 7 0 20 6 27 14 12
12 12 16 0 26 -10 9 -15 32 -15 76 0 59 11 87 25 64 4 -6 10 -8 15 -5 4 3 11
-12 16 -33 7 -33 8 -29 14 43 4 44 10 94 14 111 6 29 5 32 -23 37 -38 8 -71
58 -71 106 0 28 9 43 46 78 38 36 45 49 42 75 -5 47 -28 48 -28 2 0 -29 -7
-44 -35 -70 -18 -19 -38 -34 -44 -34 -5 0 -24 -12 -42 -27 -31 -27 -32 -27
-24 -4 5 16 3 26 -6 32 -11 6 -11 11 -1 21 14 14 16 54 2 63 -5 3 -10 12 -10
19 0 10 16 13 55 12 30 0 55 2 55 5 0 8 -91 19 -181 22 -60 3 -65 1 -65 -18z
m96 -18 c0 -9 -11 -12 -37 -8 l-38 5 35 7 c19 3 36 7 38 8 1 0 2 -5 2 -12z
m126 -167 c2 -43 36 -103 68 -118 17 -7 16 -10 -14 -24 -89 -43 -161 72 -94
151 14 17 29 31 33 31 3 0 7 -18 7 -40z m-299 -122 c-3 -8 -6 -5 -6 6 -1 11 2
17 5 13 3 -3 4 -12 1 -19z"/>
<path d="M628 3643 c-10 -2 -18 -9 -18 -15 0 -5 7 -7 16 -4 9 3 20 6 25 6 5 0
9 5 9 10 0 10 -3 11 -32 3z"/>
<path d="M676 3637 c3 -10 9 -15 12 -12 3 3 0 11 -7 18 -10 9 -11 8 -5 -6z"/>
<path d="M468 3633 c7 -3 16 -2 19 1 4 3 -2 6 -13 5 -11 0 -14 -3 -6 -6z"/>
<path d="M1073 3578 c-7 -8 -11 -17 -8 -20 3 -3 -5 -29 -19 -59 -15 -35 -25
-79 -28 -126 -2 -40 -2 -73 -1 -73 2 0 11 8 21 18 14 14 21 41 26 112 4 51 12
102 17 112 6 11 9 26 7 35 -3 14 -4 14 -15 1z"/>
<path d="M991 3531 c-8 -5 -9 -11 -3 -15 5 -3 12 1 16 9 6 17 6 18 -13 6z"/>
<path d="M966 3451 c-20 -63 -22 -151 -2 -151 11 0 15 22 18 98 2 53 3 98 2
100 -1 1 -9 -20 -18 -47z"/>
<path d="M4160 3490 c0 -5 4 -10 9 -10 6 0 13 5 16 10 3 6 -1 10 -9 10 -9 0
-16 -4 -16 -10z"/>
<path d="M746 3308 c-9 -36 -7 -96 4 -103 6 -4 10 18 10 59 0 69 -4 81 -14 44z"/>
<path d="M1023 3275 c-9 -10 -8 -16 6 -29 23 -21 31 -20 31 3 0 27 -22 42 -37
26z"/>
<path d="M692 3260 c0 -14 2 -19 5 -12 2 6 2 18 0 25 -3 6 -5 1 -5 -13z"/>
<path d="M958 3247 c-12 -9 -14 -17 -7 -30 15 -27 30 -20 27 13 -1 17 -2 30
-3 30 0 0 -7 -6 -17 -13z"/>
<path d="M650 3121 c0 -4 11 -6 25 -3 14 2 25 6 25 8 0 2 -11 4 -25 4 -14 0
-25 -4 -25 -9z"/>
<path d="M276 3113 c-12 -12 -6 -33 9 -33 8 0 15 6 15 14 0 17 -14 28 -24 19z"/>
<path d="M375 3080 c4 -6 11 -8 16 -5 14 9 11 15 -7 15 -8 0 -12 -5 -9 -10z"/>
<path d="M270 3030 c0 -11 6 -20 13 -20 8 0 7 -3 -3 -10 -19 -12 -8 -22 14
-14 10 4 15 13 12 21 -3 8 -6 21 -6 29 0 8 -7 14 -15 14 -8 0 -15 -9 -15 -20z"/>
<path d="M378 3023 c7 -3 16 -2 19 1 4 3 -2 6 -13 5 -11 0 -14 -3 -6 -6z"/>
<path d="M4556 2998 c5 -13 8 -34 7 -47 -1 -18 1 -21 8 -10 7 10 9 6 8 -16 -4
-53 0 -65 17 -58 19 7 14 61 -11 119 -16 38 -41 48 -29 12z"/>
<path d="M4599 3007 c6 -8 15 -47 21 -87 14 -97 24 -105 17 -13 -6 74 -19 113
-39 113 -7 0 -7 -4 1 -13z"/>
<path d="M267 2813 c3 -128 11 -170 27 -144 4 6 3 11 -3 11 -6 0 -4 18 4 48
24 78 14 214 -16 220 -13 2 -15 -15 -12 -135z"/>
<path d="M3560 2895 c-56 -13 -102 -51 -80 -65 16 -10 8 -74 -10 -82 -9 -4 1
-7 23 -7 l38 -1 -2 55 c-2 42 -6 55 -18 55 -14 0 -14 1 -1 10 8 5 34 10 58 10
29 0 45 5 49 15 8 23 4 23 -57 10z"/>
<path d="M2012 2808 c-10 -38 -6 -71 5 -40 3 6 9 10 14 6 5 -3 9 11 9 30 0 50
-16 53 -28 4z"/>
<path d="M1046 2735 c-3 -8 -1 -15 4 -15 6 0 10 7 10 15 0 8 -2 15 -4 15 -2 0
-6 -7 -10 -15z"/>
<path d="M2303 2743 c9 -2 23 -2 30 0 6 3 -1 5 -18 5 -16 0 -22 -2 -12 -5z"/>
<path d="M1030 2680 c0 -11 6 -20 13 -20 9 0 8 -3 -2 -9 -11 -7 -11 -9 0 -14
10 -4 10 -6 2 -6 -15 -1 -18 -41 -4 -41 13 0 21 27 21 71 0 28 -4 39 -15 39
-8 0 -15 -9 -15 -20z"/>
<path d="M740 2620 c0 -11 5 -20 10 -20 6 0 10 9 10 20 0 11 -4 20 -10 20 -5
0 -10 -9 -10 -20z"/>
<path d="M962 2610 c0 -14 2 -19 5 -12 2 6 2 18 0 25 -3 6 -5 1 -5 -13z"/>
<path d="M2110 2610 c-13 -8 -12 -10 3 -10 9 0 17 5 17 10 0 12 -1 12 -20 0z"/>
<path d="M3317 2599 c3 -11 0 -25 -6 -33 -9 -11 -5 -15 20 -20 43 -8 52 1 32
34 -20 34 -53 48 -46 19z"/>
<path d="M880 2600 c0 -5 5 -10 10 -10 6 0 10 5 10 10 0 6 -4 10 -10 10 -5 0
-10 -4 -10 -10z"/>
<path d="M3497 2594 c4 -10 -1 -22 -11 -29 -15 -11 -14 -14 15 -24 17 -6 35
-8 40 -5 15 9 10 44 -6 44 -8 0 -15 7 -15 15 0 8 -7 15 -15 15 -9 0 -12 -6 -8
-16z"/>
<path d="M3684 2583 c-3 -10 -9 -26 -14 -35 -7 -13 -3 -18 20 -26 33 -12 57 6
46 35 -6 15 -8 15 -16 3 -8 -12 -10 -11 -10 7 0 28 -18 40 -26 16z"/>
<path d="M643 2552 c-16 -21 -20 -40 -18 -76 2 -26 5 -49 8 -52 2 -3 17 -2 32
2 15 4 23 9 17 13 -32 21 -41 84 -16 119 22 32 1 27 -23 -6z"/>
<path d="M3439 2490 c-4 -47 -3 -105 1 -130 4 -25 8 -35 9 -23 1 16 6 21 16
17 8 -4 22 -1 30 6 8 7 22 9 31 6 9 -4 23 -1 30 5 15 12 20 54 5 45 -13 -9
-32 19 -25 38 4 12 0 16 -15 16 -12 0 -21 -5 -21 -11 0 -6 -7 -3 -16 5 -8 9
-20 14 -24 11 -5 -3 -10 18 -12 47 -3 46 -4 42 -9 -32z m41 -75 c0 -16 -6 -25
-15 -25 -9 0 -15 9 -15 25 0 16 6 25 15 25 9 0 15 -9 15 -25z"/>
<path d="M1875 2540 c3 -5 10 -10 16 -10 5 0 9 5 9 10 0 6 -7 10 -16 10 -8 0
-12 -4 -9 -10z"/>
<path d="M4772 2536 c7 -8 15 -12 17 -11 5 6 -10 25 -20 25 -5 0 -4 -6 3 -14z"/>
<path d="M1777 2517 c-13 -21 -35 -98 -24 -87 2 3 16 29 31 58 26 52 22 72 -7
29z"/>
<path d="M751 2506 c-13 -16 2 -32 19 -21 6 3 10 1 10 -5 0 -6 5 -8 11 -4 8 4
4 11 -11 19 -17 9 -19 14 -9 18 8 3 9 6 3 6 -6 1 -17 -5 -23 -13z"/>
<path d="M827 2499 c7 -7 15 -10 18 -7 3 3 -2 9 -12 12 -14 6 -15 5 -6 -5z"/>
<path d="M2130 2500 c-8 -5 -12 -11 -9 -14 9 -9 79 6 73 15 -7 12 -45 11 -64
-1z"/>
<path d="M1873 2481 c-3 -11 -11 -17 -18 -15 -17 7 -36 -69 -25 -104 14 -49
22 -62 32 -56 5 3 8 0 7 -7 -1 -8 1 -22 6 -32 4 -10 5 -20 2 -24 -3 -3 0 -11
7 -18 13 -14 106 -25 106 -13 0 5 9 8 20 8 27 0 25 6 -14 41 -19 16 -40 46
-46 65 -11 33 -12 33 -28 16 -9 -10 -14 -13 -11 -7 8 13 7 45 -1 45 -4 0 -5
14 -2 30 3 18 0 30 -7 30 -6 0 -11 -7 -11 -15 0 -8 -5 -15 -10 -15 -7 0 -7 7
0 20 6 11 8 24 6 29 -3 5 1 11 9 15 20 7 19 26 -1 26 -9 0 -18 -9 -21 -19z
m16 -119 c0 -24 -1 -25 -9 -7 -12 28 -12 47 0 40 6 -3 10 -18 9 -33z m51 -56
c0 -3 -4 -8 -10 -11 -5 -3 -10 -1 -10 4 0 6 5 11 10 11 6 0 10 -2 10 -4z"/>
<path d="M4620 2485 c0 -8 5 -15 10 -15 6 0 10 7 10 15 0 8 -4 15 -10 15 -5 0
-10 -7 -10 -15z"/>
<path d="M1920 2461 c0 -14 5 -18 19 -14 31 8 35 33 6 33 -18 0 -25 -5 -25
-19z"/>
<path d="M2120 2451 c0 -22 55 -27 64 -6 4 12 -3 15 -29 15 -19 0 -35 -4 -35
-9z"/>
<path d="M2948 2409 c-54 -73 -62 -154 -23 -238 14 -29 19 -49 12 -42 -18 14
-44 77 -52 122 l-6 37 -72 5 c-39 3 -85 8 -102 12 -18 4 -25 3 -18 -2 7 -5 13
-41 15 -88 2 -44 7 -80 13 -81 52 -3 255 -39 255 -46 0 -4 5 -8 10 -8 19 0 10
42 -15 71 -58 70 -59 181 -2 246 11 12 17 27 15 34 -3 8 -15 -1 -30 -22z"/>
<path d="M750 2420 l-25 -8 25 0 c14 0 34 3 45 8 l20 9 -20 -1 c-11 0 -31 -4
-45 -8z"/>
<path d="M1730 2421 c0 -5 5 -13 10 -16 6 -3 10 -2 10 4 0 5 -4 13 -10 16 -5
3 -10 2 -10 -4z"/>
<path d="M340 2366 c0 -24 -3 -65 -6 -92 -4 -40 -3 -46 7 -30 9 15 13 16 20 5
6 -10 9 -8 9 8 0 12 -4 23 -9 25 -4 2 -5 26 -2 54 7 55 5 74 -10 74 -5 0 -9
-20 -9 -44z"/>
<path d="M4550 2384 c0 -24 1 -25 21 -13 28 19 29 33 2 37 -19 3 -23 -1 -23
-24z"/>
<path d="M128 2373 c7 -3 16 -2 19 1 4 3 -2 6 -13 5 -11 0 -14 -3 -6 -6z"/>
<path d="M4560 2289 c0 -5 5 -7 10 -4 6 3 10 8 10 11 0 2 -4 4 -10 4 -5 0 -10
-5 -10 -11z"/>
<path d="M929 2248 c0 -24 -4 -84 -7 -135 -4 -51 -3 -88 2 -83 4 4 11 38 14
75 5 64 6 67 28 62 16 -3 24 0 24 9 0 8 -9 14 -20 14 -17 0 -20 7 -20 50 0 61
-20 68 -21 8z"/>
<path d="M2657 2283 c-4 -3 -7 -38 -7 -76 0 -39 3 -67 8 -63 5 6 11 146 6 146
0 0 -4 -3 -7 -7z"/>
<path d="M975 2270 c3 -5 8 -10 11 -10 2 0 4 5 4 10 0 6 -5 10 -11 10 -5 0 -7
-4 -4 -10z"/>
<path d="M741 2261 c-14 -4 -26 -12 -29 -19 -6 -19 45 -15 52 4 8 21 6 22 -23
15z"/>
<path d="M2080 2259 c0 -5 5 -7 10 -4 6 3 10 8 10 11 0 2 -4 4 -10 4 -5 0 -10
-5 -10 -11z"/>
<path d="M2110 2232 c-6 -2 -7 -8 -4 -14 3 -5 -2 -16 -12 -23 -17 -13 -9 -14
68 -15 88 0 110 8 83 30 -8 7 -13 15 -11 19 5 7 -104 9 -124 3z"/>
<path d="M870 2205 c-10 -12 -10 -15 4 -15 9 0 16 7 16 15 0 8 -2 15 -4 15 -2
0 -9 -7 -16 -15z"/>
<path d="M1020 2205 c0 -8 4 -15 10 -15 5 0 7 7 4 15 -4 8 -8 15 -10 15 -2 0
-4 -7 -4 -15z"/>
<path d="M1050 2191 c0 -12 -5 -21 -11 -21 -5 0 -8 -4 -4 -9 3 -6 -3 -14 -12
-20 -17 -10 -17 -10 1 -11 33 0 62 59 36 75 -5 3 -10 -3 -10 -14z"/>
<path d="M123 2183 c9 -2 23 -2 30 0 6 3 -1 5 -18 5 -16 0 -22 -2 -12 -5z"/>
<path d="M240 2140 c0 -22 3 -40 8 -40 4 0 6 18 4 40 -2 22 -6 40 -8 40 -2 0
-4 -18 -4 -40z"/>
<path d="M3483 2132 c-37 -4 -39 -7 -18 -28 8 -9 15 -31 15 -50 0 -32 2 -34
34 -34 44 0 66 24 43 47 -15 15 -16 15 -10 -5 4 -16 1 -22 -10 -22 -12 0 -17
12 -19 48 -3 47 -3 47 -35 44z"/>
<path d="M1767 2088 c-2 -13 -5 -47 -6 -77 -1 -30 -4 -58 -7 -63 -3 -4 -3 -8
0 -8 3 0 18 17 34 38 23 32 27 47 24 85 -3 37 -8 47 -22 47 -10 0 -20 -9 -23
-22z"/>
<path d="M1820 2063 l0 -36 24 22 c27 25 24 51 -5 51 -15 0 -19 -7 -19 -37z"/>
<path d="M1939 2069 c20 -8 22 -14 17 -40 -3 -17 -6 -42 -6 -56 0 -14 -4 -21
-10 -18 -5 3 -10 3 -11 -2 0 -4 -2 -17 -4 -28 -3 -19 -3 -19 9 -2 7 9 16 17
20 17 13 0 5 -21 -15 -41 -11 -11 -19 -23 -16 -25 2 -3 22 16 43 41 22 26 51
60 67 77 18 21 24 34 16 38 -6 4 -10 11 -9 16 0 5 -23 14 -52 21 -63 14 -82
15 -49 2z"/>
<path d="M2847 2057 c-7 -19 12 -27 64 -27 42 0 51 13 19 30 -11 6 -20 7 -20
2 0 -12 -43 -13 -51 -1 -4 7 -8 5 -12 -4z"/>
<path d="M1860 2022 c6 -13 14 -21 18 -18 3 4 -2 14 -12 24 -18 16 -18 16 -6
-6z"/>
<path d="M2136 1993 c-3 -21 -8 -85 -11 -143 -5 -96 -5 -103 10 -86 8 11 15
23 15 27 0 5 11 20 26 34 14 14 22 30 19 35 -3 6 1 10 9 10 9 0 16 4 16 8 0 5
15 26 33 48 39 45 43 72 13 79 -64 15 -112 25 -118 25 -3 0 -9 -17 -12 -37z"/>
<path d="M3513 2003 c9 -2 25 -2 35 0 9 3 1 5 -18 5 -19 0 -27 -2 -17 -5z"/>
<path d="M1842 1984 c-7 -8 -11 -18 -8 -23 3 -4 -6 -13 -21 -20 -35 -16 -24
-24 22 -15 27 5 35 10 30 22 -4 12 -3 13 10 2 20 -17 19 0 -3 27 -15 19 -19
20 -30 7z"/>
<path d="M3440 1991 c0 -5 9 -7 20 -4 11 3 20 7 20 9 0 2 -9 4 -20 4 -11 0
-20 -4 -20 -9z"/>
<path d="M3588 1983 c7 -3 16 -2 19 1 4 3 -2 6 -13 5 -11 0 -14 -3 -6 -6z"/>
<path d="M6177 1964 c-4 -23 -2 -25 22 -19 36 9 39 14 17 31 -27 20 -33 18
-39 -12z"/>
<path d="M3688 1973 c7 -3 16 -2 19 1 4 3 -2 6 -13 5 -11 0 -14 -3 -6 -6z"/>
<path d="M2050 1945 c0 -18 -5 -25 -19 -25 -14 0 -18 -5 -14 -19 4 -16 -2 -22
-28 -29 -33 -10 -33 -10 14 -9 26 1 47 5 47 9 0 4 6 5 14 2 11 -4 12 3 6 35
-9 49 -5 52 14 9 9 -21 15 -27 15 -15 1 24 -15 53 -34 61 -11 4 -15 -1 -15
-19z"/>
<path d="M2300 1884 c0 -16 -5 -36 -10 -44 -8 -12 -10 -8 -11 15 -1 17 -3 22
-6 13 -2 -10 -11 -18 -19 -18 -11 0 -13 -6 -9 -20 5 -15 -1 -23 -27 -34 -18
-8 -27 -15 -20 -15 7 -1 27 6 45 16 25 12 29 13 20 2 -10 -13 -7 -14 21 -11
19 2 37 -1 40 -7 10 -16 33 -13 33 4 0 8 -4 12 -8 9 -17 -10 -39 29 -37 67 1
21 -2 42 -5 46 -4 3 -7 -7 -7 -23z"/>
<path d="M3319 1898 c-7 -32 -3 -78 7 -78 7 0 19 -3 28 -6 26 -10 31 25 7 47
-11 11 -21 24 -21 29 0 8 -19 15 -21 8z"/>
<path d="M3488 1858 c-25 -9 -26 -11 -13 -24 11 -11 12 -20 5 -34 -8 -14 -5
-19 13 -24 12 -3 27 -6 33 -6 17 0 26 29 14 48 -8 14 -9 14 -10 2 0 -13 -1
-13 -10 0 -13 20 -13 33 0 25 6 -3 10 -2 10 4 0 16 -13 19 -42 9z"/>
<path d="M1030 1799 c0 -5 5 -7 10 -4 6 3 10 8 10 11 0 2 -4 4 -10 4 -5 0 -10
-5 -10 -11z"/>
<path d="M3100 1800 c0 -5 14 -10 30 -10 17 0 30 5 30 10 0 6 -13 10 -30 10
-16 0 -30 -4 -30 -10z"/>
<path d="M4163 1793 c9 -2 23 -2 30 0 6 3 -1 5 -18 5 -16 0 -22 -2 -12 -5z"/>
<path d="M3433 1703 c-13 -44 0 -124 21 -118 6 2 20 6 31 11 11 4 29 6 41 5
11 -1 28 7 38 18 16 18 17 24 6 51 -7 17 -19 34 -28 39 -17 10 -52 3 -52 -10
0 -14 -39 13 -42 29 -2 7 -8 -4 -15 -25z m42 -44 c9 -28 -8 -45 -25 -25 -13
17 -7 46 9 46 5 0 13 -9 16 -21z"/>
<path d="M4193 1725 c-3 -9 -3 -18 -1 -21 3 -3 8 4 11 16 6 23 -1 27 -10 5z"/>
<path d="M4156 1713 c-6 -14 -5 -15 5 -6 7 7 10 15 7 18 -3 3 -9 -2 -12 -12z"/>
<path d="M3040 1694 c16 -41 12 -54 -15 -54 -29 0 -33 -15 -8 -28 15 -9 13
-13 -16 -30 -37 -23 -27 -37 19 -27 16 4 31 5 33 3 8 -7 36 25 31 36 -3 6 8
-5 24 -24 17 -19 34 -32 37 -28 11 10 -4 60 -15 53 -6 -4 -11 9 -11 29 -1 20
-2 41 -3 46 -2 16 -20 13 -26 -5 -4 -12 -10 -7 -23 19 -20 42 -42 50 -27 10z"/>
<path d="M4504 1689 c-3 -6 1 -18 10 -27 10 -11 16 -12 16 -4 0 7 -4 12 -10
12 -5 0 -10 5 -10 11 0 5 5 7 10 4 6 -3 10 -1 10 4 0 14 -17 14 -26 0z"/>
<path d="M4510 1630 c-13 -8 -12 -10 3 -10 9 0 17 5 17 10 0 12 -1 12 -20 0z"/>
<path d="M4560 1604 c0 -23 2 -24 15 -10 8 8 15 19 15 25 0 6 -7 11 -15 11 -9
0 -15 -10 -15 -26z"/>
<path d="M2890 1550 c0 -5 9 -10 20 -10 11 0 20 5 20 10 0 6 -9 10 -20 10 -11
0 -20 -4 -20 -10z"/>
<path d="M300 1530 c0 -5 5 -10 10 -10 6 0 10 5 10 10 0 6 -4 10 -10 10 -5 0
-10 -4 -10 -10z"/>
<path d="M3025 1510 c-3 -5 -1 -10 4 -10 6 0 11 5 11 10 0 6 -2 10 -4 10 -3 0
-8 -4 -11 -10z"/>
<path d="M4210 1380 c0 -11 0 -23 1 -27 1 -11 -31 -24 -43 -17 -7 4 -8 3 -4
-4 4 -7 21 -12 39 -12 l31 0 -33 -28 c-25 -21 -34 -37 -35 -60 -1 -19 3 -31
10 -28 11 4 11 -25 -2 -152 -5 -59 -4 -75 8 -85 25 -20 29 -45 9 -59 -23 -16
-31 -82 -13 -100 17 -17 15 -63 -3 -78 -8 -7 -16 -29 -16 -49 -2 -33 -2 -34
-6 -6 -3 16 -16 40 -30 53 -20 18 -24 29 -19 52 4 23 1 32 -14 40 -29 16 -33
13 -26 -24 4 -18 0 -98 -9 -177 -8 -79 -15 -185 -15 -236 0 -79 2 -92 15 -87
9 4 33 -5 55 -20 47 -31 52 -31 74 -7 16 17 16 20 -1 49 -15 27 -16 35 -5 53
16 26 7 36 -33 41 -23 2 -35 12 -50 40 -11 20 -17 40 -13 43 8 8 46 -11 76
-38 16 -15 22 -17 22 -6 0 9 3 10 8 3 4 -6 16 -16 27 -22 18 -10 18 -11 2 -12
-10 0 -16 -4 -12 -9 3 -6 19 -8 35 -6 19 2 27 -1 24 -8 -6 -17 111 -137 133
-137 11 0 28 7 39 15 19 15 19 15 -4 35 -53 44 24 55 102 14 37 -20 54 -24 70
-16 21 9 21 9 1 16 -12 3 -33 31 -50 66 -26 50 -34 59 -55 57 -20 -2 -32 9
-64 57 -22 33 -42 54 -44 48 -2 -7 -8 -12 -13 -12 -6 0 -7 5 -4 10 3 6 -4 10
-17 10 -18 0 -20 -2 -8 -10 8 -5 11 -10 5 -11 -5 0 1 -4 15 -8 20 -5 26 -14
28 -43 3 -31 0 -37 -20 -41 l-23 -4 23 -2 c12 0 22 -5 22 -11 0 -19 -24 -60
-35 -60 -20 0 -37 28 -30 50 4 14 2 20 -9 20 -8 0 -18 5 -21 10 -4 7 3 9 22 5
24 -5 25 -5 10 5 -10 7 -27 10 -38 7 -11 -3 -38 2 -60 11 l-40 17 6 135 c3 74
10 200 15 280 5 80 12 199 15 265 3 66 8 132 10 148 3 18 0 27 -9 27 -9 0 -12
8 -8 25 2 15 0 25 -7 25 -6 0 -11 -9 -11 -20z m-52 -766 c2 -11 -4 -27 -13
-34 -14 -11 -19 -10 -37 7 -28 28 -17 55 19 51 19 -2 29 -9 31 -24z"/>
<path d="M3088 1363 c7 -3 16 -2 19 1 4 3 -2 6 -13 5 -11 0 -14 -3 -6 -6z"/>
<path d="M1990 1310 c0 -5 7 -7 15 -4 8 4 15 8 15 10 0 2 -7 4 -15 4 -8 0 -15
-4 -15 -10z"/>
<path d="M2490 1299 c0 -5 5 -7 10 -4 6 3 10 8 10 11 0 2 -4 4 -10 4 -5 0 -10
-5 -10 -11z"/>
<path d="M2778 1253 c6 -2 18 -2 25 0 6 3 1 5 -13 5 -14 0 -19 -2 -12 -5z"/>
<path d="M4030 1185 c0 -30 5 -55 10 -55 6 0 10 25 10 55 0 30 -4 55 -10 55
-5 0 -10 -25 -10 -55z"/>
<path d="M5790 1169 c0 -4 -8 -10 -17 -12 -12 -3 -10 -5 7 -6 14 0 33 6 43 13
16 12 15 14 -8 14 -14 0 -25 -4 -25 -9z"/>
<path d="M4026 1068 c-9 -34 -7 -76 3 -82 11 -7 21 85 11 97 -4 5 -10 -2 -14
-15z"/>
<path d="M5257 1043 c-15 -14 -6 -24 20 -21 34 4 43 28 11 28 -14 0 -28 -3
-31 -7z"/>
<path d="M4022 909 c1 -12 9 -24 16 -27 9 -3 13 3 10 19 -1 12 -9 24 -16 27
-9 3 -13 -3 -10 -19z"/>
<path d="M742 878 c3 -7 13 -15 23 -17 17 -3 17 -2 3 13 -20 19 -31 21 -26 4z"/>
<path d="M4020 845 c0 -8 7 -15 16 -15 14 0 14 3 4 15 -7 8 -14 15 -16 15 -2
0 -4 -7 -4 -15z"/>
<path d="M677 833 c-13 -12 -7 -21 11 -18 9 2 22 4 27 4 6 1 3 6 -5 11 -18 12
-24 12 -33 3z"/>
<path d="M3102 810 c0 -14 2 -19 5 -12 2 6 2 18 0 25 -3 6 -5 1 -5 -13z"/>
<path d="M575 780 c-3 -5 -1 -10 4 -10 6 0 11 5 11 10 0 6 -2 10 -4 10 -3 0
-8 -4 -11 -10z"/>
<path d="M4017 783 c-13 -12 -7 -61 7 -66 20 -8 26 2 26 40 0 31 -16 44 -33
26z"/>
<path d="M4245 718 c-3 -18 -7 -55 -9 -83 -2 -27 -7 -58 -11 -67 -6 -14 -2
-18 15 -18 19 0 21 4 16 25 -4 14 -3 31 1 38 4 7 8 30 9 52 0 22 4 50 8 63 5
16 3 22 -8 22 -9 0 -17 -13 -21 -32z"/>
<path d="M793 659 c30 -18 57 -19 50 -3 -3 8 -18 14 -37 14 -26 -1 -28 -2 -13
-11z"/>
<path d="M875 590 c3 -5 13 -10 21 -10 8 0 12 5 9 10 -3 6 -13 10 -21 10 -8 0
-12 -4 -9 -10z"/>
<path d="M1190 556 c0 -9 7 -16 16 -16 17 0 14 22 -4 28 -7 2 -12 -3 -12 -12z"/>
<path d="M873 553 c9 -2 25 -2 35 0 9 3 1 5 -18 5 -19 0 -27 -2 -17 -5z"/>
<path d="M4280 549 c0 -5 5 -7 10 -4 6 3 10 8 10 11 0 2 -4 4 -10 4 -5 0 -10
-5 -10 -11z"/>
<path d="M4315 540 c3 -5 8 -10 11 -10 2 0 4 5 4 10 0 6 -5 10 -11 10 -5 0 -7
-4 -4 -10z"/>
<path d="M1150 532 c-39 -4 -60 -17 -60 -39 0 -22 28 -26 64 -9 19 9 38 16 43
16 13 0 63 -53 77 -82 9 -17 19 -22 39 -20 21 3 31 -3 46 -29 20 -32 20 -33
-1 -62 -19 -27 -24 -28 -64 -22 -34 5 -44 3 -44 -7 0 -25 24 -48 57 -54 29 -6
34 -3 58 35 34 54 50 60 84 27 50 -48 73 -27 42 38 -14 31 -29 47 -51 54 -17
6 -34 22 -40 36 -6 18 -21 28 -52 36 -24 7 -52 20 -63 30 -35 31 -98 56 -135
52z"/>
<path d="M4010 451 c0 -33 5 -63 11 -66 7 -5 9 15 8 59 -3 82 -19 88 -19 7z"/>
<path d="M1105 406 c-10 -7 -15 -18 -11 -24 9 -14 75 -15 96 -2 8 5 12 10 9
10 -4 0 -22 7 -41 15 -29 12 -38 12 -53 1z"/>
<path d="M950 337 c0 -25 23 -42 41 -31 14 8 10 18 -16 37 -25 18 -25 18 -25
-6z"/>
<path d="M4735 350 c3 -5 18 -10 32 -10 32 0 22 13 -13 18 -16 2 -23 -1 -19
-8z"/>
<path d="M1200 345 c0 -17 22 -45 36 -45 25 0 13 44 -13 48 -13 2 -23 1 -23
-3z"/>
<path d="M1103 325 c-34 -14 -43 -25 -20 -25 6 0 23 9 37 20 30 23 26 24 -17
5z"/>
<path d="M4006 324 c-3 -9 -6 -27 -6 -41 0 -21 2 -24 15 -13 8 7 15 25 15 41
0 31 -14 39 -24 13z"/>
<path d="M3977 287 c-11 -29 -9 -43 4 -30 6 6 9 19 7 29 -3 18 -4 18 -11 1z"/>
<path d="M3930 270 c0 -5 5 -10 11 -10 5 0 7 5 4 10 -3 6 -8 10 -11 10 -2 0
-4 -4 -4 -10z"/>
<path d="M1063 248 c2 -7 8 -13 13 -14 5 0 17 -4 27 -9 24 -10 33 1 17 20 -15
18 -64 21 -57 3z"/>
<path d="M3500 230 c0 -23 25 -27 33 -6 7 16 -1 26 -20 26 -7 0 -13 -9 -13
-20z"/>
<path d="M3807 221 c-7 -29 11 -51 43 -51 35 0 37 8 9 44 -24 30 -45 34 -52 7z"/>
<path d="M4065 230 c-3 -6 1 -13 10 -16 19 -8 30 0 20 15 -8 14 -22 14 -30 1z"/>
<path d="M3330 220 c0 -14 42 -35 65 -31 27 4 30 8 15 26 -14 16 -80 21 -80 5z"/>
<path d="M3195 190 c-3 -5 -3 -15 1 -21 6 -11 23 6 24 24 0 10 -18 9 -25 -3z"/>
<path d="M3610 191 c0 -6 5 -13 10 -16 6 -3 10 1 10 9 0 9 -4 16 -10 16 -5 0
-10 -4 -10 -9z"/>
<path d="M3373 148 c-13 -6 -23 -15 -23 -21 0 -5 10 -7 23 -3 12 3 25 6 30 6
4 0 7 7 7 15 0 17 -6 18 -37 3z"/>
<path d="M1595 140 c-3 -5 1 -10 9 -10 9 0 16 5 16 10 0 6 -4 10 -9 10 -6 0
-13 -4 -16 -10z"/>
<path d="M2070 135 c12 -15 30 -12 30 6 0 5 -10 9 -21 9 -18 0 -19 -2 -9 -15z"/>
<path d="M3219 132 c5 -10 17 -25 26 -32 14 -12 18 -11 26 1 6 10 3 19 -12 32
-29 24 -53 23 -40 -1z"/>
<path d="M3012 118 c-22 -22 -12 -36 28 -40 44 -4 52 8 22 35 -22 20 -34 21
-50 5z"/>
<path d="M1495 110 c3 -5 21 -10 40 -10 19 0 37 5 40 10 4 6 -12 10 -40 10
-28 0 -44 -4 -40 -10z"/>
<path d="M2834 84 c3 -9 6 -20 6 -25 0 -12 27 -11 35 1 9 14 -13 40 -32 40
-10 0 -13 -6 -9 -16z"/>
<path d="M1298 53 c7 -3 16 -2 19 1 4 3 -2 6 -13 5 -11 0 -14 -3 -6 -6z"/>
<path d="M2660 30 c0 -5 7 -10 15 -10 8 0 15 5 15 10 0 6 -7 10 -15 10 -8 0
-15 -4 -15 -10z"/>
<path d="M2923 23 c-18 -6 -16 -23 1 -23 17 0 30 16 19 23 -5 2 -14 2 -20 0z"/>
</g>
</svg>
