<?xml version="1.0" encoding="UTF-8"?>
<!-- Generator: Adobe Illustrator 21.1.0, SVG Export Plug-In . SVG Version: 6.00 Build 0)  -->
<svg version="1.1" id="Слой_1" xmlns="http://www.w3.org/2000/svg" xmlns:xlink="http://www.w3.org/1999/xlink" x="0px" y="0px" viewBox="0 0 18.3 10.9" style="enable-background:new 0 0 18.3 10.9;" xml:space="preserve">
<style type="text/css">
	.st0{fill:#FCFEFC;}
	.st1{fill:#FC0204;}
	.st2{fill:#040285;}
	.st3{fill-rule:evenodd;clip-rule:evenodd;fill:#FFFFFF;}
</style>
<g>
	<rect x="0.1" y="0.1" class="st0" width="18.2" height="10.8"/>
	<rect x="0" y="0.1" class="st1" width="18.2" height="1"/>
	<rect x="0" y="1.9" class="st1" width="18.2" height="0.9"/>
	<rect x="0.1" y="3.5" class="st1" width="18.2" height="0.8"/>
	<rect x="0" y="10" class="st1" width="18.3" height="1"/>
	<rect x="0.1" y="8.4" class="st1" width="18.2" height="0.8"/>
	<rect x="0.1" y="6.7" class="st1" width="18.2" height="0.8"/>
	<rect y="5" class="st1" width="18.3" height="0.9"/>
	<rect class="st2" width="8.2" height="5.9"/>
	<g>
		<polygon class="st3" points="0.8,0.9 0.6,0.7 0.5,0.9 0.5,0.6 0.3,0.5 0.5,0.5 0.6,0.3 0.7,0.5 0.9,0.5 0.8,0.6   "/>
		<polygon class="st3" points="2.2,0.9 2,0.7 1.8,0.9 1.9,0.6 1.7,0.5 1.9,0.5 2,0.3 2.1,0.5 2.3,0.5 2.1,0.6   "/>
		<polygon class="st3" points="3.6,0.9 3.4,0.7 3.2,0.9 3.2,0.6 3.1,0.5 3.3,0.5 3.4,0.3 3.5,0.5 3.7,0.5 3.5,0.6   "/>
		<polygon class="st3" points="4.9,0.8 4.7,0.7 4.6,0.8 4.6,0.6 4.4,0.5 4.7,0.4 4.7,0.3 4.8,0.4 5,0.5 4.9,0.6   "/>
		<polygon class="st3" points="1.5,1.5 1.3,1.3 1.2,1.5 1.2,1.2 1,1.1 1.2,1.1 1.3,0.9 1.4,1.1 1.6,1.1 1.5,1.2   "/>
		<polygon class="st3" points="2.9,1.4 2.7,1.3 2.5,1.4 2.6,1.2 2.4,1.1 2.6,1.1 2.7,0.9 2.8,1.1 3,1.1 2.8,1.2   "/>
		<polygon class="st3" points="4.3,1.4 4.1,1.3 3.9,1.4 3.9,1.2 3.8,1.1 4,1.1 4.1,0.9 4.2,1.1 4.4,1.1 4.2,1.2   "/>
		<polygon class="st3" points="5.6,1.4 5.4,1.3 5.3,1.4 5.3,1.2 5.1,1 5.4,1 5.5,0.8 5.5,1 5.8,1 5.6,1.2   "/>
		<polygon class="st3" points="0.8,2.1 0.6,1.9 0.5,2.1 0.5,1.8 0.3,1.7 0.6,1.7 0.7,1.5 0.7,1.7 1,1.7 0.8,1.8   "/>
		<polygon class="st3" points="2.2,2 2,1.9 1.8,2 1.9,1.8 1.7,1.7 1.9,1.7 2,1.5 2.1,1.7 2.3,1.7 2.2,1.8   "/>
		<polygon class="st3" points="3.6,2 3.4,1.9 3.2,2 3.2,1.8 3.1,1.7 3.3,1.7 3.4,1.5 3.5,1.7 3.7,1.7 3.5,1.8   "/>
		<polygon class="st3" points="4.9,2 4.8,1.9 4.6,2 4.6,1.8 4.5,1.6 4.7,1.6 4.8,1.4 4.9,1.6 5.1,1.6 4.9,1.8   "/>
		<polygon class="st3" points="6.3,0.8 6.1,0.7 5.9,0.8 6,0.6 5.8,0.4 6,0.4 6.1,0.2 6.2,0.4 6.4,0.4 6.3,0.6   "/>
		<polygon class="st3" points="7.6,0.8 7.5,0.6 7.3,0.8 7.3,0.5 7.1,0.4 7.4,0.4 7.5,0.2 7.6,0.4 7.8,0.4 7.6,0.5   "/>
		<polygon class="st3" points="6.9,1.4 6.7,1.2 6.6,1.4 6.6,1.1 6.4,1 6.7,1 6.8,0.8 6.8,1 7.1,1 6.9,1.1   "/>
		<polygon class="st3" points="6.3,2 6.1,1.9 5.9,2 6,1.8 5.8,1.6 6,1.6 6.1,1.4 6.2,1.6 6.4,1.6 6.3,1.8   "/>
		<polygon class="st3" points="7.7,1.9 7.5,1.8 7.3,1.9 7.3,1.7 7.2,1.6 7.4,1.6 7.5,1.4 7.6,1.6 7.8,1.6 7.6,1.7   "/>
		<g>
			<polygon class="st3" points="1.5,2.6 1.3,2.5 1.2,2.6 1.2,2.4 1,2.3 1.2,2.3 1.3,2.1 1.4,2.3 1.6,2.3 1.5,2.4    "/>
			<polygon class="st3" points="2.9,2.6 2.7,2.5 2.5,2.6 2.6,2.4 2.4,2.3 2.6,2.2 2.7,2.1 2.8,2.2 3,2.3 2.8,2.4    "/>
			<polygon class="st3" points="4.3,2.6 4.1,2.5 3.9,2.6 3.9,2.4 3.8,2.2 4,2.2 4.1,2.1 4.2,2.2 4.4,2.2 4.2,2.4    "/>
			<polygon class="st3" points="5.6,2.6 5.4,2.5 5.3,2.6 5.3,2.3 5.1,2.2 5.4,2.2 5.4,2 5.5,2.2 5.7,2.2 5.6,2.3    "/>
			<polygon class="st3" points="7,2.6 6.8,2.4 6.6,2.6 6.7,2.3 6.5,2.2 6.7,2.2 6.8,2 6.9,2.2 7.1,2.2 7,2.3    "/>
		</g>
		<g>
			<polygon class="st3" points="0.8,3.2 0.7,3.1 0.5,3.2 0.5,3 0.4,2.9 0.6,2.9 0.7,2.7 0.8,2.9 1,2.9 0.8,3    "/>
			<polygon class="st3" points="2.2,3.2 2,3.1 1.9,3.2 1.9,3 1.7,2.9 1.9,2.9 2,2.7 2.1,2.9 2.3,2.9 2.2,3    "/>
			<polygon class="st3" points="3.6,3.2 3.4,3.1 3.2,3.2 3.3,3 3.1,2.9 3.3,2.8 3.4,2.7 3.5,2.8 3.7,2.9 3.6,3    "/>
			<polygon class="st3" points="5,3.2 4.8,3.1 4.6,3.2 4.6,3 4.5,2.8 4.7,2.8 4.8,2.6 4.9,2.8 5.1,2.8 4.9,3    "/>
			<polygon class="st3" points="6.3,3.2 6.1,3.1 6,3.2 6,3 5.8,2.8 6.1,2.8 6.2,2.6 6.2,2.8 6.5,2.8 6.3,3    "/>
		</g>
		<g>
			<polygon class="st3" points="1.6,3.8 1.4,3.7 1.2,3.8 1.2,3.6 1.1,3.4 1.3,3.4 1.4,3.2 1.5,3.4 1.7,3.4 1.5,3.6    "/>
			<polygon class="st3" points="2.9,3.8 2.7,3.6 2.6,3.8 2.6,3.5 2.4,3.4 2.7,3.4 2.7,3.2 2.8,3.4 3,3.4 2.9,3.5    "/>
			<polygon class="st3" points="4.3,3.8 4.1,3.6 3.9,3.8 4,3.5 3.8,3.4 4,3.4 4.1,3.2 4.2,3.4 4.4,3.4 4.3,3.5    "/>
			<polygon class="st3" points="5.7,3.7 5.5,3.6 5.3,3.7 5.3,3.5 5.2,3.4 5.4,3.4 5.5,3.2 5.6,3.4 5.8,3.4 5.6,3.5    "/>
			<polygon class="st3" points="7,3.7 6.8,3.6 6.7,3.7 6.7,3.5 6.5,3.4 6.8,3.4 6.9,3.2 6.9,3.4 7.2,3.4 7,3.5    "/>
		</g>
		<g>
			<polygon class="st3" points="0.9,4.4 0.7,4.3 0.5,4.4 0.5,4.2 0.4,4 0.6,4 0.7,3.8 0.8,4 1,4 0.8,4.2    "/>
			<polygon class="st3" points="2.2,4.4 2,4.2 1.9,4.4 1.9,4.1 1.7,4 2,4 2,3.8 2.1,4 2.3,4 2.2,4.1    "/>
			<polygon class="st3" points="3.6,4.4 3.4,4.2 3.2,4.4 3.3,4.1 3.1,4 3.3,4 3.4,3.8 3.5,4 3.7,4 3.6,4.1    "/>
			<polygon class="st3" points="5,4.3 4.8,4.2 4.6,4.3 4.6,4.1 4.5,4 4.7,4 4.8,3.8 4.9,4 5.1,4 4.9,4.1    "/>
			<polygon class="st3" points="6.3,4.3 6.1,4.2 6,4.3 6,4.1 5.8,4 6.1,4 6.2,3.8 6.2,4 6.5,4 6.3,4.1    "/>
		</g>
		<g>
			<polygon class="st3" points="1.6,4.9 1.4,4.8 1.2,4.9 1.3,4.7 1.1,4.6 1.3,4.6 1.4,4.4 1.5,4.6 1.7,4.6 1.5,4.7    "/>
			<polygon class="st3" points="3,4.9 2.8,4.8 2.6,4.9 2.6,4.7 2.5,4.6 2.7,4.5 2.8,4.4 2.9,4.5 3.1,4.6 2.9,4.7    "/>
			<polygon class="st3" points="4.3,4.9 4.1,4.8 4,4.9 4,4.7 3.8,4.6 4.1,4.5 4.2,4.4 4.2,4.5 4.4,4.6 4.3,4.7    "/>
			<polygon class="st3" points="5.7,4.9 5.5,4.8 5.3,4.9 5.4,4.7 5.2,4.5 5.4,4.5 5.5,4.3 5.6,4.5 5.8,4.5 5.7,4.7    "/>
			<polygon class="st3" points="7.1,4.9 6.9,4.8 6.7,4.9 6.7,4.6 6.6,4.5 6.8,4.5 6.9,4.3 7,4.5 7.2,4.5 7,4.6    "/>
		</g>
		<g>
			<polygon class="st3" points="0.9,5.6 0.7,5.4 0.5,5.6 0.6,5.3 0.4,5.2 0.6,5.2 0.7,5 0.8,5.2 1,5.2 0.9,5.3    "/>
			<polygon class="st3" points="2.3,5.5 2.1,5.4 1.9,5.5 1.9,5.3 1.8,5.2 2,5.2 2.1,5 2.2,5.2 2.4,5.2 2.2,5.3    "/>
			<polygon class="st3" points="3.6,5.5 3.5,5.4 3.3,5.5 3.3,5.3 3.2,5.2 3.4,5.2 3.5,5 3.6,5.2 3.8,5.2 3.6,5.3    "/>
			<polygon class="st3" points="5,5.5 4.8,5.4 4.6,5.5 4.7,5.3 4.5,5.1 4.7,5.1 4.8,4.9 4.9,5.1 5.1,5.1 5,5.3    "/>
			<polygon class="st3" points="6.4,5.5 6.2,5.4 6,5.5 6,5.3 5.9,5.1 6.1,5.1 6.2,4.9 6.3,5.1 6.5,5.1 6.3,5.3    "/>
		</g>
		<polygon class="st3" points="7.7,3.1 7.5,3 7.3,3.1 7.4,2.9 7.2,2.8 7.4,2.7 7.5,2.6 7.6,2.7 7.8,2.8 7.7,2.9   "/>
		<polygon class="st3" points="7.7,4.3 7.5,4.2 7.3,4.3 7.4,4.1 7.2,3.9 7.4,3.9 7.5,3.7 7.6,3.9 7.8,3.9 7.7,4.1   "/>
		<polygon class="st3" points="7.7,5.5 7.5,5.3 7.4,5.5 7.4,5.2 7.2,5.1 7.5,5.1 7.6,4.9 7.6,5.1 7.9,5.1 7.7,5.2   "/>
	</g>
</g>
</svg>