<svg xmlns="http://www.w3.org/2000/svg" width="88" height="95" viewBox="0 0 88 95"><g><g><path fill="#b78b69" d="M87.59 59.664c-.498.5-1.294.698-1.892.2l-2.19-1.697L58.22 90.7l2.19 1.697c.498.499.697 1.297.2 1.895-.498.5-1.295.7-1.892.2L23.475 67.05c-.498-.499-.697-1.298-.2-1.896.498-.5 1.295-.699 1.892-.2l.797.6 1.194-1.598a44.018 44.018 0 0 1-5.774-6.386c-.2-.2-.299-.4-.498-.6-3.683-4.99-4.48-11.476-2.489-17.264l1.593-4.69c1.693-4.89.697-10.08-2.19-14.07-.996-1.299-2.19-2.396-3.485-3.394-.1.1-.199.3-.398.4l-8.363 6.586-.1.1c-.796.598-1.791.798-2.588.598-.796-.1-1.593-.599-2.09-1.297-.498-.699-.797-1.697-.498-2.795.498-2.095 1.692-3.792 3.285-4.89 2.49-1.796 5.974-2.295 9.06-.798.597.3 1.195.599 1.792.998.995-.998 1.792-2.195 2.39-3.493.796-1.696 1.194-3.692.995-5.588h-.1c-.995.1-1.891 0-2.887-.2-.796 0-.896-1.098-.199-1.297h.1c.896-.299 1.891-.4 2.787-.4-.398-1.396-.896-2.794-1.891-3.99l-.797-.899.299-.3.398-.299.797.998c1.095 1.297 1.692 2.894 2.09 4.49l44.502.101c.2 0 .2.3 0 .3L18.596 7.271c.2 1.996-.199 4.091-.995 5.988a11.503 11.503 0 0 1-2.49 3.692 19.26 19.26 0 0 1 3.485 3.493c2.987 4.092 3.983 9.68 2.29 14.87l-1.692 5.189c-1.693 4.99-1.095 10.478 1.792 14.869.398.599.796 1.098 1.194 1.697a40.684 40.684 0 0 0 5.576 6.187L47.667 37.61c.1-.2.2-.4.299-.4l3.285-4.191-.796-.599c-.498-.499-.697-1.297-.2-1.896.499-.499 1.295-.699 1.892-.2l32.356 25.249c.1 0 .2 0 .3.099.099.1.198.2.198.3l2.29 1.796c.597.399.697 1.298.299 1.896zM18.497 5.974c0 .2.1.5.1.8.398-.1.696-.2.696-.4s-.398-.3-.796-.4zm-.697.999c-.1-.4-.1-.699-.2-1.098h-.397c-1.195 0-2.091.3-2.091.599 0 .3.896.499 2.09.499h.598zm-4.082 10.08c-.498-.3-.996-.5-1.493-.8-2.788-1.397-5.874-.997-8.164.7-1.394 1.097-2.489 2.594-2.987 4.39-.199.798 0 1.497.398 2.096.399.499.996.898 1.593.998.598.1 1.295 0 1.892-.4l.1-.1 8.362-6.586.299-.299zM48.862 37.41l16.128 6.287-13.042-10.18zm-1.593 2.096l24.093 9.28-4.082-3.193-19.015-7.385zm-18.916 24.45c8.562 7.384 19.912 11.276 31.858 9.979L29.747 62.159zm31.56 23.152l-12.445-4.79L57.523 90.2zm1.891-2.495l-22.6-8.783 5.875 4.591L60.41 86.41zm6.073-7.785l-5.873-2.295-.996.1C48.563 76.23 36.716 72.24 27.855 64.554l-1.195 1.597 10.155 7.884 25.587 9.88zm2.589-3.392l-6.67.898 4.679 1.796zm3.683-4.69l-38.13-14.67-5.675 7.284 31.76 12.275 9.158-1.197zm2.091-2.795l-38.13-14.67-1.593 2.096 38.13 14.77zm1.394-1.696l-38.13-14.67-.797 1.098 38.031 14.67zm3.584-4.59l-38.13-14.67-2.987 3.891 38.03 14.67zm1.493-2.096l-8.96-6.986-26.98-10.379-3.186 4.092 38.13 14.67z"/></g></g></svg>