<svg xmlns="http://www.w3.org/2000/svg" width="81" height="95" viewBox="0 0 81 95"><g><g><path fill="#b78b69" d="M72.135 67.636c2.29 5.372 1.138 11.42-3.01 15.584-4.149 4.166-10.189 5.272-15.531 2.965-2.16 5.426-7.243 8.804-13.103 8.804h-.006c-5.864 0-10.946-3.385-13.102-8.813-5.342 2.301-11.384 1.24-15.529-2.931-4.146-4.169-5.294-10.24-2.999-15.61C3.455 65.464 0 60.352.002 54.46c.003-5.894 3.462-11.002 8.864-13.17-2.291-5.372-1.139-11.442 3.01-15.607 4.146-4.167 10.188-5.318 15.53-3.013 1.505-3.779 4.429-6.606 8.046-7.976-1.138-4.307-1.663-8.884-.532-11.72.778-1.95 2.297-2.981 4.395-2.981 1.786 0 3.173.642 4.12 1.906 2.549 3.399 1.068 10.323.57 12.308 4.335 1.084 7.9 4.159 9.613 8.473 5.344-2.302 11.385-1.144 15.529 3.024 4.146 4.17 5.293 10.24 2.998 15.61 5.4 2.172 8.854 7.283 8.852 13.176-.002 5.893-3.46 10.98-8.862 13.146zM36.491 14.238c1.278-.373 2.625-.684 4.019-.684h.005c.839 0 1.659.189 2.458.326.445-1.795 1.885-8.33-.379-11.346-.749-.998-1.821-1.483-3.278-1.483-1.68 0-2.797.757-3.42 2.316-1.045 2.622-.495 6.81.595 10.87zm43.454 40.251c.002-4.482-2.28-10.09-8.688-12.383l-.548-.198.25-.532c2.923-6.172.595-11.767-2.556-14.938-3.152-3.17-8.71-5.527-14.853-2.594l-.527.223-.195-.607c-2.277-6.44-7.853-8.85-12.313-8.85h-.005c-1.192 0-2.466.296-3.733.66.36 1.228.763 2.54 1.179 3.638a.49.49 0 0 1 .356-.23c.284-.053.557.205.61.491.053.286-.146.73-.431.73h-.095c-.05 0-.098-.128-.144-.141a27.24 27.24 0 0 0 1.641 3.409c.198-.036.399-.061.607-.061a3.397 3.397 0 0 1 3.386 3.4c0 1.877-1.519 3.404-3.386 3.404-1.866 0-3.384-1.528-3.384-3.403 0-1.279.714-2.382 1.754-2.962-1.06-1.86-2.238-4.73-3.135-7.832-3.102 1.173-6.036 3.606-7.539 7.85l-.196.55-.526-.25c-6.144-2.936-11.701-.599-14.855 2.569-3.155 3.169-5.485 8.754-2.567 14.928l.249.53-.55.194c-6.409 2.289-8.694 7.894-8.696 12.377-.001 4.48 2.28 10.086 8.687 12.38l.548.195-.25.525c-2.921 6.173-.594 11.754 2.558 14.925 3.152 3.17 8.709 5.502 14.853 2.569l.527-.275.195.505c2.277 6.442 7.853 8.646 12.313 8.646h.004c4.458 0 10.034-2.198 12.315-8.636l.195-.458.527.251c6.142 2.935 11.7.598 14.855-2.57 3.154-3.168 5.485-8.753 2.567-14.927l-.25-.53.55-.196c6.408-2.288 8.694-7.894 8.696-12.376zM39.424 24.44a2.339 2.339 0 0 0 1.075 4.412 2.34 2.34 0 0 0 2.333-2.345 2.34 2.34 0 0 0-2.302-2.34 3.4 3.4 0 0 0 .333.391.53.53 0 0 1-.363.91.527.527 0 0 1-.364-.146 5.716 5.716 0 0 1-.712-.882zm-10.615 2.926a.546.546 0 0 1-.148-.37.52.52 0 0 1 .158-.381c.19-.19.547-.19.737 0a.522.522 0 0 1 .156.38.55.55 0 0 1-.147.37.582.582 0 0 1-.379.16.583.583 0 0 1-.377-.16zm20.55-3.744a.526.526 0 0 1 .085-.74.51.51 0 0 1 .736.074.535.535 0 0 1-.073.74.586.586 0 0 1-.336.116.542.542 0 0 1-.411-.19zm-1.408-1.45a.522.522 0 0 1-.053-.74.517.517 0 0 1 .737-.064c.22.19.252.53.063.751a.55.55 0 0 1-.747.065zm-4.831-2.94a.521.521 0 0 1-.516.434c-.032 0-.053 0-.084-.011a.51.51 0 0 1-.432-.602.522.522 0 0 1 .61-.433.526.526 0 0 1 .422.613zm7.376 6.06a.512.512 0 0 1 .2-.709.519.519 0 0 1 .715.201.524.524 0 1 1-.915.508zm-9.47-6.335a.52.52 0 0 1-1.042 0c0-.286.232-.529.516-.529a.53.53 0 0 1 .527.529zm-5.167.9a.539.539 0 0 1 .327-.678.53.53 0 0 1 .673.319.536.536 0 0 1-.494.708.548.548 0 0 1-.506-.349zm-3.546 2.262a.526.526 0 0 1 .064-.74.525.525 0 0 1 .672.805.494.494 0 0 1-.335.126.519.519 0 0 1-.401-.19zm-1.41 1.587a.524.524 0 0 1-.072-.74v-.012a.527.527 0 0 1 .735-.074.54.54 0 0 1 .085.753.542.542 0 0 1-.41.19.581.581 0 0 1-.337-.117zm-1.304 1.09a.518.518 0 0 1 .715-.201.52.52 0 0 1 .2.708v.012a.522.522 0 0 1-.463.264.525.525 0 0 1-.452-.783zm4.388-3.966a.529.529 0 0 1 .199-.73.533.533 0 0 1 .715.201.523.523 0 0 1-.199.72.482.482 0 0 1-.263.073.52.52 0 0 1-.452-.264zm10.164-1.333a.519.519 0 0 1 .674-.318c.274.096.41.391.316.678a.523.523 0 0 1-.495.349.45.45 0 0 1-.168-.032.528.528 0 0 1-.327-.677zm1.957.804a.521.521 0 0 1 .716-.201c.252.149.347.466.2.72a.523.523 0 0 1-.464.265.605.605 0 0 1-.263-.065h.012c-.253-.148-.347-.477-.201-.719zm5.347 6.325a.55.55 0 0 1 .747 0 .525.525 0 0 1 .01.74.541.541 0 0 1-.379.17.537.537 0 0 1-.379-.91zm18.088 10.228v-.003-.001-.008.012zm0-.003a.547.547 0 0 1-.484.572h-.042a.527.527 0 0 1-.526-.487.526.526 0 0 1 .484-.57c.283-.021.534.19.567.484a.016.016 0 0 0 0 .001zm-1.03-2.56a.533.533 0 0 1 .641.371.538.538 0 0 1-.506.677.527.527 0 0 1-.504-.391.526.526 0 0 1 .368-.657zm-14.197-8.184a.51.51 0 0 1-.358.644c-.042.023-.095.023-.147.023a.52.52 0 0 1-.505-.381.538.538 0 0 1 .369-.656.512.512 0 0 1 .64.37zm2.095-.318a.526.526 0 0 1-.474.582h-.052a.534.534 0 0 1-.526-.475.545.545 0 0 1 .473-.582.54.54 0 0 1 .579.475zm2.104.085a.524.524 0 0 1-.515.477h-.053a.518.518 0 0 1-.473-.571.532.532 0 0 1 .568-.487.533.533 0 0 1 .473.581zm8.924 7.171a.534.534 0 0 1 .251-.708.525.525 0 0 1 .695.253h.01a.554.554 0 0 1-.251.71.628.628 0 0 1-.233.052.53.53 0 0 1-.472-.307zm-4.915-5.892a.515.515 0 0 1-.473.307.534.534 0 0 1-.474-.761.524.524 0 0 1 .706-.243v-.012a.53.53 0 0 1 .24.71zm5.946 11.803a.524.524 0 0 1 .579-.464c.284.02.505.285.473.571a.533.533 0 0 1-.526.475h-.052a.523.523 0 0 1-.474-.582zm-4.294-11.39a.53.53 0 1 1-.609.867.53.53 0 0 1 .609-.866zm1.684 1.429c.2.2.2.539 0 .75a.57.57 0 0 1-.378.15.562.562 0 0 1-.369-.15.545.545 0 0 1 0-.75.517.517 0 0 1 .747 0zm.558 2.293a.518.518 0 0 1 .126-.728.525.525 0 0 1 .737.127.548.548 0 0 1-.126.739.533.533 0 0 1-.305.085.516.516 0 0 1-.432-.223zm-5.84-4.958a.526.526 0 0 1-.504.392.619.619 0 0 1-.138-.022.528.528 0 0 1-.368-.645.514.514 0 0 1 .642-.37c.284.073.452.359.368.645zm8.165 14.256c.285.085.441.37.357.656a.517.517 0 0 1-.504.38c-.042 0-.094 0-.137-.022a.531.531 0 0 1-.369-.656.527.527 0 0 1 .653-.358zm-.526 2.147a.515.515 0 0 1 0 .741.524.524 0 0 1-.894-.371.53.53 0 0 1 .147-.37.537.537 0 0 1 .747 0zm8.135 11.75a.529.529 0 0 1-.527.528.527.527 0 0 1-.515-.528.52.52 0 0 1 .515-.529c.295 0 .527.233.527.529zm-6.325-10.967a.536.536 0 0 1 .21.719.512.512 0 0 1-.715.201.535.535 0 0 1-.21-.72.53.53 0 0 1 .715-.2zm5.104 8.947v-.005zm0-.005v-.005.005zm-.19-2.64a.518.518 0 0 1 .674.318.53.53 0 0 1-.495.708.524.524 0 0 1-.495-.349.523.523 0 0 1 .317-.677zm-1.158-1.164a.536.536 0 0 1 .19-.729.542.542 0 0 1 .725.2.538.538 0 0 1-.462.794.52.52 0 0 1-.453-.265zm1.832 10.165a.529.529 0 0 1-.673.328.533.533 0 1 1 .358-1.005c.273.106.41.402.315.677zm-2.988-11.824a.538.538 0 0 1 .063-.751.529.529 0 0 1 .736.064.515.515 0 0 1-.063.74.45.45 0 0 1-.337.127.547.547 0 0 1-.4-.18zm3.546 9.687a.542.542 0 0 1-.526.445c-.021 0-.053-.012-.085-.012a.542.542 0 0 1-.431-.613.54.54 0 0 1 .61-.433.543.543 0 0 1 .432.613zm-1.475 4.157a.548.548 0 0 1-.462.264.499.499 0 0 1-.263-.074.523.523 0 0 1-.19-.719.531.531 0 0 1 .717-.2.548.548 0 0 1 .198.73zm-2.767 2.623a.534.534 0 0 1-.074.74.505.505 0 0 1-.335.116.498.498 0 0 1-.4-.191.513.513 0 0 1 .073-.74.516.516 0 0 1 .736.075zm1.443-1.556c.22.19.242.518.063.74a.538.538 0 0 1-.41.19.514.514 0 0 1-.337-.126.523.523 0 0 1-.064-.74.522.522 0 0 1 .748-.064zm-3.137 2.824a.534.534 0 0 1-.2.719.556.556 0 0 1-.252.065.514.514 0 0 1-.462-.276.527.527 0 0 1 .2-.72.53.53 0 0 1 .714.212zm1.621-19.978c.221.19.253.518.074.75a.523.523 0 0 1-.41.191.544.544 0 0 1-.328-.115.54.54 0 0 1-.084-.752.543.543 0 0 1 .748-.074zm3.704 7.097a.525.525 0 1 1 .18 1.035c-.032.012-.064.012-.085.012a.53.53 0 0 1-.526-.443.523.523 0 0 1 .431-.604zm-8.25 14.015c0-.138.053-.275.148-.372a.56.56 0 0 1 .747-.01.593.593 0 0 1 .158.38.565.565 0 0 1-.158.38.522.522 0 0 1-.368.15.548.548 0 0 1-.38-.15.551.551 0 0 1-.147-.378zM54.317 82.859a.547.547 0 0 1-.515.39.541.541 0 0 1-.506-.677.523.523 0 0 1 .652-.359c.284.074.442.37.369.646zm14.142-12.873a.522.522 0 0 1 .474-.571.517.517 0 0 1 .568.476.52.52 0 0 1-.463.571c-.02 0-.042.01-.052.01a.527.527 0 0 1-.526-.486zm-7.892 12.638a.513.513 0 0 1-.369.645c-.042.022-.083.022-.137.022a.527.527 0 0 1-.504-.392.525.525 0 1 1 1.01-.275zm-2.052.467a.538.538 0 0 1-.484.57h-.042a.53.53 0 0 1-.042-1.056.536.536 0 0 1 .568.486zm9.566-15.093a.518.518 0 0 1 .357-.644.518.518 0 0 1 .653.36.53.53 0 0 1-.358.655c-.053.01-.095.021-.147.021a.527.527 0 0 1-.505-.392zM56.4 83.165a.526.526 0 0 1-.527.476h-.042a.525.525 0 0 1-.473-.582.513.513 0 0 1 .568-.464v-.012a.531.531 0 0 1 .473.582zm6.112-1.364a.529.529 0 0 1-.24.708.517.517 0 0 1-.705-.254.534.534 0 0 1 .25-.708.527.527 0 0 1 .695.254zm4.631-4.263c.23.17.283.496.115.73a.496.496 0 0 1-.42.221.494.494 0 0 1-.305-.095.517.517 0 0 1-.126-.729.523.523 0 0 1 .736-.127zm1.23-1.173a.51.51 0 0 1-.473.296.523.523 0 0 1-.221-.042.535.535 0 0 1-.253-.71.529.529 0 0 1 .705-.253c.263.127.37.444.242.709zm1.147-4.264a.528.528 0 0 1-.526.487h-.042a.523.523 0 0 1-.473-.57.527.527 0 0 1 .569-.488.53.53 0 0 1 .472.571zm-.379 2.191a.526.526 0 0 1-.504.392.543.543 0 0 1-.516-.677.542.542 0 0 1 .653-.371.54.54 0 0 1 .367.656zm-4.85 6.355a.53.53 0 1 1-.862.613.539.539 0 0 1 .126-.74.535.535 0 0 1 .736.127zm1.558-1.438c.2.212.2.55 0 .751a.533.533 0 0 1-.378.158.53.53 0 0 1-.37-.158.547.547 0 0 1 0-.75c.211-.201.537-.201.748 0zm-13.66 2.37a.574.574 0 0 1 .148.38.57.57 0 0 1-.148.371.584.584 0 0 1-.379.158.533.533 0 0 1-.368-.158.525.525 0 0 1-.01-.74.56.56 0 0 1 .757-.011zm-.79 2.58a.522.522 0 0 1-.462.265.56.56 0 0 1-.253-.064.529.529 0 0 1-.198-.72.518.518 0 0 1 .715-.2.52.52 0 0 1 .199.719zm-10.384 5.828a.528.528 0 0 1-.526.528.534.534 0 0 1-.526-.528.53.53 0 0 1 .526-.53c.294 0 .526.234.526.53zm-4.168-.54a.531.531 0 0 1-.673.318.51.51 0 0 1-.316-.667.512.512 0 0 1 .663-.328.535.535 0 0 1 .326.677zm2.063.444a.54.54 0 0 1-.526.445c-.02 0-.052 0-.084-.011a.535.535 0 0 1-.431-.614.542.542 0 0 1 .61-.433.543.543 0 0 1 .431.613zm4.199-.18a.527.527 0 0 1-.42.614c-.032 0-.064.01-.096.01a.52.52 0 0 1-.515-.444.528.528 0 0 1 .431-.613.525.525 0 0 1 .6.433zm2.02-.623a.53.53 0 0 1-.495.708.533.533 0 0 1-.495-.349.53.53 0 0 1 .316-.677h.012a.507.507 0 0 1 .662.318zm1.884-.974a.547.547 0 0 1-.2.73.565.565 0 0 1-.263.064.527.527 0 0 1-.254-.984.523.523 0 0 1 .717.19zm1.673-1.289a.524.524 0 0 1-.064.74.513.513 0 0 1-.336.126.55.55 0 0 1-.411-.18.548.548 0 0 1 .064-.75.529.529 0 0 1 .747.064zm-17.056-1.504a.528.528 0 0 1-.4.867.503.503 0 0 1-.412-.2V86a.528.528 0 1 1 .812-.678zm-1.128-1.67a.54.54 0 0 1-.21.72.517.517 0 0 1-.252.063.54.54 0 0 1-.463-.275.536.536 0 0 1 .21-.72.523.523 0 0 1 .715.212zm19.594 1.587c.221.19.253.517.074.75a.544.544 0 0 1-.412.191.59.59 0 0 1-.335-.116.546.546 0 0 1-.074-.75.54.54 0 0 1 .747-.075zm-15.206 3.415a.535.535 0 0 1-.462.264.614.614 0 0 1-.263-.074.523.523 0 0 1-.19-.719.532.532 0 0 1 .716-.2c.251.148.335.465.199.729zM33.04 86.77c.22.18.253.518.063.74a.515.515 0 0 1-.736.065.537.537 0 0 1-.064-.75.517.517 0 0 1 .737-.055zm-3.495-4.45a.548.548 0 0 1-.378.157.526.526 0 0 1-.37-.148.54.54 0 0 1-.008-.751c.2-.2.557-.2.747 0a.504.504 0 0 1 .157.37.531.531 0 0 1-.148.371zm-13.658-3.11c.2.2.2.539 0 .74a.537.537 0 0 1-.378.158.51.51 0 0 1-.369-.158.513.513 0 0 1 0-.74.52.52 0 0 1 .747 0zm1.537 1.3c.24.17.294.508.126.74a.506.506 0 0 1-.431.223.53.53 0 0 1-.42-.835.52.52 0 0 1 .725-.128zm-5.44-7.921a.528.528 0 0 1-.527-.487.517.517 0 0 1 .474-.57.54.54 0 0 1 .579.475c.02.297-.2.55-.484.571-.021.01-.032.01-.042.011zm2.599 5.065a.54.54 0 0 1-.127.74.537.537 0 0 1-.305.095.55.55 0 0 1-.431-.222.53.53 0 0 1 .863-.613zm-2.095-3.005c-.053.012-.095.022-.137.022a.542.542 0 0 1-.516-.391.53.53 0 0 1 .37-.645.534.534 0 0 1 .652.37.531.531 0 0 1-.37.644zm8.945 8.241a.524.524 0 0 1-.504.391c-.053 0-.095-.01-.137-.02a.517.517 0 0 1-.37-.646.517.517 0 0 1 .643-.37c.273.074.442.36.368.645zM13.551 75.9a.53.53 0 0 1-.473.762.55.55 0 0 1-.474-.296.527.527 0 0 1 .253-.709.51.51 0 0 1 .694.243zm5.871 6.346a.53.53 0 0 1-.472.295.565.565 0 0 1-.233-.042.534.534 0 0 1-.251-.709.528.528 0 0 1 .705-.253.542.542 0 0 1 .251.709zm6.21.804a.53.53 0 0 1-.463.581h-.053a.52.52 0 0 1-.526-.476.527.527 0 0 1 .473-.581.52.52 0 0 1 .569.476zM12.047 69.405a.531.531 0 0 1-.053 1.058h-.053a.546.546 0 0 1-.473-.581h.01a.53.53 0 0 1 .569-.477zm15.647 13.156a.524.524 0 0 1-.368.644c-.042.022-.095.022-.137.022a.517.517 0 0 1-.505-.38.522.522 0 0 1 .358-.656.54.54 0 0 1 .652.37zm-4.167.603a.536.536 0 0 1-.568.487.537.537 0 0 1-.484-.57.535.535 0 0 1 .568-.487c.295.02.505.275.484.57zM12.394 68.379c-.042 0-.095 0-.147-.021a.526.526 0 0 1-.358-.645.538.538 0 0 1 .651-.371c.275.085.443.38.359.656a.519.519 0 0 1-.505.381zm.758-2.01a.526.526 0 0 1-.369-.148.591.591 0 0 1-.158-.38c0-.138.064-.265.158-.37.19-.202.547-.202.747 0a.59.59 0 0 1 .158.37.543.543 0 0 1-.158.37.497.497 0 0 1-.378.158zm-1.464-1.142a.56.56 0 0 1-.463.276.437.437 0 0 1-.252-.074v.01a.54.54 0 0 1-.21-.719.525.525 0 0 1 .715-.211.534.534 0 0 1 .21.718zm-.936-21.003a.532.532 0 0 1 .2-.72.531.531 0 0 1 .726.202.536.536 0 0 1-.21.719.535.535 0 0 1-.253.074.534.534 0 0 1-.463-.275zM8.373 61.949a.536.536 0 0 1-.4.878.519.519 0 0 1-.4-.19.524.524 0 0 1 .053-.74.54.54 0 0 1 .747.052zm.684-16.455a.547.547 0 0 1 .074-.75.54.54 0 0 1 .747.072.534.534 0 0 1-.074.74v.011a.587.587 0 0 1-.336.116.53.53 0 0 1-.41-.189zm.759 17.882c.22.18.252.519.074.74a.54.54 0 0 1-.748.076.534.534 0 0 1-.073-.74.52.52 0 0 1 .736-.085zM6.3 48.114a.523.523 0 0 1 .906.52.511.511 0 0 1-.716.2.526.526 0 0 1-.19-.72zM5.165 55a.535.535 0 0 1-.526-.529c0-.295.232-.529.526-.529.294 0 .526.234.526.53a.528.528 0 0 1-.526.528zm-.337-2.738a.508.508 0 0 1 .599-.422.518.518 0 0 1 .431.602.52.52 0 0 1-.515.444c-.03 0-.062 0-.085-.01a.516.516 0 0 1-.43-.614zm.545-2.137a.529.529 0 0 1 .674-.317.53.53 0 0 1 .327.677.546.546 0 0 1-.505.35.54.54 0 0 1-.496-.709zm.065 6.98h-.094a.52.52 0 0 1-.515-.433.534.534 0 0 1 .43-.613.525.525 0 0 1 .6.433.528.528 0 0 1-.42.614zm1.779 3.196a.534.534 0 0 1-.19.719.508.508 0 0 1-.263.074.542.542 0 0 1-.463-.265v-.011a.526.526 0 0 1 .2-.72.52.52 0 0 1 .716.203zm-1.158-1.166c-.064.01-.126.023-.179.023a.51.51 0 0 1-.495-.35.536.536 0 0 1 .315-.677.534.534 0 0 1 .36 1.004zm1.568-12.098a.524.524 0 0 1 .674-.805.536.536 0 0 1 .063.751.543.543 0 0 1-.4.181.497.497 0 0 1-.337-.127zm6.062-3.955a.531.531 0 0 1-.148.37.53.53 0 0 1-.378.158.491.491 0 0 1-.37-.158.544.544 0 0 1-.156-.37c0-.137.062-.275.157-.371.19-.2.548-.2.747 0a.54.54 0 0 1 .148.371zM12.615 32.58a.525.525 0 0 1 .705-.243.515.515 0 0 1 .242.697.518.518 0 0 1-.473.307.535.535 0 0 1-.474-.762zm-.347 8.005a.527.527 0 0 1 .652.36.53.53 0 0 1-.358.655c-.052.012-.094.022-.147.022a.52.52 0 0 1-.505-.38.527.527 0 0 1 .358-.657zm9.164-14.542a.526.526 0 0 1-.368.645c-.053.01-.095.021-.137.021a.518.518 0 0 1-.505-.391.514.514 0 0 1 .358-.644.52.52 0 0 1 .652.369zm-2.01.645a.534.534 0 0 1-.472.762c-.2 0-.39-.116-.474-.307a.53.53 0 0 1 .241-.71v.011a.518.518 0 0 1 .705.244zm4.105-.919a.538.538 0 0 1-.484.571h-.042a.53.53 0 0 1-.526-.486.526.526 0 0 1 .484-.572.537.537 0 0 1 .568.487zm-5.966 1.913a.539.539 0 0 1-.127.74.537.537 0 0 1-.305.096.518.518 0 0 1-.431-.223.539.539 0 0 1 .126-.739.534.534 0 0 1 .737.126zm8.07-1.809a.524.524 0 0 1-.516.477h-.053a.516.516 0 0 1-.473-.572.521.521 0 0 1 .579-.476.52.52 0 0 1 .463.571zM12.54 38.956a.537.537 0 0 1-.473.582h-.054a.533.533 0 0 1-.526-.475.535.535 0 0 1 .475-.583.53.53 0 0 1 .577.476zm15.153-12.583a.54.54 0 0 1-.516.38c-.042 0-.094 0-.136-.022a.525.525 0 0 1-.369-.645.537.537 0 0 1 .653-.37c.284.084.442.37.368.657zm-15.847 8.29a.54.54 0 0 1 .652-.38c.274.084.442.37.369.655a.527.527 0 0 1-.506.392.486.486 0 0 1-.136-.023.53.53 0 0 1-.38-.644zm-.38 2.179a.53.53 0 0 1 .57-.486.545.545 0 0 1 .483.57.527.527 0 0 1-.526.487h-.042a.524.524 0 0 1-.484-.571zm4.42-7.858a.547.547 0 0 1 0 .75.518.518 0 0 1-.369.149.518.518 0 0 1-.378-.148.545.545 0 0 1 0-.75.536.536 0 0 1 .747 0zm-1.421 1.564a.533.533 0 1 1-.316.963.483.483 0 0 1-.294-.096.531.531 0 0 1 .61-.867zm14.84 12.312c.77-1.615 1.969-2.913 3.374-3.652 1.455-.77 2.96-.85 4.237-.235.21.102.39.243.578.377.017.007.036.011.053.02l-.006.01c.93.68 1.588 1.727 1.848 3.061.308 1.563.05 3.315-.72 4.93-.77 1.615-1.968 2.913-3.373 3.652-.811.426-1.639.642-2.433.642a4.142 4.142 0 0 1-1.615-.341l-.007.012c-.016-.007-.027-.021-.044-.03-.045-.02-.095-.025-.14-.048-2.582-1.244-3.368-5.012-1.752-8.398zm7.727-2.558c-.85-.369-1.745.083-2.354.538-.953.712-1.861 1.91-2.559 3.374-1.527 3.202-1.694 5.482-.466 6.135.943.4 2.054.317 3.155-.262 1.205-.635 2.239-1.761 2.912-3.172.674-1.411.9-2.927.637-4.27-.199-1.012-.666-1.815-1.325-2.343zm-7.226 7.955c.077-1.221.517-2.724 1.363-4.499.77-1.616 1.793-2.952 2.879-3.765.151-.114.305-.217.458-.31a4.51 4.51 0 0 0-1.341.462c-1.206.636-2.24 1.76-2.913 3.172-.823 1.725-.932 3.544-.446 4.94zM45.335 71.53c-.55 0-1.086-.12-1.598-.335l-.006.014c-.019-.01-.03-.024-.049-.033-.044-.02-.091-.026-.135-.046-2.583-1.244-3.369-5.013-1.754-8.398 1.615-3.386 5.03-5.127 7.612-3.887.207.1.386.242.572.372.02.01.04.015.058.024l-.005.011c.93.68 1.587 1.728 1.848 3.061.306 1.563.05 3.315-.72 4.93-1.263 2.645-3.622 4.286-5.823 4.287zm-3.04-3.4c.076-1.222.516-2.725 1.362-4.5.92-1.93 2.109-3.34 3.33-4.076-1.62.275-3.286 1.62-4.246 3.634-.824 1.727-.934 3.547-.446 4.942zm7.914-1.345c.672-1.411.898-2.926.635-4.27-.196-1.006-.66-1.806-1.314-2.335-1.443-.64-3.55 1.023-4.924 3.906-1.524 3.197-1.693 5.474-.472 6.132 2.046.864 4.738-.632 6.075-3.433zm-21.472 5.262a.531.531 0 0 1-.185-.725L49.34 36a.527.527 0 1 1 .907.54L29.458 71.86a.528.528 0 0 1-.721.186zM52.328 36.54L31.541 71.86a.528.528 0 1 1-.907-.54l20.787-35.32a.528.528 0 1 1 .907.538z"/></g></g></svg>