<svg xmlns="http://www.w3.org/2000/svg" width="107" height="55" viewBox="0 0 107 55"><g><g><path fill="#b78b69" d="M8.821 54.429c-.064-3.501-.065-5.329-1.057-8.99-.338-1.12-.643-2.223-1.015-3.339-1.559-4.68-3.691-9.526-5.186-12.3-.955-1.772-2.097-4.266-1.289-6.282.849-2.116 2.506-5.217 4.24-8.14 1.88-3.171 3.857-6.143 4.997-7.429 2.487-2.808 7.317-6.154 10.762-7.547 3.714-1.502 5.881 1.912 3.775 4.696-.3.398-.703.802-1.22 1.202-.553.428-.354.093-.294.783.07.802-.212 1.697-.767 2.282-.383.404-.417.426-.25.805.915 1.962.673 5.438.473 8.289-.208 2.978-.22 4.337.608 7.199 1.315 4.541 1.929 7.967 1.919 11.129-.009 2.554-.422 4.922-1.2 7.547a48.826 48.826 0 0 1-.632 1.97c-.319.928-.445 1.599-.445 2.587l-.001 5.56c0 .732-1.105.732-1.105 0v-5.56c0-.983.299-1.232-.403-.714-.587.433-1.242-.465-.655-.898 1.343-.99 1.726-1.737 2.154-3.167.766-2.564 1.174-4.86 1.182-7.325.01-3.05-.59-6.382-1.876-10.82-.866-2.99-.868-4.47-.65-7.582.176-2.533.39-5.594-.195-7.33-.223-.662-.186-.6-.625-.183a28.997 28.997 0 0 0-2.21 2.345c-1.256 1.492-2.167 2.881-2.642 3.854-.006.44.024.833.077 1.197l.002.013c.058.403.195.72.407.941.207.213.5.352.878.408a.556.556 0 0 1-.156 1.103 3.134 3.134 0 0 1-.55-.131c.286 1.085.48 2.287.145 4.193-.137.781-.24.642.501.93.124.047.246.09.365.128.695.218.366 1.282-.33 1.063a7.957 7.957 0 0 1-.82-.313c-.932-.414-1.876-.948-2.64-1.595-.564-.479-.39-.34-.47.519-.082.882-.196 1.822-.08 2.718.1.78.496 1.728.983 2.894.658 1.577 1.476 3.536 2.01 6.153.145.717-.939.94-1.084.222-.508-2.492-1.306-4.404-1.949-5.943-.139-.332-.27-.648-.391-.95-.375-.937-.18-.945-.629-.473-.584.615-1.549.178-.75-.832.15-.19.383-.563.53-1.197.242-1.044.278-2.896.364-3.944.108-1.302.47-2.48.91-3.698.468-1.298 1.061-2.609 1.668-3.864.507-1.048 1.477-2.538 2.806-4.115a29.514 29.514 0 0 1 3.87-3.823c.914-.746.977-3.514-1.742-1.944-1.492.861-3.739 2.72-4.932 3.998-2.886 3.09-5.085 8.446-7.025 12.363-.325.656-1.317.159-.992-.497C8.193 18.55 10.4 13.178 13.4 9.967c1.265-1.355 3.607-3.29 5.19-4.204 1.188-.687 2.106-.753 2.764-.475.686.291.331.52.954.01.359-.295.643-.588.86-.876.918-1.212.679-2.603-1.053-1.807-2.61 1.2-8.563 5.423-10.285 7.692-2.537 3.344-4.858 7.905-6.715 11.686-.322.657-1.315.164-.993-.493 1.892-3.85 4.244-8.463 6.829-11.869 1.835-2.418 7.927-6.75 10.705-8.027.16-.074.372-.131.569-.179 1.092-.267.203-.325-.251-.301-.368.018-.792.113-1.289.311-3.282 1.328-7.976 4.58-10.347 7.256-1.1 1.241-3.03 4.146-4.875 7.258-1.707 2.877-3.335 5.922-4.162 7.984-.646 1.613.479 3.932 1.237 5.34 1.516 2.814 3.68 7.728 5.26 12.474.373 1.119.72 2.247 1.03 3.385.202.67.428 1.25.682 1.739.322.62.69 1.089 1.114 1.411.582.441-.086 1.331-.667.89-.493-.374-.262-.087-.186.566.17 1.485.128 3.189.155 4.673.011.732-1.094.749-1.105.018zm60.005-34.561c0-.293.443-.293.443 0v2.764c0 .294-.443.294-.443 0zm-1.28 1.246c0-.294.443-.294.443 0v1.518c0 .294-.443.294-.443 0zm-1.28 0c0-.294.443-.294.443 0v1.518c0 .294-.444.294-.444 0zm-1.28 0c0-.294.443-.294.443 0v1.518c0 .294-.444.294-.444 0zm-1.281 0c0-.294.444-.294.444 0v1.518c0 .294-.444.294-.444 0zm-6.401 0c0-.294.444-.294.444 0v1.518c0 .294-.444.294-.444 0zm1.28 0c0-.294.444-.294.444 0v1.518c0 .294-.444.294-.444 0zm1.28 0c0-.294.444-.294.444 0v1.518c0 .294-.444.294-.444 0zm1.28 0c0-.294.444-.294.444 0v1.518c0 .294-.443.294-.443 0zm1.28-1.246c0-.293.444-.293.444 0v2.764c0 .294-.443.294-.443 0zm-6.4 0c0-.293.443-.293.443 0v2.764c0 .294-.443.294-.443 0zm-1.28 1.246c0-.294.443-.294.443 0v1.518c0 .294-.444.294-.444 0zm-1.28 0c0-.294.443-.294.443 0v1.518c0 .294-.444.294-.444 0zm-1.28 0c0-.294.443-.294.443 0v1.518c0 .294-.444.294-.444 0zm-1.281 0c0-.294.444-.294.444 0v1.518c0 .294-.444.294-.444 0zm-6.401 0c0-.294.444-.294.444 0v1.518c0 .294-.444.294-.444 0zm1.28 0c0-.294.444-.294.444 0v1.518c0 .294-.444.294-.444 0zm1.28 0c0-.294.444-.294.444 0v1.518c0 .294-.444.294-.444 0zm1.28 0c0-.294.444-.294.444 0v1.518c0 .294-.444.294-.444 0zm1.28-1.246c0-.293.444-.293.444 0v2.764c0 .294-.443.294-.443 0zm-6.4 0c0-.293.443-.293.443 0v2.764c0 .294-.443.294-.443 0zm-1.28 1.246c0-.294.443-.294.443 0v1.518c0 .294-.444.294-.444 0zm-1.28 0c0-.294.443-.294.443 0v1.518c0 .294-.444.294-.444 0zm-1.28 0c0-.294.443-.294.443 0v1.518c0 .294-.444.294-.444 0zm-1.281 0c0-.294.444-.294.444 0v1.518c0 .294-.444.294-.444 0zm-1.28-1.246c0-.293.443-.293.443 0v2.764c0 .294-.443.294-.443 0zm36.916 12.107c-.434.588-1.322-.075-.889-.662l2.408-3.251H31.6c-.824 0-.738-.092-.239.58l1.978 2.67c.433.588-.456 1.251-.889.663l-2.705-3.652c-.536-.724-.67-.688-.015-1.573l2.72-3.673c.433-.588 1.322.075.889.663l-1.932 2.607c-.511.691-.605.599.24.599h43.575l-2.375-3.206c-.433-.588.455-1.25.888-.663l2.869 3.872c.348.471.415.593.055 1.079zm15.407-18.758a29.003 29.003 0 0 0-2.6-2.708c-.87 1.568-.627 5.05-.43 7.876.218 3.113.216 4.592-.65 7.582-1.286 4.438-1.886 7.77-1.876 10.82.008 2.566.45 4.949 1.278 7.642.203.661.364 1.093.828 1.68.348.441.775.835 1.23 1.17.587.433-.068 1.33-.655.898-.702-.518-.404-.27-.404.714v5.56c0 .732-1.104.732-1.104 0v-5.56c-.001-1.593-.577-2.89-1.023-4.372-.76-2.521-1.246-5.054-1.255-7.732-.01-3.162.603-6.588 1.919-11.13.829-2.86.816-4.22.608-7.198-.214-3.057-.478-6.833.69-8.69a32.697 32.697 0 0 0-.28-.231c-.686-.56-1.031-1.568-.954-2.455.063-.728.266-.334-.402-.868a6.398 6.398 0 0 1-1.113-1.117c-.756-1-1.013-2.248-.533-3.45.337-.844.998-1.422 1.893-1.595.647-.124 1.447-.042 2.416.35C90.172 1.794 95 5.14 97.489 7.948c2.974 3.357 7.538 11.334 9.237 15.57.808 2.015-.334 4.51-1.29 6.28-1.494 2.775-3.626 7.622-5.186 12.301-.534 1.603-1.032 3.27-1.412 4.92-.653 2.838-.608 4.617-.66 7.409-.01.73-1.116.714-1.104-.018.028-1.551-.001-3.143.163-4.695.07-.656.11-.836-.194-.545a.552.552 0 0 1-.776-.109.559.559 0 0 1 .109-.78c.425-.322.792-.792 1.114-1.411.65-1.25 1.258-3.763 1.712-5.124 1.58-4.745 3.744-9.66 5.26-12.474.758-1.408 1.883-3.727 1.236-5.34-1.653-4.123-6.143-11.976-9.037-15.242-2.37-2.677-7.064-5.928-10.346-7.256a4.6 4.6 0 0 0-.967-.284c-.194-.032-.376-.067-.537-.036-.458.087-.643.091-.022.277.176.052.361.123.555.212 2.778 1.276 8.87 5.61 10.705 8.027 2.585 3.406 4.937 8.02 6.829 11.87.322.656-.67 1.149-.993.492-1.857-3.78-4.178-8.342-6.716-11.686-1.721-2.269-7.674-6.492-10.284-7.692-.826-.38-1.795-.37-1.545.808.066.31.224.646.491 1 .226.29.526.578.897.89.588.494.23.267.918-.025.658-.278 1.576-.211 2.765.475 1.582.913 3.924 2.85 5.188 4.204 3 3.211 5.208 8.584 7.211 12.628.325.656-.667 1.154-.992.497-1.94-3.917-4.14-9.273-7.025-12.363-1.193-1.278-3.44-3.137-4.933-3.998-.822-.475-2.167-.961-2.29.448-.047.555.15 1.17.549 1.496a29.548 29.548 0 0 1 3.87 3.823c1.329 1.577 2.3 3.067 2.806 4.114.607 1.256 1.2 2.567 1.668 3.865.712 1.974.83 2.906 1.014 4.883.074.79.084 1.623.18 2.401.11.876.349 1.021.85 1.836.295.477-.288 1.04-.745.772-.665-.392-.347-1.093-.798.06-.141.36-.299.739-.467 1.142-.643 1.54-1.441 3.451-1.949 5.943-.145.717-1.229.495-1.083-.222.533-2.617 1.35-4.576 2.009-6.153.502-1.203.936-2.125 1.018-3.345.05-.764.001-1.63-.069-2.381-.08-.858-.011-.901-.575-.423-.44.374-.955.734-1.49 1.05-.359.21-.728.402-1.09.563a7.967 7.967 0 0 1-.822.313c-.695.219-1.025-.845-.33-1.063.226-.071.41-.14.651-.247.404-.179.335-.178.246-.638-.307-1.59-.255-2.698-.062-3.645.178-.874.35-.696-.373-.59-.721.103-.877-1-.156-1.103.379-.056.671-.195.877-.408.265-.274.389-.722.445-1.172.13-1.046-.014-1.173-.56-2.055a24.185 24.185 0 0 0-2.04-2.778zm2.898 11.189c.1.638.114.476.666.067.328-.243.648-.509.937-.799.535-.535.478-.468.292-1.183a19.067 19.067 0 0 0-.514-1.635c-.094-.26-.193-.52-.297-.782-.548-1.381-.385-1.091-.748.168-.322 1.115-.641 2.222-.336 4.164zm-78.465-3.55a19.19 19.19 0 0 0-.497 1.571c-.314 1.182.432 1.908 1.229 2.274.475.217.56.284.652-.314.3-1.93-.018-3.034-.34-4.145a17.7 17.7 0 0 1-.316-1.204c-.264.606-.51 1.215-.728 1.818z"/></g></g></svg>