<svg xmlns="http://www.w3.org/2000/svg" width="133" height="79" viewBox="0 0 133 79"><g><g><path fill="#222939" d="M33 .597v3.167c0 .052-.05 4.656-.14 11.46-.173 12.844-.463 30.864-.863 44.499a.597.597 0 0 1 .033.219c-.176 4.215-.705 15.974-.89 17.518a.597.597 0 0 1-.363.48c-.23.097-5.725 2.327-11.325 0a.597.597 0 0 1-.367-.519L16.5 30.124l-2.585 47.297a.598.598 0 0 1-.367.52c-1.905.791-3.798 1.055-5.475 1.055-3.252 0-5.696-.992-5.848-1.055a.597.597 0 0 1-.364-.48C1.207 71.991.714 50.35.416 33.158a.593.593 0 0 1 .028-.183C.376 28.785.178 17.961.141 15.223.05 8.42.001 3.816.001 3.771V.597C0 .267.266 0 .595 0h31.807c.33 0 .597.267.597.597zm-9.807 2.569h8.614v-1.97h-8.614zm8.608 1.196h-3.144c.42 1.676 1.554 5.878 3.038 8.781.056-4.335.092-7.515.106-8.781zM11 3.166h11v-1.97H11zm6.095 1.196v11.08a1.797 1.797 0 0 0 1.193-1.691V4.36zM1.193 3.166h8.616v-1.97H1.193zm.113 9.977c1.485-2.903 2.619-7.105 3.039-8.781H1.199c.014 1.261.05 4.443.107 8.781zM30.802 60.74a.594.594 0 0 1-.023-.176c.411-13.654.708-32.053.886-45.159-2.188-3.027-3.81-9.273-4.238-11.043h-7.945v9.388a2.989 2.989 0 0 1-2.982 2.99.597.597 0 0 1-.597-.598V4.362H5.575c-.43 1.77-2.052 8.016-4.239 11.043.039 2.852.258 14.755.311 18.227.001.062-.01.121-.027.178.293 16.689.765 37.264 1.385 43.145 1.187.408 5.457 1.641 9.74.019l3.16-57.81a.597.597 0 0 1 1.19 0l3.16 57.81c4.285 1.624 8.554.39 9.742-.019.157-1.487.615-11.725.805-16.215z"/></g><g><path fill="#222939" d="M83 .597v3.167c0 .052-.05 4.656-.14 11.46-.173 12.844-.463 30.864-.863 44.499a.594.594 0 0 1 .033.219c-.176 4.215-.705 15.974-.89 17.518a.597.597 0 0 1-.363.48c-.231.097-5.725 2.327-11.325 0a.597.597 0 0 1-.367-.519L66.5 30.124l-2.585 47.297a.598.598 0 0 1-.367.52c-1.905.791-3.798 1.055-5.475 1.055-3.252 0-5.696-.992-5.848-1.055a.598.598 0 0 1-.364-.48c-.654-5.469-1.147-27.11-1.445-44.302a.593.593 0 0 1 .028-.183c-.068-4.191-.266-15.015-.303-17.753-.092-6.803-.14-11.407-.14-11.452V.597c0-.33.266-.597.595-.597h31.807c.33 0 .597.267.597.597zm-9.807 2.569h8.614v-1.97h-8.614zm8.608 1.196h-3.144c.42 1.676 1.554 5.878 3.038 8.781.056-4.335.092-7.515.106-8.781zM61 3.166h11v-1.97H61zm6.096 1.196v11.08a1.797 1.797 0 0 0 1.192-1.691V4.36zM51.193 3.166h8.615v-1.97h-8.615zm.113 9.977c1.485-2.903 2.619-7.105 3.039-8.781h-3.146c.014 1.261.05 4.443.107 8.781zM80.802 60.74a.59.59 0 0 1-.023-.176c.411-13.654.708-32.053.886-45.159-2.188-3.027-3.81-9.273-4.238-11.043h-7.945v9.388a2.989 2.989 0 0 1-2.982 2.99.597.597 0 0 1-.597-.598V4.362H55.575c-.43 1.77-2.052 8.016-4.239 11.043.039 2.852.258 14.755.311 18.227a.591.591 0 0 1-.027.178c.293 16.689.765 37.264 1.385 43.145 1.187.408 5.457 1.641 9.74.019l3.16-57.81a.597.597 0 0 1 1.19 0l3.16 57.81c4.285 1.624 8.554.39 9.742-.019.157-1.487.615-11.725.805-16.215z"/></g><g><path fill="#b78b69" d="M133 .597v3.167c0 .052-.05 4.656-.14 11.46-.173 12.844-.463 30.864-.863 44.499a.594.594 0 0 1 .033.219c-.176 4.215-.705 15.974-.89 17.518a.597.597 0 0 1-.363.48c-.231.097-5.725 2.327-11.325 0a.597.597 0 0 1-.367-.519L116.5 30.124l-2.585 47.297a.598.598 0 0 1-.367.52c-1.905.791-3.798 1.055-5.475 1.055-3.252 0-5.696-.992-5.848-1.055a.597.597 0 0 1-.364-.48c-.654-5.469-1.147-27.11-1.445-44.302a.593.593 0 0 1 .028-.183c-.068-4.191-.266-15.015-.303-17.753-.092-6.803-.14-11.407-.141-11.452V.597c0-.33.267-.597.596-.597h31.807c.33 0 .597.267.597.597zm-9.807 2.569h8.614v-1.97h-8.614zm8.608 1.196h-3.144c.42 1.676 1.553 5.878 3.038 8.781.056-4.335.092-7.515.106-8.781zM111 3.166h11v-1.97h-11zm6.095 1.196v11.08a1.797 1.797 0 0 0 1.193-1.691V4.36zm-15.903-1.196h8.616v-1.97h-8.616zm.113 9.977c1.485-2.903 2.619-7.105 3.039-8.781h-3.146c.014 1.261.05 4.443.107 8.781zm29.496 47.597a.594.594 0 0 1-.023-.176c.411-13.654.708-32.053.886-45.159-2.188-3.027-3.81-9.273-4.238-11.043h-7.945v9.388a2.989 2.989 0 0 1-2.982 2.99.597.597 0 0 1-.597-.598V4.362h-10.328c-.43 1.77-2.052 8.016-4.239 11.043.039 2.852.258 14.755.311 18.227a.59.59 0 0 1-.027.178c.293 16.689.765 37.264 1.385 43.145 1.187.408 5.457 1.641 9.74.019l3.16-57.81a.597.597 0 0 1 1.19 0l3.16 57.81c4.285 1.624 8.554.39 9.742-.019.157-1.487.615-11.725.805-16.215z"/></g></g></svg>