<svg xmlns="http://www.w3.org/2000/svg" width="56" height="104" viewBox="0 0 56 104"><g><g><path fill="#b78b69" d="M26.304 54.918c0 .78-.597 1.415-1.331 1.415s-1.332-.636-1.332-1.415c0-.78.598-1.415 1.332-1.415.734 0 1.33.636 1.33 1.415zm-1.331-.61c-.327 0-.53.316-.53.61s.202.61.53.61c.327 0 .53-.316.53-.61s-.203-.61-.53-.61zm.536 7.551c0 .78-.598 1.415-1.332 1.415-.734 0-1.33-.635-1.33-1.415 0-.779.596-1.414 1.33-1.414.734 0 1.332.635 1.332 1.414zm-1.332-.61c-.327 0-.53.317-.53.61 0 .295.203.61.53.61s.53-.315.53-.61c0-.293-.203-.61-.53-.61zm31.815-32.708v72.452c0 2.218-.792 3.004-3.024 3.004l-49.68-.004c-2.265-.03-3.298-.044-3.277-3.001V28.559c0-4.052-.002-6.728 2.965-10.096 3.988-4.524 10.428-7.671 18.137-8.86l.095-.016c.341-.056.73-.12.949.296.321.61 1.662 1.048 2.065 1.167l.052.016c.66.195.659.194.89-.078.078-.091.185-.216.34-.37.604-.595 1.225-.98 1.957-1.213.174-.054.302-.08.395-.1.191-.038.191-.038.188-.375V7.795c0-1.404.407-2.091 1.678-2.828.716-.415 1.039-1.29.802-2.178-.259-.972-1.054-1.551-2.128-1.551-1.127 0-1.859.525-2.178 1.563a.59.59 0 0 1-.32.381.635.635 0 0 1-.447.022c-.293-.09-.528-.382-.41-.767.476-1.55 1.699-2.44 3.354-2.44 1.617 0 2.92.97 3.322 2.471.382 1.437-.172 2.872-1.378 3.571-.911.528-1.06.783-1.06 1.815v.807l-.001.176c-.001.131-.003.245.017.266.018.017.115.02.213.016.078 0 .177-.002.3.004 4.6.181 9.087 1.066 12.978 2.556 4.27 1.636 7.716 3.919 10.241 6.784 2.969 3.37 2.968 6.039 2.965 10.078zm-1.236-.139c.006-3.54.011-6.097-2.653-9.12-2.387-2.71-5.67-4.878-9.756-6.445a32.822 32.822 0 0 0-5.11-1.523l-.231-.05c-1.01-.218-1.012-.22-1.565.1-.138.08-.31.18-.536.3a7.93 7.93 0 0 1-1.394.557c-.958.291-2.11.492-3.337.582l-.001 89.644c-.001.159-.002.285.023.31.022.02.124.015.238.01.087-.005.194-.01.329-.01h22.205c1.448 0 1.787-.163 1.787-1.764zm-25.793-5.36v-.358l.001-.149c.001-.094.002-.192-.01-.21-.015-.01-.094-.006-.176-.003a5.675 5.675 0 0 1-.239.006h-5.438c-.09 0-.16-.003-.22-.003a.292.292 0 0 0-.086.007 3.953 3.953 0 0 1 .061.33l.066.45.017.119c.03.225.035.226.213.217.06-.003.133-.006.225-.006h5.128c.102 0 .185.003.252.006.084.002.181.008.196-.006.015-.017.013-.122.011-.224a8.637 8.637 0 0 1-.001-.177zm-16.34 44.193c.058-.3.135-.749.217-1.237.516-3.027.706-6.487.584-10.58-.054-1.804-.112-3.518-.17-4.268-.073.747-.16 2.45-.244 4.246l-.004.072c-.162 3.42-.33 6.96-.375 10.548-.006.45-.012.907-.009 1.219zm2.039-7.557c-.022.761-.06 1.515-.109 2.242a10.83 10.83 0 0 1-.02.232c-.025.264-.025.264.214.336.068.02.152.046.255.08l.035.012c.379.13.771.262 1.166.356l.122.03c.384.092.594.142.69.08.087-.056.126-.232.197-.593.15-.762.262-1.61.314-2.385.045-.342.011-.465-.026-.507-.026-.033-.07-.037-.14-.038l-.02-.002c-.925-.112-1.656-.251-2.302-.441-.138-.04-.293-.087-.354-.087a.044.044 0 0 0-.022.004c-.016.02-.01.135-.006.238.005.109.01.258.006.443zM6.642 80.61v.075c.002.45.002.45.428.46l.143.002c1.255.038 2.922-.155 4.462-.497l.141-.03c.361-.078.361-.078.313-.355-.015-.083-.033-.186-.05-.314-.346-2.657-.557-5.46-.646-8.566l-.001-.037c-.154-5.443.1-10.81.346-15.997l.007-.16c.11-2.313.213-4.498.276-6.604.081-2.716-.124-9.358-1.019-15.608-.465-3.249-1.058-6.003-1.762-8.183-.049-.15-.093-.288-.132-.413-.129-.411-.242-.768-.31-.837-.084.09-.229.65-.37 1.192-2.377 9.139-2.042 37.16-1.881 50.625.027 2.273.047 3.98.055 5.247zm17.645.318c.704-3.101 1.416-7.812 2.005-13.265.546-5.071.906-10.073.963-13.38.086-5.177-1.834-8.627-4.268-12.996l-.525-.945c-2.552-4.613-4.621-8.56-6.09-13.838-.514-1.85-.498-2.079 1.665-2.873.292-.107.369-.281.26-.583-.198-.54-.643-1.183-1.074-1.803-.266-.384-.518-.746-.712-1.082a6.509 6.509 0 0 1-.26-.506c-.066-.14-.11-.233-.15-.248-.05-.013-.184.047-.386.145-.105.05-.232.113-.39.184-.98.444-1.98.884-2.946 1.309-.628.276-1.257.553-1.884.832-.11.05-.207.091-.294.129-.313.135-.485.21-.515.29-.026.067.031.192.127.4.072.158.17.373.277.663.89 2.41 1.621 5.587 2.173 9.443l.042.293c.703 4.904 1.43 9.976 1.895 15.015.24 2.593.388 4.929.453 7.14.017.574.028 1.095.033 1.595.001.167-.005.3-.011.408-.022.395-.022.404.508.575.785.255 1.568.372 2.298.46 1.286.155 1.368.55 1.286 1.728a20.042 20.042 0 0 1-.375 2.827c-.158.744-.368 1.165-.68 1.363-.415.262-.96.131-1.786-.064a12.95 12.95 0 0 1-1.122-.334c-.088-.029-.16-.056-.22-.079-.08-.029-.162-.06-.19-.06h-.005c-.005.015-.012.11-.02.213-.007.093-.016.212-.033.362-.326 2.738-.887 5.162-1.667 7.208.08 2.718.255 5.187.536 7.549.01.076.016.144.022.202.037.353.037.353.38.477.057.019.121.042.195.07 2.23.832 5.295 1.508 7.999 1.764l.266.025c1.138.113 2.036.2 2.22-.613zm-3.1-63.624c0-.148.004-.267.008-.36.003-.075.006-.15.003-.193-.042.02-.115.066-.19.114l-.208.13a30.962 30.962 0 0 1-2.828 1.522c-.137.066-.256.116-.354.158-.2.087-.334.144-.354.207-.027.082.088.278.28.601l.07.118c.199.34.436.684.688 1.048.45.65.915 1.32 1.153 1.977.395 1.084.078 1.773-.998 2.168-1.161.427-1.147.48-.897 1.378 1.43 5.143 3.467 9.026 5.978 13.569l.011.019a138.33 138.33 0 0 1 1.991 3.68c.242.469.437.86.592 1.17.127.253.238.475.318.626-.034-.19-.096-.483-.17-.836-.068-.327-.152-.728-.248-1.206-.536-2.658-1.194-5.404-1.83-8.058-1.47-6.14-2.99-12.481-3.015-17.832zm7.745 3.244l.005-4.3c0-.119.005-.22.008-.303.006-.115.01-.244-.009-.266a.041.041 0 0 0-.02-.003c-.072 0-.297.09-.423.142-.987.4-2.02 1.259-3.114 2.17-.81.673-1.647 1.369-2.499 1.9a2.717 2.717 0 0 1-.121.072c-.198.115-.206.12-.164.55.008.072.014.143.02.214l.018.2c.007.077.013.15.023.165.01.004.07.001.124-.001.049-.002.109-.005.183-.005h5.68c.143 0 .27 0 .292-.02.017-.018.012-.11.007-.207a4.87 4.87 0 0 1-.01-.308zm-4.844-8.23c-.016-.022-.143-.06-.267-.097a8.787 8.787 0 0 1-.367-.116c-.757-.261-1.357-.575-1.784-.93a2.765 2.765 0 0 1-.26-.243c-.109-.112-.109-.112-.401-.06l-.181.032c-7.21 1.195-13.222 4.171-16.928 8.379-2.657 3.014-2.655 5.447-2.652 9.13v72.58c-.029.729.074 1.185.319 1.442.292.303.788.32 1.416.32h.233c.127 0 .257 0 .392.002h21.797c.126 0 .218.004.304.004.059 0 .108-.002.117-.012.015-.014.011-.117.008-.207-.002-.066-.005-.146-.005-.244V81.445l.002-.126c.004-.161.01-.403-.067-.408h-.104c-.129 0-.146.048-.172.272a2.34 2.34 0 0 1-.033.22c-.073.335-.135.55-.196.677-.389.792-2.158.799-3.57.667-2.579-.243-5.526-.871-7.883-1.681-.127-.044-.22-.08-.288-.103l-.054-.02a.55.55 0 0 1-.037.276c-.109.279-.44.371-.66.432-1.836.513-5.33.988-6.848.593a.614.614 0 0 1-.51-.61c0-1.647-.024-3.783-.054-6.256-.16-13.418-.493-41.336 1.953-50.962l.033-.128c.546-2.151.66-2.6 2.537-3.476 1.113-.52 2.26-1.012 3.371-1.488.546-.234 1.09-.468 1.633-.705 2.868-1.255 5.79-2.68 7.732-4.589.336-.33.654-.683.996-1.107.097-.118.18-.216.25-.297.118-.14.229-.27.228-.308zm1.734 67.352c.021.012.138.01.246.005a7.77 7.77 0 0 1 .297-.005h2.358c.095.003.199.003.217-.011.01-.015.007-.098.004-.178-.003-.066-.007-.148-.007-.25V25.2c0-.113.004-.204.007-.279.004-.107.008-.207-.01-.225-.018-.018-.13-.016-.252-.015l-.2.002h-4.875l-.286-.002a.403.403 0 0 0-.147.013c-.007.02.015.12.036.216.017.076.037.169.059.283.562 3.102 1.353 6.409 2.118 9.606l.013.05c1.418 5.916 2.883 12.034 3.074 17.422.035.581.024 1.404.01 2.13-.06 3.345-.422 8.353-.966 13.392-.475 4.401-1.03 8.332-1.607 11.37-.018.1-.037.184-.051.254-.025.112-.05.228-.038.253zm3.88-68.081c.086-.003.18-.007.286-.014l.08-.005c1.137-.083 2.203-.268 3.086-.536.259-.078.709-.215.872-.294-.117-.03-.363-.06-.621-.092l-.311-.04c-1.31-.169-2.39-.253-3.261-.253-.71 0-1.278.056-1.715.169-1.358.35-2.045 1.24-2.915 2.367-.614.794-1.306 1.692-2.324 2.567-.067.058-.123.105-.173.146-.267.224-.267.224-.27.576l-.004.26c-.016.55-.013 1.128.006 1.722.003.095.004.179.005.251.003.13.005.254.019.298a1.96 1.96 0 0 0 .3-.192l.163-.114c.625-.432 1.268-.971 1.889-1.493 1.194-1.003 2.428-2.04 3.632-2.398.148-.045.257-.066.338-.082.16-.032.16-.032.157-.295l-.002-.199V12.42c0-.774.22-.813.763-.831zm-2.638 91.157c.016.015.123.015.228.012H28.709c.102 0 .214.002.231-.012a.637.637 0 0 0 .004-.185c-.003-.07-.007-.155-.007-.263v-21c0-.152-.006-.313-.052-.359-.034-.033-.122-.03-.256-.03l-.126.002h-1.138c-.227 0-.3.086-.3.352v21.035c0 .106-.003.19-.006.26-.003.081-.007.171.005.188z"/></g></g></svg>