<svg xmlns="http://www.w3.org/2000/svg" width="64" height="98" viewBox="0 0 64 98"><g><g><path fill="#b78b69" d="M57.992 21.38a.551.551 0 0 1 .202-.754l3.612-2.08a.554.554 0 0 1 .756.201.553.553 0 0 1-.203.755l-3.612 2.08a.566.566 0 0 1-.755-.202zM.057 54.642a.55.55 0 0 1 .203-.753l13.678-7.876a.55.55 0 0 1 .42-.055.552.552 0 0 1 .133 1.012L.814 54.845H.813a.566.566 0 0 1-.756-.203zm1.355 16.625a.546.546 0 0 1 .201-.754l3.613-2.082a.552.552 0 1 1 .553.956l-3.61 2.081a.566.566 0 0 1-.757-.2zm62.29-35.158L50.036 44a.566.566 0 0 1-.756-.2.548.548 0 0 1 .201-.755l13.666-7.892a.551.551 0 0 1 .555.955zm.044 3.067a.55.55 0 0 1-.258.335L42.516 51.593l.209 1.792-.006.05.707 6.326 12.578-7.239a.552.552 0 1 1 .553.956L43.57 60.953l1.986 17.872a.542.542 0 0 1-.097.375l-1.823 2.58c-.103.146-.268.23-.522.22l-.088-.012-17.042 6.414 5.9 8.098 4.361-6.174a.557.557 0 0 1 .77-.133.549.549 0 0 1 .134.77l-4.806 6.803a.555.555 0 0 1-.422.233h-.03a.553.553 0 0 1-.447-.227L24.68 88.49l-.064-.08-6.7-9.202a.548.548 0 0 1-.102-.387l.761-6.834-16.773 9.658a.566.566 0 0 1-.757-.203.542.542 0 0 1-.055-.418.545.545 0 0 1 .258-.335l17.48-10.065 1.04-9.297-11.035 6.35c-.26.15-.61.05-.757-.202a.551.551 0 0 1 .203-.754l11.742-6.756 2.316-20.728L1.032 51.443a.568.568 0 0 1-.756-.202.552.552 0 0 1 .204-.754l21.91-12.612 1.357-12.124a.55.55 0 0 1 .354-.456l13.782-5.19-.348-3.108H25.836l-.414 3.707a.564.564 0 0 1-.611.488.552.552 0 0 1-.489-.61l.4-3.585h-1.481a.551.551 0 0 1-.538-.42L19.81 4.816a.552.552 0 0 1 .238-.597L26.474.088a.546.546 0 0 1 .3-.088h9.824c.107 0 .21.03.3.088l6.431 4.132a.543.543 0 0 1 .247.455.557.557 0 0 1-.01.141l-2.898 11.76a.553.553 0 0 1-.538.42h-1.482l1.055 9.331-.005.057.157 1.422 2.337-1.339a.553.553 0 0 1 .552.957l-2.754 1.578.22 1.987 15.03-8.669a.551.551 0 1 1 .554.955l-15.448 8.912.865 7.698-.003.024 1.173 10.488 20.554-11.842a.54.54 0 0 1 .42-.055c.142.038.262.13.335.257a.548.548 0 0 1 .056.42zM21.547 7.242l16.27-6.139h-10.88L20.98 4.935zm1.413 5.715l19.244-7.259.191-.765-4.291-2.757L21.817 8.32zm16.737 2.935l2.192-8.894-18.67 7.043.455 1.851zm-15.48 15.61l14.334-5.415-.542-4.85-13.2 4.973zm-.916 8.186l16.093-6.053-.717-6.416-14.599 5.515zm-.729 6.524l17.49-6.594-.541-4.85-16.358 6.152zm-.916 8.205l19.25-7.252-.717-6.414-17.755 6.694zm-.726 6.51l20.645-7.777-.544-4.852-19.514 7.351zm-.919 8.202l22.405-8.442-.715-6.404L20.79 62.16zm24.044 6.22l-21.637 8.16 2.891 3.967 17.542-6.603.1-.037 1.482-2.1zm-.843-7.539l-24.067 9.076-.207 1.846 2.806 3.85 22.184-8.364zm-23.339 2.552l-.59 5.292 23.801-8.975-.541-4.86zm24.164 11.456zm19.08-32.116l-3.6 2.068a.564.564 0 0 1-.756-.204.549.549 0 0 1 .203-.754l3.6-2.066h.001a.55.55 0 0 1 .755.203.551.551 0 0 1-.204.754zM15.254 77.17L1.576 85.047a.568.568 0 0 1-.755-.202.551.551 0 0 1 .203-.754l13.678-7.876v-.001a.552.552 0 0 1 .553.956z"/></g></g></svg>