<svg xmlns="http://www.w3.org/2000/svg" width="70" height="94" viewBox="0 0 70 94"><g><g><path fill="#b78b69" d="M37.484 36.733a2.091 2.091 0 0 1 2.089 2.079 2.087 2.087 0 0 1-4.17 0c0-.572.232-1.088.611-1.465.38-.377.9-.614 1.47-.614zm.71 1.368a.982.982 0 0 0-.71-.292.978.978 0 0 0-.704.292.992.992 0 0 0-.294.71c0 .28.11.536.294.718a1.006 1.006 0 0 0 1.415 0c.183-.182.294-.437.294-.717 0-.28-.11-.529-.294-.711zm-.71 12.923a2.091 2.091 0 0 1 2.089 2.079 2.08 2.08 0 0 1-.613 1.464c-.38.378-.9.614-1.476.614-.57 0-1.09-.236-1.47-.614a2.055 2.055 0 0 1 0-2.93c.38-.376.9-.613 1.47-.613zm.71 1.367a.984.984 0 0 0-.71-.291.98.98 0 0 0-.704.291.982.982 0 0 0-.294.712c0 .28.11.529.294.71a.978.978 0 0 0 .704.292.982.982 0 0 0 .71-.291.99.99 0 0 0 .295-.711c0-.28-.11-.535-.294-.712zm-.71 12.923a2.087 2.087 0 0 1 2.089 2.08 2.08 2.08 0 0 1-2.089 2.072 2.083 2.083 0 0 1-2.082-2.073 2.083 2.083 0 0 1 2.082-2.08zm.71 1.362a1.007 1.007 0 0 0-1.414 0 1.006 1.006 0 0 0-.294.717c0 .28.11.53.294.712a.978.978 0 0 0 .704.291.982.982 0 0 0 .71-.291.994.994 0 0 0 .295-.712c0-.28-.11-.535-.294-.717zM29.56 9.951c-.698-3.13.356-5.258 2.083-6.455 1.182-.815 2.682-1.18 4.146-1.113 1.464.06 2.909.553 3.975 1.447 1.494 1.252 2.26 3.257 1.353 5.944-.155.468-3.54 14.766-4.602 19.247l10.04-12.676-4.587-4.777 4.863-1.44-1.807-2.719a14.775 14.775 0 0 1-.263-.418 3.043 3.043 0 0 1-.165-.28A9.328 9.328 0 0 0 40.19 2.14c-1.427-.705-3.019-1.058-4.618-1.076a11.348 11.348 0 0 0-4.703.979c-2.064.924-3.858 2.504-4.967 4.705a1.2 1.2 0 0 0-.049.109h-.006a.913.913 0 0 1-.178.297l-2.694 2.943 5.12 1.507-4.722 4.717L34.51 28.433c-.726-2.7-4.85-18.027-4.95-18.482zm1.054-.231c.08.37 4.342 16.205 4.973 18.552 1.17-4.966 4.336-18.321 4.513-18.838.735-2.188.147-3.799-1.035-4.79-.875-.736-2.082-1.142-3.319-1.192-1.243-.054-2.499.244-3.485.925-1.396.96-2.235 2.717-1.647 5.343zm4.55 21.013L21.886 16.291l4.176-4.17-5.04-1.483 2.472-2.696-12.528 4.124a.842.842 0 0 0-.19.085h-.006l-.067.03c-.68.28-.803.615-1.01 1.161l-.099.262c-.092.237-.184.468-.257.68-3.326 9.55-5.439 19.561-6.694 29.482-1.256 9.939-1.654 19.767-1.55 28.952l.013.942.018 1.903c.006.322.08.523.196.632.129.11.35.152.625.152 2.541 0 5.138-.054 7.68-.006.171.006.312-.042.398-.134.104-.11.165-.273.165-.498l.006-.024v-.717c0-.323 0-.627.013-.992.183-6.777.581-13.768 1.218-20.831.6-6.583 1.415-13.227 2.475-19.816.006-.018.024-.219.049-.432.024-.217.048-.45.063-.573a73.218 73.218 0 0 0-.217-4.429c-.275-3.38-.857-6.62-2.027-9.78a.538.538 0 0 1 1.01-.37c1.213 3.263 1.807 6.6 2.095 10.065.118 1.434.182 2.892.215 4.379.009.064.008.131.004.2.031 1.556.03 3.142.019 4.763.02 1.113.033 2.228.007 3.368-.092 3.799-.63 18.868-1.396 31.244-.453 7.33-.98 13.743-1.543 16.375l-.013.067c-.171.79-.19.888.503 1.235 4.82 2.4 12.91 2.528 18.538 2.613.386.004.76.01 1.116.018l.005-.146V91.8c.006-.122.012-.238.012-.334l.386-55.522c.006-.486-.006-.857-.019-1.143-.018-.547-.024-.827.098-1.15.123-.321.337-.552.772-1.026.178-.194.398-.432.704-.778zM24.936 6.273c1.224-2.438 3.209-4.182 5.493-5.203A12.264 12.264 0 0 1 35.586 0c1.764.012 3.515.407 5.083 1.186a10.364 10.364 0 0 1 4.862 4.98l16.114 5.864c.722.261.919.935 1.078 1.495l.049.17c2.51 8.103 4.293 17.397 5.456 27.092 1.305 10.796 1.844 22.114 1.764 32.843 0 .134 0 .261-.006.383 0 .225-.006.444 0 .662.025 1.088-.03 1.733-.465 2.189-.423.443-1.097.559-2.285.553l-5.738-.012h-.41c-.956.006-1.47-.322-1.77-.857-.258-.474-.288-1.04-.307-1.672-.012-.407-.012-.468-.006-.517.012-.164-.006-.383-.006-.553-.16-10.698-.306-20.515-2.04-31.316-.048-.31-.11-.633-.17-.992-.047-.25-.096-.515-.145-.797-.03 3.61.142 7.56.42 12.414.147 2.57.25 5.61.361 8.838.319 9.282.686 20.187 2.364 27.086.3 1.234-1.237 2.091-3.772 2.7-4.38 1.045-11.973 1.561-17.4 1.932-1.371.091-2.596.176-3.644.261-.202.019-.25.019-.422.037l-.147.012c-.956.079-1.482-.097-1.795-.516a1.278 1.278 0 0 1-.174-.325c-.404-.007-.815-.011-1.24-.016-5.727-.091-13.97-.219-19.004-2.729-1.44-.718-1.403-.906-1.078-2.407l.012-.067c.551-2.577 1.072-8.936 1.519-16.218.766-12.4 1.31-27.42 1.396-31.207.007-.304.013-.608.013-.906a307.424 307.424 0 0 0-1.556 13.653 335.164 335.164 0 0 0-1.219 20.764c-.006.359-.006.65-.006.96 0 .231 0 .469-.006.736v.03c-.012.505-.178.918-.465 1.216-.3.304-.71.468-1.195.462-2.553 0-5.107 0-7.661.006-.533 0-.986-.122-1.33-.42-.354-.303-.556-.76-.569-1.416l-.018-1.915-.012-.942c-.104-9.24.294-19.123 1.555-29.086 1.262-9.981 3.393-20.06 6.75-29.7.116-.334.19-.523.263-.717l.098-.256c.312-.814.502-1.312 1.604-1.768l.012-.006c.056-.03.153-.08.331-.134L24.895 6.36c.013-.03.026-.06.04-.086zm23.59 4.468l-4.568 1.356 4.017 4.181-12.849 16.23-.018.018c-.282.323-.533.596-.735.815-.343.371-.508.554-.563.687-.043.128-.037.334-.025.735.013.292.025.663.019 1.18l-.392 55.522c0 .133 0 .249-.006.364l-.007.128c-.012.432-.012.754.074.875.073.092.312.128.839.08l.576-.05c.98-.078 2.247-.163 3.656-.261 5.39-.364 12.94-.88 17.221-1.902 1.899-.456 3.093-.93 2.977-1.41-1.703-7.003-2.076-17.97-2.395-27.3-.11-3.197-.208-6.206-.361-8.82-.423-7.434-.6-12.777-.196-18.01.404-5.246.876-10.206 3.289-17.349a.539.539 0 0 1 .661-.376c.288.073.46.37.38.656-1.714 5.03-2.45 9.13-2.877 13.001l.072.007c-.466 4.754.14 8.073.533 10.212.067.377.128.717.177 1.009 1.74 10.875 1.887 20.734 2.052 31.475l.006.535v.103c-.006.031-.006.073.006.408.013.498.037.936.178 1.191.104.195.337.31.814.304 2.052-.006 4.104.012 6.155.018.876 0 1.33-.042 1.507-.225.165-.182.184-.632.165-1.422V74.7c-.006-.237 0-.468.006-.705 0-.128.007-.25.007-.365.073-10.68-.466-21.95-1.764-32.72-1.158-9.642-2.928-18.869-5.414-26.899-.037-.115-.043-.158-.055-.188-.092-.322-.208-.711-.41-.79l-14.81-5.384z"/></g></g></svg>