<svg xmlns="http://www.w3.org/2000/svg" width="34" height="34" viewBox="0 0 34 34"><g><g><path fill="#222939" d="M17 0c9.389 0 17 7.61 17 17 0 9.389-7.611 17-17 17S0 26.389 0 17C0 7.61 7.61 0 17 0zm.218 13.616c-1.612 0-2.75 1.189-2.75 2.866s1.138 2.865 2.75 2.865c1.613 0 2.751-1.188 2.751-2.865 0-1.677-1.138-2.866-2.75-2.866zm3.904-3.62h-7.807c-1.808 0-2.342.565-2.342 2.467v8.06c0 1.904.534 2.471 2.342 2.471h7.807c1.807 0 2.342-.567 2.342-2.47v-8.06c0-1.903-.535-2.469-2.342-2.469zm-3.904 11.273c-2.647 0-4.584-2.022-4.584-4.776 0-2.75 1.937-4.775 4.584-4.775 2.647 0 4.585 2.025 4.585 4.775 0 2.754-1.938 4.776-4.585 4.776zm4.373-8.344c-.518 0-.937-.441-.937-.987 0-.543.42-.986.937-.986.517 0 .936.443.936.986 0 .546-.419.987-.936.987z"/></g></g></svg>