<svg xmlns="http://www.w3.org/2000/svg" width="19" height="16" viewBox="0 0 19 16"><defs><clipPath id="2mp1a"><path fill="#fff" d="M18.739 3.57C18.286 2.21 17.267 1.12 15.87.494a5.638 5.638 0 0 0-2.315-.482c-1.55 0-3.002.565-4.051 1.563C8.455.576 7.004.011 5.453.011c-.818 0-1.597.162-2.316.483C1.742 1.12.724 2.211.271 3.57c-.37 1.106-.532 2.895.783 5.14 1.34 2.29 3.594 3.972 7.329 6.76l.402.3a1.206 1.206 0 0 0 1.439 0l.392-.294c3.74-2.79 5.998-4.475 7.338-6.766 1.316-2.246 1.153-4.035.785-5.14z"/></clipPath></defs><g><g><path fill="#f6cf75" d="M18.739 3.57C18.286 2.21 17.267 1.12 15.87.494a5.638 5.638 0 0 0-2.315-.482c-1.55 0-3.002.565-4.051 1.563C8.455.576 7.004.011 5.453.011c-.818 0-1.597.162-2.316.483C1.742 1.12.724 2.211.271 3.57c-.37 1.106-.532 2.895.783 5.14 1.34 2.29 3.594 3.972 7.329 6.76l.402.3a1.206 1.206 0 0 0 1.439 0l.392-.294c3.74-2.79 5.998-4.475 7.338-6.766 1.316-2.246 1.153-4.035.785-5.14z"/></g><g><path fill="none" stroke="#222939" stroke-miterlimit="20" stroke-width="2.2" d="M18.739 3.57C18.286 2.21 17.267 1.12 15.87.494a5.638 5.638 0 0 0-2.315-.482c-1.55 0-3.002.565-4.051 1.563C8.455.576 7.004.011 5.453.011c-.818 0-1.597.162-2.316.483C1.742 1.12.724 2.211.271 3.57c-.37 1.106-.532 2.895.783 5.14 1.34 2.29 3.594 3.972 7.329 6.76l.402.3a1.206 1.206 0 0 0 1.439 0l.392-.294c3.74-2.79 5.998-4.475 7.338-6.766 1.316-2.246 1.153-4.035.785-5.14z" clip-path="url(&quot;#2mp1a&quot;)"/></g></g></svg>