<svg xmlns="http://www.w3.org/2000/svg" width="25" height="25" viewBox="0 0 25 25"><g><g><path fill="#fff" d="M24.999 12.399c0 6.837-5.575 12.4-12.428 12.4-1.952 0-3.9-.466-5.635-1.347l-.355-.18L0 24.999l2.017-6.037-.233-.405a12.377 12.377 0 0 1-1.641-6.158c0-6.837 5.575-12.4 12.428-12.4C19.424-.001 25 5.562 25 12.399zm-4.724 4.338c-.933-.725-1.934-1.491-2.995-2.194-.661-.44-1.387-.296-1.943.383-.089.108-.175.219-.26.33l-.161.205c-.327.413-.544.48-.965.295-.57-.248-1.228-.56-1.789-.978-1.268-.945-2.043-2.007-2.369-3.245-.143-.543-.03-.905.367-1.176.24-.165.457-.36.64-.532.551-.513.502-1.03.364-1.374-.509-1.263-1.332-2.413-2.517-3.517-.466-.433-1.105-.46-1.667-.071a14.21 14.21 0 0 0-1.201.894c-.976.837-1.138 1.456-.697 2.649 2.121 5.727 6.096 9.832 11.814 12.201.142.06.289.088.444.118.072.014.149.029.231.048l.06.014.06-.017c.068-.018.14-.035.215-.05.195-.044.414-.093.617-.198.898-.468 1.591-1.24 2.061-2.296.255-.573.137-1.143-.309-1.489z"/></g></g></svg>