<svg xmlns="http://www.w3.org/2000/svg" width="12" height="11" viewBox="0 0 12 11"><g><g opacity="-1"><path fill="#222939" d="M9.36 10.995a2.036 2.036 0 0 1-.84-.133c-.97-.355-1.902-.8-2.784-1.328-.553-.333-1.084-.7-1.589-1.1A14.322 14.322 0 0 1 1.97 6.286 15.503 15.503 0 0 1 .205 3.623 1.753 1.753 0 0 1 0 2.802a1.812 1.812 0 0 1 .48-1.25c.326-.363.654-.724.983-1.084.28-.317.694-.491 1.122-.47.322.014.629.14.866.353L4.91 1.61a1.36 1.36 0 0 1 .477.962c.021.364-.109.722-.36.992L3.923 4.776a6.032 6.032 0 0 0 1.483 1.747c.473.372.998.673 1.56.896l1.102-1.215a1.423 1.423 0 0 1 2.029-.101l1.41 1.224c.18.15.317.343.402.559a1.34 1.34 0 0 1-.269 1.397l-.266.3c-.251.277-.5.555-.755.828a1.84 1.84 0 0 1-1.019.554 1.91 1.91 0 0 1-.24.03z"/></g></g></svg>