<?xml version="1.0" standalone="no"?>
<!DOCTYPE svg PUBLIC "-//W3C//DTD SVG 20010904//EN"
 "http://www.w3.org/TR/2001/REC-SVG-20010904/DTD/svg10.dtd">
<svg version="1.0" xmlns="http://www.w3.org/2000/svg"
 width="628.000000pt" height="483.000000pt" viewBox="0 0 628.000000 483.000000"
 preserveAspectRatio="xMidYMid meet">

<g transform="translate(0.000000,483.000000) scale(0.100000,-0.100000)"
fill="#000000" stroke="none">
<path d="M0 3409 c0 -1132 3 -1420 13 -1417 6 3 13 18 15 34 3 37 23 105 35
122 5 6 17 12 26 12 13 0 16 10 15 48 -1 26 -4 54 -7 62 -15 39 -1 79 46 128
27 30 47 61 47 74 1 33 37 108 67 140 l27 28 -39 33 c-34 29 -38 38 -39 80 -1
41 3 51 32 78 26 24 30 34 22 49 -15 28 -12 67 5 74 14 5 12 13 -11 51 -14 25
-24 49 -20 52 6 7 153 -14 169 -24 16 -10 -6 -23 -41 -23 -28 0 -33 -3 -22
-10 8 -5 37 -10 63 -10 40 0 47 3 45 17 -2 9 7 22 19 28 17 9 20 14 11 23 -9
9 -9 20 1 48 17 46 2 67 -28 40 -24 -22 -41 -13 -41 19 0 29 31 40 90 32 42
-5 57 2 84 43 27 42 14 102 -17 71 -25 -25 -151 -4 -159 27 -4 13 -23 22 -62
31 -36 8 -56 18 -56 27 0 8 1 14 3 14 1 0 37 -7 80 -15 110 -21 137 -20 137 5
0 14 -7 20 -24 20 -13 0 -34 8 -47 18 -13 11 -36 22 -51 26 -16 3 -28 11 -28
16 0 18 22 21 45 6 32 -21 35 -20 35 10 0 25 1 25 56 18 54 -6 56 -6 52 17 -2
18 -14 26 -56 39 -64 18 -68 36 -8 32 38 -2 44 0 49 19 7 27 1 39 -19 39 -8 0
-14 5 -14 10 0 6 14 10 30 10 17 0 30 3 30 6 0 12 -52 55 -79 66 -36 15 -7 22
45 10 52 -12 64 -6 64 31 0 17 7 38 16 48 14 16 14 20 0 41 -14 22 -14 27 8
74 13 28 36 61 52 73 15 12 36 36 47 54 11 18 38 53 61 79 22 25 47 53 54 62
7 9 21 16 31 16 14 0 18 5 14 18 -3 13 15 37 61 80 64 59 107 81 166 83 14 0
19 3 12 6 -17 7 -5 23 19 23 10 0 19 5 19 10 0 6 50 9 138 7 153 -4 232 7 240
35 6 23 30 30 67 19 l30 -8 -30 -8 c-56 -13 -60 -19 -17 -23 l44 -3 -6 -34
c-6 -31 -4 -35 17 -40 18 -5 31 0 51 20 14 14 26 31 26 36 0 6 11 8 28 5 15
-4 41 -2 58 3 17 5 37 5 44 1 7 -4 28 -3 47 3 25 8 40 8 53 0 22 -15 30 -7 30
29 0 41 33 37 60 -7 12 -19 30 -40 41 -45 16 -9 22 -4 44 31 18 27 31 39 41
35 9 -3 18 -6 20 -6 2 0 4 -7 4 -15 0 -20 20 -18 50 5 31 24 126 28 156 5 30
-22 104 -18 104 7 0 18 41 68 56 68 8 0 14 -9 14 -20 0 -24 22 -26 40 -4 27
31 50 36 87 19 37 -18 35 -31 -7 -37 -18 -2 -26 -11 -31 -36 -11 -56 -69 -100
-69 -52 0 14 -7 20 -23 20 -33 0 -40 -10 -21 -31 9 -10 14 -25 11 -33 -12 -30
16 -27 66 7 29 19 72 45 97 58 36 18 41 24 25 27 -35 7 -39 20 -12 33 21 10
35 9 67 -1 38 -13 42 -12 68 12 41 39 68 50 81 35 8 -10 7 -22 -1 -45 -13 -35
-1 -103 19 -109 7 -3 26 17 43 43 30 47 31 48 79 45 46 -2 49 -1 69 33 23 39
42 47 42 18 0 -10 5 -23 12 -30 9 -9 8 -16 -5 -30 -10 -11 -15 -26 -12 -35 8
-19 -25 -31 -63 -23 -20 5 -34 0 -54 -19 -16 -14 -28 -30 -28 -35 0 -17 56
-11 81 8 13 11 45 22 72 25 26 4 58 14 71 22 36 24 87 36 123 29 26 -5 33 -11
33 -30 0 -18 7 -24 34 -29 19 -4 43 -2 55 5 14 7 27 8 38 1 16 -8 14 -11 -10
-22 -34 -15 -34 -26 -1 -41 20 -9 30 -9 45 0 10 7 25 12 33 12 7 0 19 7 26 15
7 8 27 15 45 15 20 0 42 9 59 25 15 14 36 25 47 25 21 0 26 -16 7 -23 -8 -2
-1 -10 15 -18 23 -10 32 -10 45 -1 29 21 76 40 85 35 5 -3 5 -8 0 -12 -18 -11
-22 -49 -6 -55 28 -11 48 -6 61 15 13 20 14 20 33 3 19 -17 20 -17 25 3 8 30
32 36 44 13 6 -11 19 -20 30 -20 10 0 32 -11 48 -25 27 -22 39 -25 111 -25 65
0 81 -3 81 -15 0 -11 -11 -15 -40 -15 -32 0 -40 -4 -40 -19 0 -31 24 -43 67
-35 21 5 41 8 44 9 4 0 15 10 25 23 18 22 21 23 49 8 17 -9 35 -16 41 -16 6 0
23 -10 38 -21 21 -16 26 -27 22 -45 -5 -20 0 -27 33 -44 39 -19 101 -27 114
-13 4 3 0 15 -9 25 -13 13 -20 15 -30 7 -10 -9 -15 -7 -20 4 -3 9 -3 21 1 27
8 14 58 13 73 -2 9 -9 16 -8 30 5 23 21 36 9 47 -42 l7 -34 23 29 23 28 53
-13 c30 -7 62 -20 72 -29 16 -14 22 -14 70 6 29 12 63 22 76 22 14 0 40 5 58
12 25 9 36 9 44 1 9 -9 -8 -17 -65 -34 -76 -22 -98 -44 -53 -53 62 -13 98 -16
121 -10 22 5 24 10 19 35 -6 33 -7 33 36 18 26 -9 34 -9 44 4 18 23 142 29
184 9 31 -15 37 -14 83 2 89 32 138 2 56 -35 -25 -11 -46 -24 -46 -29 0 -19
42 -10 71 15 18 15 36 22 47 18 25 -9 82 -53 80 -61 -2 -4 11 -21 27 -38 17
-16 41 -45 55 -63 14 -19 40 -49 58 -67 17 -18 32 -38 32 -45 0 -6 9 -22 19
-36 16 -20 18 -29 9 -48 -8 -19 -8 -28 3 -41 9 -11 14 -42 14 -89 0 -59 4 -77
20 -95 13 -15 20 -37 21 -68 3 -149 3 -150 31 -182 26 -32 30 -46 39 -150 5
-46 1 -62 -21 -102 -22 -40 -35 -50 -80 -67 -29 -11 -93 -28 -143 -37 l-89
-17 -37 22 c-39 24 -47 19 -19 -12 17 -18 17 -19 -2 -33 -10 -8 -25 -14 -33
-14 -9 0 -12 -6 -8 -16 3 -9 6 -26 6 -39 0 -16 9 -26 33 -36 43 -18 228 -193
246 -233 7 -17 19 -42 26 -56 6 -14 22 -53 35 -88 12 -34 31 -69 42 -76 24
-17 88 -161 88 -198 0 -48 -85 -85 -235 -103 -53 -6 -64 -12 -97 -47 l-37 -40
36 -50 c20 -27 42 -52 48 -54 7 -3 33 6 59 20 l47 25 -33 3 c-60 6 -40 31 42
55 87 25 178 29 205 9 18 -13 18 -14 -6 -27 -13 -7 -46 -18 -74 -25 l-50 -11
48 -13 c64 -17 82 -44 71 -107 -10 -64 -8 -164 4 -172 5 -3 12 -15 16 -26 3
-11 15 -31 26 -45 19 -25 20 -16 20 1628 l0 1652 -1359 0 c-896 0 -1362 -3
-1366 -10 -3 -5 -13 -10 -21 -10 -8 0 -12 5 -9 10 4 7 -585 10 -1759 10
l-1766 0 0 -1421z m3470 1376 c-7 -8 -16 -12 -21 -9 -13 8 -1 24 18 24 13 0
13 -3 3 -15z m-417 -30 c-3 -13 -53 -20 -53 -7 0 15 13 23 35 20 11 -2 19 -7
18 -13z m-613 -5 c0 -5 -4 -10 -10 -10 -5 0 -10 5 -10 10 0 6 5 10 10 10 6 0
10 -4 10 -10z m-83 -6 c-3 -3 -12 -4 -19 -1 -8 3 -5 6 6 6 11 1 17 -2 13 -5z
m-277 -29 c0 -8 -9 -15 -20 -15 -11 0 -20 7 -20 15 0 8 9 15 20 15 11 0 20 -7
20 -15z m546 -6 c10 -17 -13 -36 -27 -22 -12 12 -4 33 11 33 5 0 12 -5 16 -11z
m304 -13 c0 -15 -78 -46 -114 -46 -25 0 -14 11 39 39 46 24 75 27 75 7z m-632
-23 c2 -9 -8 -13 -30 -13 -18 -1 -46 -7 -63 -14 -30 -14 -30 -15 18 -30 29 -9
19 -26 -16 -26 -19 0 -56 -7 -83 -15 -79 -24 -94 -16 -27 15 51 23 61 32 56
48 -4 17 3 23 44 35 56 18 95 17 101 0z m-368 -16 c0 -7 -10 -17 -22 -22 -14
-6 -24 -21 -26 -37 -4 -31 -11 -35 -89 -43 -48 -6 -61 -4 -73 10 -12 14 -12
18 1 26 8 5 29 9 48 9 28 0 32 2 21 15 -17 20 -4 35 33 36 18 1 43 5 57 9 37
12 50 11 50 -3z m-212 -22 c-2 -5 -14 -8 -28 -7 -14 1 -43 -4 -64 -12 -47 -16
-76 -10 -76 16 0 17 7 19 85 16 48 -2 84 -7 83 -13z m-208 -4 c0 -12 -29 -23
-41 -15 -5 3 -7 10 -4 15 8 12 45 12 45 0z m968 -3 c-5 -15 -78 -24 -78 -10 0
16 13 22 48 22 22 0 32 -4 30 -12z m880 -2 c4 -5 -56 -86 -73 -98 -17 -12 -28
9 -16 30 6 11 11 31 11 45 0 13 3 27 7 31 7 7 62 1 71 -8z m-318 -31 c0 -8 -7
-15 -15 -15 -16 0 -20 12 -8 23 11 12 23 8 23 -8z m-1433 -19 c16 -15 -19 -26
-91 -29 -70 -3 -98 4 -82 20 19 19 157 26 173 9z m302 -45 c10 -7 8 -12 -10
-25 -30 -20 -58 -21 -66 0 -10 28 43 46 76 25z m1561 -16 c0 -26 -22 -33 -49
-16 -12 8 -12 12 -2 25 21 26 51 20 51 -9z m-2075 6 c7 -13 -30 -24 -55 -16
-28 9 -15 25 20 25 16 0 31 -4 35 -9z m2305 -46 c0 -10 -10 -15 -30 -15 -47 0
-35 27 13 29 9 1 17 -6 17 -14z m-30 -40 c0 -17 -2 -18 -24 -9 -23 9 -20 24 4
24 11 0 20 -7 20 -15z m680 -54 c0 -11 -25 -21 -56 -21 -23 0 -31 10 -17 23
10 10 73 8 73 -2z m329 -93 c44 -21 44 -22 19 -30 -34 -12 -78 6 -78 32 0 25
3 25 59 -2z m-4195 -644 c22 -9 20 -24 -3 -24 -21 0 -34 13 -24 24 8 7 8 7 27
0z m-129 -445 c5 -5 -4 -9 -27 -9 -43 0 -68 8 -68 22 0 13 80 2 95 -13z m-20
-89 c28 -7 56 -14 63 -16 7 -2 11 -8 7 -13 -3 -5 -37 -9 -76 -7 -71 2 -109 21
-94 46 8 12 14 12 100 -10z"/>
<path d="M2810 4450 c-15 -16 -34 -30 -40 -30 -7 0 -1 -11 14 -25 31 -29 36
-30 61 -11 13 9 19 27 20 55 1 50 -15 54 -55 11z"/>
<path d="M2256 4444 c-8 -22 20 -42 51 -36 29 5 63 29 63 43 0 15 -108 8 -114
-7z"/>
<path d="M1913 4443 c-40 -8 -25 -23 23 -23 32 0 44 4 42 13 -5 13 -30 17 -65
10z"/>
<path d="M1522 4419 c2 -6 8 -10 13 -10 5 0 11 4 13 10 2 6 -4 11 -13 11 -9 0
-15 -5 -13 -11z"/>
<path d="M2168 4413 c7 -3 16 -2 19 1 4 3 -2 6 -13 5 -11 0 -14 -3 -6 -6z"/>
<path d="M3314 4409 c-9 -15 12 -33 30 -26 9 4 16 13 16 22 0 17 -35 21 -46 4z"/>
<path d="M2660 4370 c-25 -49 -25 -60 -1 -60 25 0 41 21 48 64 8 51 -20 48
-47 -4z"/>
<path d="M2387 4382 c-20 -22 -21 -32 -5 -32 6 0 20 -8 30 -17 30 -27 45 -2
22 36 -21 36 -25 37 -47 13z"/>
<path d="M1795 4369 c-10 -15 1 -23 20 -15 9 3 13 10 10 16 -8 13 -22 13 -30
-1z"/>
<path d="M1492 4358 c-18 -18 -14 -38 8 -38 20 0 44 32 33 44 -10 10 -28 7
-41 -6z"/>
<path d="M2900 4349 c-24 -20 -24 -21 -5 -35 25 -18 49 -18 66 2 9 11 10 20 2
32 -15 24 -35 25 -63 1z"/>
<path d="M2016 4328 c-19 -38 -19 -38 -3 -38 21 0 50 37 44 55 -10 24 -24 18
-41 -17z"/>
<path d="M3318 4348 c5 -5 16 -8 23 -6 8 3 3 7 -10 11 -17 4 -21 3 -13 -5z"/>
<path d="M4079 4330 c25 -22 41 -26 41 -10 0 11 -33 30 -52 30 -7 -1 -3 -9 11
-20z"/>
<path d="M1366 4308 c-11 -41 -8 -52 9 -38 16 13 21 60 6 60 -5 0 -11 -10 -15
-22z"/>
<path d="M2275 4311 c-9 -16 3 -31 26 -31 14 0 19 6 17 17 -4 20 -33 29 -43
14z"/>
<path d="M3178 4313 c7 -3 16 -2 19 1 4 3 -2 6 -13 5 -11 0 -14 -3 -6 -6z"/>
<path d="M2499 4273 c-12 -15 -12 -16 7 -11 12 3 29 1 39 -4 18 -11 39 7 29
24 -9 14 -61 8 -75 -9z"/>
<path d="M1880 4259 c-13 -8 -13 -10 0 -19 21 -14 30 -12 30 4 0 20 -13 27
-30 15z"/>
<path d="M2428 4253 c-19 -5 -24 -18 -9 -27 4 -3 16 3 26 14 18 20 16 22 -17
13z"/>
<path d="M2108 4243 c7 -3 16 -2 19 1 4 3 -2 6 -13 5 -11 0 -14 -3 -6 -6z"/>
<path d="M1250 4230 c0 -5 5 -10 10 -10 6 0 10 5 10 10 0 6 -4 10 -10 10 -5 0
-10 -4 -10 -10z"/>
<path d="M2015 4170 c-3 -5 3 -10 14 -10 12 0 21 5 21 10 0 6 -6 10 -14 10 -8
0 -18 -4 -21 -10z"/>
<path d="M1080 4150 c0 -5 4 -10 9 -10 6 0 13 5 16 10 3 6 -1 10 -9 10 -9 0
-16 -4 -16 -10z"/>
<path d="M4875 4150 c-4 -6 11 -10 37 -9 36 1 39 2 18 9 -36 11 -48 11 -55 0z"/>
<path d="M4742 4131 c-9 -5 -2 -15 27 -34 22 -15 42 -27 44 -27 2 0 3 16 3 35
0 32 -2 35 -30 35 -17 0 -37 -4 -44 -9z"/>
<path d="M5380 4110 c0 -12 8 -12 35 0 18 8 17 9 -7 9 -16 1 -28 -3 -28 -9z"/>
<path d="M5512 4104 c10 -10 20 -15 24 -12 3 4 -5 12 -18 18 -22 12 -22 12 -6
-6z"/>
<path d="M4995 4060 c-3 -5 1 -10 9 -10 8 0 18 5 21 10 3 6 -1 10 -9 10 -8 0
-18 -4 -21 -10z"/>
<path d="M5235 4040 c3 -5 17 -10 31 -10 14 0 22 4 19 10 -3 6 -17 10 -31 10
-14 0 -22 -4 -19 -10z"/>
<path d="M5500 4025 c0 -8 5 -15 10 -15 6 0 10 7 10 15 0 8 -4 15 -10 15 -5 0
-10 -7 -10 -15z"/>
<path d="M5715 4030 c-16 -7 -17 -9 -3 -9 9 -1 20 4 23 9 7 11 7 11 -20 0z"/>
<path d="M5340 3965 c0 -10 7 -15 18 -13 21 4 19 22 -2 26 -10 2 -16 -3 -16
-13z"/>
<path d="M5580 3956 c19 -7 37 -12 39 -10 8 7 -6 14 -40 19 l-34 5 35 -14z"/>
<path d="M5490 3860 c34 -27 59 -27 35 0 -10 11 -28 20 -39 20 -20 0 -20 -1 4
-20z"/>
<path d="M5600 3781 c0 -16 30 -33 46 -27 13 5 14 9 4 21 -13 16 -50 21 -50 6z"/>
<path d="M5710 3690 c0 -5 7 -10 16 -10 8 0 12 5 9 10 -3 6 -10 10 -16 10 -5
0 -9 -4 -9 -10z"/>
<path d="M5664 3375 c-3 -8 -3 -19 0 -24 10 -16 36 -1 36 20 0 22 -28 26 -36
4z"/>
<path d="M5802 2378 c3 -7 13 -15 22 -16 12 -3 17 1 14 10 -3 7 -13 15 -22 16
-12 3 -17 -1 -14 -10z"/>
<path d="M5655 2320 c3 -5 10 -10 16 -10 5 0 9 5 9 10 0 6 -7 10 -16 10 -8 0
-12 -4 -9 -10z"/>
<path d="M5517 2239 c11 -12 29 -19 39 -17 16 3 13 7 -13 21 -43 23 -52 21
-26 -4z"/>
<path d="M5774 2228 c-7 -11 29 -48 46 -48 19 0 17 31 -3 45 -26 18 -34 19
-43 3z"/>
<path d="M5610 2150 c0 -5 5 -10 10 -10 6 0 10 5 10 10 0 6 -4 10 -10 10 -5 0
-10 -4 -10 -10z"/>
<path d="M5860 2142 c0 -16 51 -45 61 -35 6 6 5 14 -3 20 -20 16 -58 26 -58
15z"/>
<path d="M0 1952 c0 -10 70 -36 77 -28 3 3 -10 13 -30 21 -42 17 -47 18 -47 7z"/>
<path d="M0 955 l0 -955 1455 0 c1144 0 1454 3 1452 12 -1 7 8 14 21 16 15 2
22 -2 22 -12 0 -15 159 -16 1665 -16 l1665 0 0 727 c0 650 -2 725 -15 706 -16
-23 -54 -38 -121 -47 -23 -3 -61 -15 -85 -26 -62 -28 -107 -27 -119 4 -5 15
-25 30 -55 41 -25 10 -48 16 -50 13 -3 -3 3 -25 14 -49 18 -41 25 -74 22 -110
-1 -8 -19 -25 -40 -37 -30 -17 -45 -20 -64 -13 -14 5 -43 10 -65 9 -22 0 -45
3 -52 7 -6 4 -22 0 -35 -9 -13 -9 -33 -16 -43 -16 -11 0 -25 -7 -32 -15 -17
-20 -39 -19 -95 6 -47 21 -49 21 -62 3 -11 -15 -11 -19 2 -27 8 -4 15 -15 15
-23 0 -12 -10 -15 -37 -14 -67 3 -74 1 -85 -30 -11 -34 -34 -50 -72 -50 -30 0
-36 -7 -29 -42 4 -20 13 -29 34 -33 17 -4 35 -2 42 3 7 5 35 13 63 17 49 6 54
5 83 -24 38 -37 44 -38 73 -9 20 20 21 23 5 26 -52 10 19 62 86 62 38 0 70 10
134 41 76 37 82 42 66 54 -25 19 -7 35 46 42 46 6 54 -7 19 -31 -18 -13 -19
-16 -6 -16 23 0 40 -34 33 -63 -4 -15 -1 -28 9 -36 21 -18 21 -80 0 -88 -11
-4 -14 -13 -10 -29 4 -14 -1 -38 -10 -55 -13 -26 -14 -36 -3 -55 9 -17 9 -27
1 -37 -8 -10 -6 -20 8 -42 26 -39 25 -81 -1 -125 -29 -47 -34 -50 -107 -50
-35 0 -72 -5 -82 -10 -15 -8 -34 -4 -83 19 -51 23 -66 35 -75 60 -6 17 -13 31
-15 31 -17 0 -53 -28 -49 -38 5 -17 -27 -27 -41 -13 -8 8 -6 14 7 24 18 13 18
15 1 41 -16 23 -16 29 -4 36 23 15 87 22 104 13 22 -13 75 -4 75 12 0 17 -48
32 -126 39 -56 5 -62 4 -57 -12 3 -13 -4 -22 -22 -30 -25 -12 -30 -9 -83 39
-58 53 -62 53 -76 -2 -5 -24 -2 -27 27 -33 42 -8 80 -47 106 -108 19 -46 22
-48 61 -48 52 0 53 -12 4 -88 -1 -2 -23 8 -50 21 -46 23 -49 23 -86 8 -22 -9
-38 -23 -38 -32 0 -21 -20 -29 -71 -29 l-39 0 6 44 c8 53 -8 86 -41 86 -15 0
-31 11 -45 31 -19 25 -28 30 -58 27 -52 -4 -49 -22 8 -46 28 -12 52 -27 54
-34 2 -7 9 -30 15 -51 21 -65 -21 -89 -80 -45 -35 26 -62 17 -67 -23 -7 -43
-22 -52 -74 -45 -35 5 -58 2 -83 -10 -53 -25 -74 0 -34 42 17 18 19 26 10 43
-19 34 -81 19 -81 -20 0 -32 -42 -45 -90 -26 -22 8 -40 12 -40 9 1 -21 60
-109 80 -119 l24 -12 -29 -7 c-21 -5 -39 -1 -64 13 -49 28 -121 40 -121 20 0
-8 7 -17 15 -21 20 -7 19 -42 -1 -50 -48 -18 -77 -1 -156 92 l-36 43 -32 -16
c-42 -22 -47 -41 -20 -70 23 -24 23 -25 5 -45 -23 -25 -42 -25 -80 0 -38 25
-60 25 -92 0 -14 -11 -37 -20 -52 -20 -27 0 -81 28 -117 62 -29 26 -89 22 -89
-7 0 -12 14 -28 34 -40 49 -29 93 -73 89 -88 -7 -19 -43 -20 -77 -3 -19 10
-41 13 -61 10 -30 -6 -31 -5 -24 20 9 37 -11 56 -58 56 -28 0 -40 5 -45 17
-11 31 -35 53 -59 53 -29 0 -49 -52 -31 -80 9 -16 9 -23 -5 -36 -21 -21 -41
-9 -34 21 8 32 -42 53 -88 37 -18 -7 -45 -12 -60 -12 -15 0 -36 -5 -47 -10
-16 -9 -24 -5 -50 25 -53 60 -108 37 -94 -39 8 -38 -8 -76 -30 -76 -8 0 -15 9
-15 20 0 31 -41 52 -89 44 -43 -7 -55 8 -30 33 21 21 1 41 -53 53 -59 13 -110
11 -115 -6 -2 -7 5 -10 19 -7 31 6 92 -36 96 -66 6 -39 -14 -47 -40 -17 -25
29 -83 43 -107 27 -8 -5 -17 -26 -20 -47 -5 -33 -11 -40 -32 -42 -20 -2 -28 2
-32 18 -5 20 -11 22 -64 19 -59 -4 -61 -2 -49 37 5 18 1 24 -25 33 -18 6 -41
11 -52 11 -19 0 -20 -6 -6 -60 3 -10 -5 -16 -23 -18 -21 -3 -29 3 -40 25 -18
39 -41 40 -55 3 -6 -16 -20 -33 -30 -36 -10 -4 -26 -14 -35 -22 -23 -19 -92
-10 -121 15 -12 11 -41 25 -63 32 -57 18 -106 1 -159 -55 -36 -38 -46 -43 -97
-48 -56 -6 -58 -5 -58 17 0 13 -6 29 -12 36 -11 10 -8 16 11 32 30 24 31 24
75 -6 56 -38 76 -12 36 45 -20 29 -21 29 -62 14 -22 -7 -49 -14 -60 -14 -32 0
-77 -29 -93 -60 -15 -28 -14 -31 10 -52 31 -27 32 -42 3 -33 -35 11 -69 46
-63 66 3 10 1 20 -5 24 -17 11 -11 23 15 29 38 10 50 41 24 67 -16 16 -27 19
-47 13 -15 -4 -38 -8 -52 -8 -20 -1 -24 3 -22 22 2 12 -6 35 -17 51 -12 16
-18 36 -15 45 5 12 0 16 -19 16 -25 0 -136 76 -185 126 -14 14 -34 24 -52 24
-18 0 -35 9 -47 23 -28 35 -36 37 -88 22 -26 -8 -73 -15 -103 -15 -45 0 -55 3
-59 19 -3 11 -13 21 -24 24 -26 7 -24 35 4 40 21 3 21 4 3 12 -13 6 -29 3 -48
-8 -17 -9 -38 -17 -48 -17 -10 0 -22 -4 -25 -10 -3 -5 -31 -10 -62 -10 l-56 0
19 21 c15 17 26 20 61 14 39 -6 43 -4 43 15 0 27 -27 37 -54 19 -16 -11 -65
-14 -206 -15 -102 -1 -192 -3 -200 -5 -8 -1 -44 1 -79 5 -49 7 -65 13 -68 27
-3 11 -13 19 -23 19 -14 0 -19 13 -24 71 -7 67 -6 72 18 94 30 28 36 79 10 89
-15 6 -15 8 2 27 16 17 16 22 4 29 -19 13 -46 12 -92 0 -33 -10 -42 -8 -68 11
-22 17 -29 30 -28 50 1 15 -3 33 -10 41 -15 19 -6 28 30 28 34 0 45 21 29 57
-10 22 -9 29 9 48 15 16 19 29 14 54 -4 17 -9 30 -13 29 -46 -25 -62 -30 -75
-25 -14 6 -14 10 0 40 13 28 14 43 6 83 -12 53 -3 74 29 74 26 0 24 24 -3 43
-23 15 -23 15 -3 30 11 9 45 23 75 33 30 9 59 20 64 24 12 11 -21 26 -73 33
-59 7 -73 23 -42 46 20 15 21 19 7 24 -22 9 -20 24 5 32 l21 7 -21 15 c-12 8
-21 21 -21 29 0 15 -56 54 -77 54 -10 0 -13 -198 -13 -955z m5315 86 c0 -21
-40 -32 -62 -16 -17 13 -17 14 7 24 32 13 55 10 55 -8z m-4390 -451 c4 -6 -8
-10 -29 -10 -20 0 -36 5 -36 10 0 6 13 10 29 10 17 0 33 -4 36 -10z m0 -35 c0
-12 -40 -19 -61 -11 -9 3 -12 11 -9 16 8 14 70 9 70 -5z m215 5 c0 -5 -4 -10
-10 -10 -5 0 -10 5 -10 10 0 6 5 10 10 10 6 0 10 -4 10 -10z m77 -10 c-3 -11
-1 -20 3 -20 5 0 29 -15 54 -34 24 -19 61 -38 81 -42 25 -4 40 -15 50 -34 8
-15 28 -32 44 -38 17 -6 32 -20 36 -34 4 -12 14 -31 22 -40 37 -42 -21 -66
-63 -27 -28 27 -48 20 -75 -25 -11 -19 -27 -37 -35 -40 -23 -9 -61 11 -81 41
-10 15 -26 36 -35 45 -21 21 -24 58 -5 58 26 0 50 -26 44 -49 -4 -18 -1 -21
24 -22 16 -1 34 -2 40 -3 7 -1 20 11 31 25 16 22 17 29 7 52 -10 22 -19 27
-46 27 -28 0 -36 5 -44 28 -5 16 -24 39 -41 52 -28 21 -35 22 -62 10 -37 -15
-65 -15 -80 0 -18 18 7 44 49 51 21 4 42 14 47 23 13 24 42 21 35 -4z m-37
-150 l35 -18 -28 -11 c-40 -15 -73 -14 -92 5 -12 12 -13 19 -4 30 16 19 47 17
89 -6z m3463 -14 c-1 -15 5 -16 37 -11 23 4 41 2 45 -4 3 -6 20 -11 36 -11 20
0 29 -4 27 -12 -7 -19 -34 -21 -51 -3 -12 11 -22 13 -40 6 -41 -16 -106 27
-80 53 11 11 28 0 26 -18z m-3755 -14 c3 -9 -2 -13 -14 -10 -9 1 -19 9 -22 16
-3 9 2 13 14 10 9 -1 19 -9 22 -16z m122 -53 c0 -14 -28 -29 -44 -23 -18 7
-32 47 -21 63 6 11 65 -25 65 -40z m135 11 c-10 -16 -65 -41 -75 -35 -16 10
-12 21 13 33 28 14 70 15 62 2z m-405 -30 c0 -5 -4 -10 -10 -10 -5 0 -10 5
-10 10 0 6 5 10 10 10 6 0 10 -4 10 -10z m378 -46 c29 -20 28 -34 -4 -34 -33
0 -64 17 -64 35 0 20 39 19 68 -1z m2982 -28 c0 -8 -4 -17 -8 -20 -13 -8 -35
11 -28 23 10 16 36 14 36 -3z m-682 -41 c4 -44 -14 -65 -55 -65 -27 0 -29 8
-7 39 15 21 15 23 -5 37 -33 24 -25 35 22 32 41 -3 42 -4 45 -43z m-201 -6
c-3 -11 -1 -19 4 -19 4 0 24 -14 44 -31 42 -37 34 -63 -11 -39 -28 16 -70 92
-59 110 10 16 27 0 22 -21z m417 15 c7 -19 -1 -34 -19 -34 -15 0 -28 27 -19
41 9 14 31 10 38 -7z m-1535 -48 c9 -10 9 -16 1 -21 -16 -10 -40 2 -40 20 0
19 24 20 39 1z m-479 -6 c0 -5 -7 -10 -15 -10 -9 0 -18 -7 -21 -15 -7 -17
-104 -22 -104 -5 0 6 17 10 38 10 21 0 47 7 58 15 22 17 44 19 44 5z m1454
-35 c22 -33 21 -35 -18 -35 -61 0 -83 19 -54 48 20 20 55 14 72 -13z m-209
-11 c30 -20 31 -30 6 -43 -15 -9 -22 -6 -35 14 -9 14 -14 30 -11 35 8 13 12
13 40 -6z m-1551 -30 c18 -7 12 -24 -10 -24 -8 0 -14 7 -14 15 0 17 2 18 24 9z
m1371 -34 c0 -22 -29 -18 -33 3 -3 14 1 18 15 15 10 -2 18 -10 18 -18z"/>
<path d="M5445 1881 c-12 -20 6 -31 46 -31 33 0 40 3 37 18 -4 20 -72 30 -83
13z"/>
<path d="M5315 1820 c-3 -5 1 -10 9 -10 9 0 16 5 16 10 0 6 -4 10 -9 10 -6 0
-13 -4 -16 -10z"/>
<path d="M5683 1686 c26 -21 58 -69 73 -109 5 -13 13 -17 28 -13 11 3 29 6 39
6 13 0 17 8 17 34 0 37 -12 51 -53 61 -16 4 -34 16 -40 26 -8 14 -23 19 -52
19 l-40 -1 28 -23z"/>
<path d="M5850 1562 c0 -12 30 -52 40 -52 5 0 8 14 8 30 -1 25 -5 30 -25 30
-12 0 -23 -3 -23 -8z"/>
<path d="M5635 1404 c-17 -18 -19 -30 -5 -39 17 -11 50 5 50 25 0 24 -26 33
-45 14z"/>
<path d="M5440 1340 c0 -6 9 -28 20 -50 11 -22 20 -47 20 -56 0 -14 8 -16 46
-11 55 6 84 27 38 27 -35 0 -70 31 -61 54 7 16 -7 30 -40 40 -14 5 -23 3 -23
-4z"/>
<path d="M5240 1330 c0 -5 5 -10 10 -10 6 0 10 5 10 10 0 6 -4 10 -10 10 -5 0
-10 -4 -10 -10z"/>
<path d="M5342 1248 c2 -15 11 -24 26 -26 26 -4 29 15 5 34 -26 19 -35 17 -31
-8z"/>
<path d="M5220 1180 c0 -5 5 -10 10 -10 6 0 10 5 10 10 0 6 -4 10 -10 10 -5 0
-10 -4 -10 -10z"/>
<path d="M3320 1090 c0 -5 5 -10 10 -10 6 0 10 5 10 10 0 6 -4 10 -10 10 -5 0
-10 -4 -10 -10z"/>
<path d="M4460 1060 c0 -5 5 -10 10 -10 6 0 10 5 10 10 0 6 -4 10 -10 10 -5 0
-10 -4 -10 -10z"/>
<path d="M4690 1060 c0 -5 5 -10 10 -10 6 0 10 5 10 10 0 6 -4 10 -10 10 -5 0
-10 -4 -10 -10z"/>
<path d="M4920 1061 c0 -15 30 -41 47 -41 13 0 13 3 3 16 -18 21 -50 37 -50
25z"/>
<path d="M3815 1050 c3 -5 11 -10 16 -10 6 0 7 5 4 10 -3 6 -11 10 -16 10 -6
0 -7 -4 -4 -10z"/>
<path d="M4050 1025 c0 -8 7 -15 15 -15 8 0 15 7 15 15 0 8 -7 15 -15 15 -8 0
-15 -7 -15 -15z"/>
<path d="M4296 1012 c-8 -13 11 -35 23 -28 16 10 14 36 -3 36 -8 0 -17 -4 -20
-8z"/>
<path d="M5060 1008 c0 -7 5 -20 10 -28 8 -12 10 -11 10 7 0 12 -4 25 -10 28
-5 3 -10 0 -10 -7z"/>
<path d="M3658 983 c7 -3 16 -2 19 1 4 3 -2 6 -13 5 -11 0 -14 -3 -6 -6z"/>
<path d="M4576 974 c-9 -23 -2 -28 13 -10 7 8 8 17 3 20 -6 3 -13 -1 -16 -10z"/>
<path d="M4790 970 c-12 -8 -10 -10 8 -10 13 0 20 4 17 10 -7 12 -6 12 -25 0z"/>
<path d="M5156 961 c-4 -7 -5 -15 -2 -18 9 -9 19 4 14 18 -4 11 -6 11 -12 0z"/>
<path d="M4160 931 c0 -32 6 -37 28 -22 19 11 11 45 -11 49 -13 3 -17 -3 -17
-27z"/>
<path d="M3905 940 c3 -5 10 -10 16 -10 5 0 9 5 9 10 0 6 -7 10 -16 10 -8 0
-12 -4 -9 -10z"/>
<path d="M4412 933 c3 -19 48 -32 48 -14 0 10 -31 31 -45 31 -4 0 -5 -8 -3
-17z"/>
<path d="M5250 927 c0 -16 9 -26 30 -34 16 -6 38 -25 47 -41 17 -29 20 -30 68
-25 49 5 101 33 62 33 -9 0 -17 7 -17 15 0 17 55 21 65 5 5 -8 11 -7 20 0 10
8 19 8 35 0 29 -16 54 4 39 31 -12 24 -54 25 -123 3 -50 -16 -53 -16 -113 10
-80 33 -113 34 -113 3z"/>
<path d="M2638 913 c6 -2 18 -2 25 0 6 3 1 5 -13 5 -14 0 -19 -2 -12 -5z"/>
<path d="M4636 911 c-9 -14 3 -39 22 -46 19 -7 50 21 37 34 -16 15 -53 22 -59
12z"/>
<path d="M4872 898 c3 -7 13 -15 24 -17 10 -2 24 -11 31 -20 12 -14 13 -12 11
14 -3 26 -7 30 -37 33 -24 3 -32 0 -29 -10z"/>
<path d="M3770 880 c0 -10 32 -30 49 -30 17 0 13 27 -5 34 -23 9 -44 7 -44 -4z"/>
<path d="M4025 869 c3 -8 22 -23 43 -34 31 -17 38 -26 42 -59 7 -53 34 -70 61
-37 10 13 19 29 19 37 0 20 -55 66 -98 82 -67 24 -73 25 -67 11z"/>
<path d="M5080 870 c-13 -8 -13 -10 2 -10 9 0 20 5 23 10 8 13 -5 13 -25 0z"/>
<path d="M4292 859 c2 -6 7 -10 11 -10 4 1 19 1 35 2 24 0 25 1 7 9 -29 12
-57 12 -53 -1z"/>
<path d="M2915 850 c-3 -5 -1 -10 4 -10 6 0 11 5 11 10 0 6 -2 10 -4 10 -3 0
-8 -4 -11 -10z"/>
<path d="M2505 839 c-10 -15 1 -23 20 -15 9 3 13 10 10 16 -8 13 -22 13 -30
-1z"/>
<path d="M3394 839 c-3 -6 -2 -15 4 -21 12 -12 55 8 47 23 -8 12 -42 12 -51
-2z"/>
<path d="M4515 831 c-8 -15 3 -31 21 -31 9 0 14 7 12 17 -4 20 -24 28 -33 14z"/>
<path d="M5643 827 c4 -10 7 -23 7 -28 0 -5 9 -9 21 -9 26 0 21 18 -11 39 -23
15 -24 15 -17 -2z"/>
<path d="M2750 811 c-9 -18 -8 -21 9 -21 26 0 34 15 17 30 -12 9 -17 7 -26 -9z"/>
<path d="M3632 818 c6 -16 36 -34 44 -25 9 9 -15 37 -33 37 -8 0 -13 -5 -11
-12z"/>
<path d="M4727 823 c-11 -10 13 -33 34 -33 25 0 24 16 0 30 -23 12 -26 12 -34
3z"/>
<path d="M1870 810 c0 -5 7 -10 15 -10 8 0 15 5 15 10 0 6 -7 10 -15 10 -8 0
-15 -4 -15 -10z"/>
<path d="M5131 799 c-32 -27 -20 -35 25 -17 34 14 36 16 18 26 -15 8 -25 6
-43 -9z"/>
<path d="M4868 794 c-30 -16 -37 -50 -18 -98 11 -30 28 -33 56 -11 18 15 18
16 -15 45 l-35 30 24 25 c27 29 25 30 -12 9z"/>
<path d="M5016 801 c-4 -7 -5 -15 -2 -18 9 -9 19 4 14 18 -4 11 -6 11 -12 0z"/>
<path d="M2103 793 c-24 -9 -13 -31 18 -38 22 -5 34 -3 40 6 16 26 -22 47 -58
32z"/>
<path d="M1219 770 c24 -21 41 -26 41 -12 0 15 -24 32 -44 32 -20 -1 -20 -1 3
-20z"/>
<path d="M2995 781 c-7 -12 31 -25 45 -16 6 4 8 11 5 16 -8 12 -42 12 -50 0z"/>
<path d="M2346 771 c-8 -12 2 -38 18 -44 20 -8 38 8 34 29 -3 20 -42 32 -52
15z"/>
<path d="M4407 773 c-4 -3 -7 -15 -7 -26 0 -13 5 -17 16 -13 9 3 28 6 42 6
l27 1 -24 19 c-24 21 -43 25 -54 13z"/>
<path d="M2601 748 c-17 -6 -21 -12 -14 -19 13 -13 55 -8 60 7 6 17 -18 23
-46 12z"/>
<path d="M4610 746 c0 -16 41 -52 69 -61 10 -3 25 -24 34 -47 16 -39 18 -41
53 -35 46 8 54 16 30 29 -10 6 -32 24 -49 39 -16 16 -36 29 -44 29 -7 0 -16 7
-20 15 -5 14 -52 45 -68 45 -3 0 -5 -6 -5 -14z"/>
<path d="M3512 738 c5 -15 57 -18 61 -3 1 6 -13 11 -32 13 -24 3 -32 0 -29
-10z"/>
<path d="M2220 724 c-14 -7 -32 -14 -40 -14 -28 -1 -42 -17 -35 -39 5 -16 14
-21 40 -21 19 0 37 -4 40 -10 3 -5 13 -10 21 -10 10 0 14 13 14 49 0 58 -6 64
-40 45z"/>
<path d="M3751 731 c-16 -10 -7 -47 14 -55 15 -5 59 47 48 58 -9 9 -46 7 -62
-3z"/>
<path d="M1050 710 c0 -5 9 -10 21 -10 11 0 17 5 14 10 -3 6 -13 10 -21 10 -8
0 -14 -4 -14 -10z"/>
<path d="M2867 713 c-15 -15 -5 -23 28 -23 36 0 47 13 19 24 -20 8 -39 8 -47
-1z"/>
<path d="M1956 701 c-6 -9 16 -21 39 -21 7 0 15 7 19 15 4 11 -2 15 -24 15
-16 0 -31 -4 -34 -9z"/>
<path d="M3990 689 c0 -14 5 -19 17 -17 26 5 29 38 4 38 -15 0 -21 -6 -21 -21z"/>
<path d="M5114 699 c-8 -14 30 -49 55 -49 25 0 61 12 61 20 0 4 -18 12 -41 19
-23 7 -47 15 -54 17 -7 3 -16 0 -21 -7z"/>
<path d="M2477 684 c-16 -16 -6 -35 16 -32 12 2 22 10 22 18 0 16 -26 25 -38
14z"/>
<path d="M3372 678 c-20 -20 -14 -30 15 -26 32 4 46 38 16 38 -11 0 -24 -5
-31 -12z"/>
<path d="M4265 680 c-10 -17 20 -44 40 -36 9 3 15 14 13 23 -4 21 -43 30 -53
13z"/>
<path d="M4460 676 c0 -20 57 -38 81 -25 38 20 15 39 -47 39 -22 0 -34 -5 -34
-14z"/>
<path d="M1793 673 c-21 -8 -15 -21 33 -65 25 -23 52 -54 59 -69 13 -25 16
-26 64 -18 64 10 76 16 60 35 -16 19 -66 18 -77 -3 -6 -10 -16 -14 -27 -9 -17
6 -18 38 -1 78 16 37 -60 72 -111 51z"/>
<path d="M1575 660 c-9 -14 -4 -19 21 -21 39 -4 68 1 59 10 -17 15 -73 23 -80
11z"/>
<path d="M3610 662 c0 -14 23 -32 42 -32 21 0 23 11 6 28 -13 13 -48 16 -48 4z"/>
<path d="M5607 663 c-12 -12 -7 -22 18 -39 13 -8 29 -12 36 -8 8 5 7 9 -5 16
-9 5 -16 16 -16 23 0 15 -21 20 -33 8z"/>
<path d="M2747 643 c-15 -14 -6 -23 23 -23 32 0 40 14 14 24 -20 8 -29 8 -37
-1z"/>
<path d="M1466 625 c-11 -8 -41 -18 -68 -21 -26 -4 -48 -10 -48 -15 0 -4 15
-5 34 -2 26 4 42 0 64 -16 17 -11 37 -21 45 -21 20 0 32 -19 29 -43 -3 -13 11
-24 53 -42 41 -18 55 -30 53 -43 -4 -22 54 -52 100 -52 29 0 32 2 22 19 -5 11
-59 60 -119 110 -71 58 -111 98 -113 113 -4 27 -26 33 -52 13z"/>
<path d="M2103 630 c-27 -11 -30 -38 -7 -47 18 -7 44 20 44 44 0 15 -6 15 -37
3z"/>
<path d="M3000 627 c0 -19 29 -57 44 -57 17 0 27 25 20 44 -3 8 -15 17 -27 20
-32 8 -37 7 -37 -7z"/>
<path d="M3880 625 c0 -10 7 -15 18 -13 21 4 19 22 -2 26 -10 2 -16 -3 -16
-13z"/>
<path d="M4100 625 c-10 -13 -9 -19 5 -36 19 -20 19 -20 39 0 16 17 17 23 6
35 -16 20 -34 20 -50 1z"/>
<path d="M5223 624 c-20 -9 -15 -24 13 -51 19 -17 33 -23 50 -19 26 7 32 37
11 54 -16 13 -58 22 -74 16z"/>
<path d="M2327 604 c-17 -18 -6 -35 21 -32 16 2 27 9 27 18 0 16 -36 26 -48
14z"/>
<path d="M3221 597 c-14 -18 -4 -27 31 -27 30 0 35 9 16 28 -16 16 -33 15 -47
-1z"/>
<path d="M4851 584 c-12 -15 -21 -35 -21 -45 0 -52 29 -63 74 -28 24 19 25 23
13 38 -8 9 -18 26 -21 39 -9 29 -20 28 -45 -4z"/>
<path d="M1692 593 c-46 -6 -36 -23 31 -56 50 -25 57 -32 57 -58 0 -24 6 -33
32 -44 19 -8 33 -21 33 -31 0 -11 13 -22 35 -30 50 -18 90 -17 90 1 0 8 -6 15
-14 15 -21 0 -66 58 -66 85 0 17 -7 24 -29 28 -16 3 -51 27 -77 52 -27 25 -51
44 -54 43 -3 0 -20 -3 -38 -5z"/>
<path d="M4380 591 c0 -5 7 -14 15 -21 7 -6 28 -36 45 -66 27 -48 34 -55 58
-52 36 4 40 32 8 60 -86 77 -126 102 -126 79z"/>
<path d="M4595 587 c-17 -13 -17 -15 6 -30 32 -23 69 -22 69 1 0 38 -40 54
-75 29z"/>
<path d="M2566 561 c-7 -11 14 -20 32 -14 6 3 12 9 12 14 0 12 -37 12 -44 0z"/>
<path d="M2800 562 c0 -5 16 -22 36 -37 31 -24 38 -25 50 -13 12 11 12 17 2
31 -15 20 -88 36 -88 19z"/>
<path d="M3702 558 c3 -7 24 -14 49 -16 41 -2 43 -1 25 13 -24 19 -79 20 -74
3z"/>
<path d="M2160 545 c-18 -21 -2 -35 44 -40 21 -2 45 -10 55 -19 21 -19 31 -20
31 -3 0 15 -84 77 -104 77 -7 0 -19 -7 -26 -15z"/>
<path d="M2456 526 c-17 -33 -17 -34 3 -74 18 -35 28 -42 78 -57 35 -11 68
-29 83 -46 24 -27 105 -57 118 -44 10 9 -28 35 -50 35 -11 0 -32 14 -48 31
-23 26 -38 33 -80 37 -55 5 -68 18 -51 49 5 11 7 38 4 61 -7 53 -31 56 -57 8z"/>
<path d="M3060 552 c0 -14 23 -32 42 -32 27 0 22 19 -8 30 -31 12 -34 12 -34
2z"/>
<path d="M4002 544 c2 -11 11 -20 22 -22 13 -3 17 1 14 14 -2 11 -11 20 -22
22 -13 3 -17 -1 -14 -14z"/>
<path d="M4215 529 c-10 -16 25 -49 52 -49 28 0 40 24 23 45 -14 17 -66 20
-75 4z"/>
<path d="M3330 507 c0 -31 51 -50 66 -25 8 13 -22 38 -48 38 -10 0 -18 -6 -18
-13z"/>
<path d="M5205 510 c-3 -5 -2 -10 4 -10 5 0 13 5 16 10 3 6 2 10 -4 10 -5 0
-13 -4 -16 -10z"/>
<path d="M3842 468 c3 -30 6 -33 41 -36 20 -2 37 0 37 3 0 10 -61 65 -72 65
-5 0 -8 -15 -6 -32z"/>
<path d="M2021 476 l-24 -13 24 -17 c14 -9 35 -34 48 -56 18 -33 28 -40 52
-40 17 0 36 -8 46 -20 10 -11 28 -20 40 -20 16 0 27 -8 33 -24 11 -30 39 -46
78 -46 42 0 45 9 12 47 -17 18 -30 40 -30 48 0 11 -12 15 -43 15 -30 0 -53 7
-77 25 -19 14 -43 25 -53 25 -16 0 -18 5 -13 34 5 28 3 37 -13 45 -26 14 -51
13 -80 -3z"/>
<path d="M3590 475 c0 -11 7 -15 23 -13 12 2 22 8 22 13 0 6 -10 11 -22 13
-16 2 -23 -2 -23 -13z"/>
<path d="M4097 455 c18 -38 43 -51 69 -37 13 7 10 14 -21 40 -50 45 -70 43
-48 -3z"/>
<path d="M2735 470 c-4 -6 5 -10 20 -10 15 0 24 4 20 10 -3 6 -12 10 -20 10
-8 0 -17 -4 -20 -10z"/>
<path d="M2990 450 c0 -5 9 -10 20 -10 11 0 20 5 20 10 0 6 -9 10 -20 10 -11
0 -20 -4 -20 -10z"/>
<path d="M2270 442 c0 -8 38 -52 45 -52 2 0 10 3 19 6 24 9 19 29 -9 42 -30
14 -55 15 -55 4z"/>
<path d="M3172 433 c3 -18 38 -29 64 -19 26 10 3 36 -33 36 -27 0 -34 -4 -31
-17z"/>
<path d="M4353 433 c-17 -6 -17 -38 0 -51 10 -9 17 -4 30 17 15 26 15 29 1 35
-9 3 -16 6 -17 5 -1 0 -8 -3 -14 -6z"/>
<path d="M3451 416 c-9 -10 -3 -17 32 -30 54 -20 57 -20 57 4 0 35 -66 54 -89
26z"/>
<path d="M2825 406 c-16 -12 -17 -16 -6 -30 7 -9 24 -16 38 -16 31 0 42 29 18
46 -23 17 -27 17 -50 0z"/>
<path d="M3670 400 c-13 -8 -12 -16 9 -55 27 -51 35 -54 62 -22 19 23 23 44
13 71 -7 18 -60 22 -84 6z"/>
<path d="M3073 390 c-40 -16 -19 -50 29 -50 30 0 31 2 22 38 -7 24 -16 26 -51
12z"/>
<path d="M3951 366 c-17 -20 -10 -50 11 -54 20 -4 61 34 55 51 -6 18 -52 20
-66 3z"/>
<path d="M1755 330 c-8 -35 7 -60 37 -60 28 0 33 28 11 58 -28 37 -40 38 -48
2z"/>
<path d="M2415 346 c-20 -14 -14 -30 15 -46 14 -7 23 -6 34 6 28 27 -17 64
-49 40z"/>
<path d="M3303 352 c-10 -6 -9 -13 3 -30 19 -28 30 -28 45 -1 9 17 8 23 -2 30
-17 11 -30 11 -46 1z"/>
<path d="M1995 315 c-16 -8 -43 -14 -59 -15 -40 0 -27 -11 26 -20 24 -5 50
-11 58 -15 9 -3 24 1 34 8 15 11 17 17 7 35 -13 25 -24 26 -66 7z"/>
</g>
</svg>
